<?xml version="1.0" encoding="utf-8"?>
<!-- Generator: Adobe Illustrator 19.2.1, SVG Export Plug-In . SVG Version: 6.00 Build 0)  -->
<svg version="1.1" id="Layer_1" xmlns="http://www.w3.org/2000/svg" xmlns:xlink="http://www.w3.org/1999/xlink" x="0px" y="0px"
	 viewBox="0 0 100 100" style="enable-background:new 0 0 100 100;" xml:space="preserve">
<style type="text/css">
	.st0{fill:#261449;}
	.st1{fill:#4EE482;}
</style>
<g>
	<path class="st0" d="M5.9,48.4c0.5,0,0.6-0.2,0.6-0.7c0-1.1,0-2.1,0-3.2c-0.1-0.8,0.1-1.1,1-1c1.1,0.1,2.3,0.1,3.4-0.2
		c2.1-0.6,3.8-2.4,4-4.6c-0.8,0-1.7-0.1-2.5-0.4c-2.6-0.9-4.2-3.3-4.3-6c0-1,0-2,0-3c0-0.9-0.3-1.7-1-2.2c-0.2-0.3-0.4-0.4-0.7-0.6
		c-4.8-3.5-7-8.2-6.1-14.1c0.9-6,4.4-10,10.2-11.7c6-1.8,11.2-0.1,15.3,4.7c3.9,4.6,4.6,11.4,1,17.1c-1.2,1.7-2.6,3.1-4.3,4.2
		c-1,0.7-1.4,1.7-1.4,2.8c0,0.8,0,1.7,0,2.5c0,3.1-1.5,5.2-4.4,6.3c-0.1,0.1-0.3,0.1-0.4,0.3c0.3,0,0.6,0,0.9,0c6.2,0,12.5,0,18.7,0
		c0.7,0,0.9,0.2,1.1,0.8c0.9,2.7,2.8,4,5.6,4c0.6,0,1.3,0,1.9,0c0.5,0,0.7,0.2,0.6,0.7c0,1.2,0,2.3,0,3.5c0,0.3-0.1,0.7,0.4,0.7
		c1.6,0,3,0.8,4.2,1.8c1.6,1.8,2.2,3.9,1.6,6.3c-0.1,0.5-0.3,1.1-0.7,1.5c-0.9,0.9-0.6,1.6-0.1,2.5c3.5,6.3,8.9,9.7,16.1,10.4
		c0.6,0.1,0.9-0.1,1-0.8c0-0.8,0.2-1.5,0.3-2.3c-0.7-0.1-1.5-0.2-2.2-0.3c-7.8-1-13.8-7.6-14.1-15.5c-0.2-7.8,5.4-14.8,13-16.3
		c8.6-1.7,17,3.8,18.9,12.5c1.8,8.3-3.4,16.7-11.7,18.9c-0.2,0.1-0.4,0.1-0.7,0.2c0.5,0.5,1.1,0.3,1.7,0.5c0.7,0.2,1.4,0.4,1.8,0.8
		c0.7,0.6,1.2,0.5,2,0.1c7.1-4,10.9-10.1,10.4-18.3c-0.5-8.2-4.8-14-12.5-16.9c-8.3-3.3-17.3-0.4-22.6,6.9c-0.1,0.2-0.2,0.3-0.4,0.4
		c-0.1-1.4-0.5-2.8-0.9-4.1c3.8-4.2,8.4-6.8,14-7.5c7.4-0.9,13.9,1.2,19.1,6.6c9,9.4,8.6,23.5-0.9,32.4c-1.5,1.4-3.1,2.5-4.9,3.4
		c-0.6,0.3-1,0.6-0.7,1.3c0.2,0.8,0,1.6,0,2.5c1.5-0.5,2.9-1.2,4.1-2.1c0.5-0.3,0.9-0.4,1.5-0.1c0.9,0.5,1.9,1.4,2.8,1.2
		c0.8-0.2,1.5-1.3,2.2-2c0.9-0.8,1.7-1.7,2.6-2.5c0.4-0.3,0.4-0.6,0.1-1c-1.5-1.9-1.4-3.6,0-5.6c1.2-1.8,1.8-3.9,2.3-6.1
		c0.1-0.6,0.4-0.9,1-1c0.8-0.2,1.5-0.5,2.3-0.7c0.5-0.1,0.6-0.4,0.6-0.8c0-2,0-4,0-6.1c0-0.5-0.2-0.8-0.6-0.9
		c-0.8-0.3-1.7-0.6-2.5-0.8c-0.4-0.1-0.6-0.3-0.7-0.8c-0.7-3-1.8-5.7-3.4-8.3c-0.3-0.4-0.4-0.8,0-1.2c0,0,0-0.1,0-0.1
		c0.4-0.9,1.4-1.9,1.2-2.8c-0.2-0.9-1.3-1.5-2.1-2.3c-0.8-0.8-1.7-1.6-2.5-2.5c-0.3-0.3-0.5-0.5-1-0.2c-1,0.5-2,1.4-3,1.3
		c-0.9,0-1.9-1-2.8-1.4c-1.9-1-3.9-1.7-6-2.2c-0.6-0.1-0.8-0.4-1-0.9c-0.3-1-0.3-2.3-1.1-2.8c-0.8-0.5-2-0.1-3.1-0.1
		c-1.1,0-2.3,0-3.4,0c-0.5,0-0.9,0.1-1,0.7c-0.3,2.3-1.5,3.5-3.9,3.8c-1.8,0.3-3.4,1.3-5.1,2.2c0.1-1.2-0.4-2.2-0.6-3.4
		c0.9-0.4,1.8-0.8,2.7-1.3c1.1-0.5,2.5-0.4,3.3-1.3c0.7-0.9,0.9-2.2,1.2-3.4c0.1-0.5,0.4-0.7,0.9-0.7c3.6,0,7.2,0,10.7,0
		c0.5,0,0.7,0.1,0.8,0.6c0.3,1,0.7,2,1,3c0.1,0.5,0.4,0.8,0.9,0.9c2.1,0.6,4.1,1.4,6,2.5c0.4,0.2,0.7,0.2,1.1,0
		c0.9-0.5,1.9-1,2.9-1.5c0.4-0.2,0.7-0.2,1,0.1c2.5,2.6,5.1,5.1,7.7,7.7c0.4,0.3,0.3,0.6,0.1,1c-0.5,0.9-0.9,1.9-1.4,2.8
		c-0.3,0.5-0.2,0.8,0,1.2c0.6,1.1,1,2.2,1.6,3.2c0.5,1.1,0.4,2.6,1.3,3.3c0.9,0.7,2.2,0.9,3.4,1.2c0.5,0.2,0.7,0.4,0.7,1
		c0,3.3-0.1,6.6,0,9.9c0,1.2-0.3,1.7-1.4,1.9c-0.7,0.1-1.4,0.5-2.1,0.7c-0.5,0.1-0.8,0.4-0.9,1c-0.5,2-1.3,3.9-2.4,5.7
		c-0.3,0.6-0.3,1,0,1.5c0.4,0.8,0.7,1.6,1.2,2.3c0.4,0.6,0.3,1-0.2,1.5c-2.4,2.3-4.7,4.7-7,7c-0.6,0.6-1.1,0.9-1.9,0.3
		c-1.8-1.4-3.6-1.6-5.6-0.1c-0.9,0.7-2.5,0.5-3.1,1.5c-0.6,0.9-0.6,2.2-0.7,3.4c-0.5,3.8-1.6,7.4-1.7,11.2c-0.1,3.3-3,5.9-6.2,5.9
		c-13.7,0-27.3,0.1-41,0c-5.6,0-10.5-4.8-10.7-10.4c-0.1-2.8,0-5.6-0.1-8.4c-0.1-2.6,0-5.2,1.9-7.3C12.4,72.4,8.6,69,7,63.5
		c-0.4-1.4-0.8-2.1-2.4-2.5c-4.5-1.1-6.3-6.8-2.8-10.6C3,49.3,4.3,48.5,5.9,48.4z M9.7,59.6c0.1,6.4,5,11.3,11.4,11.3
		c3.2,0,6.4,0,9.6,0c6.3,0,11.2-5,11.3-11.3c0-4,0-8,0-12c0-0.6-0.1-0.9-0.8-1c-2.8-0.3-4.9-1.7-6.3-4c-0.3-0.5-0.6-0.7-1.2-0.7
		c-5.2,0-10.4,0-15.6,0c-0.6,0-0.9,0.2-1.2,0.7c-1.5,2.3-3.6,3.7-6.3,4c-0.7,0.1-0.8,0.3-0.8,0.9c0,2.2,0,4.4,0,6.6c0,0,0,0,0,0
		C9.7,56,9.7,57.8,9.7,59.6z M80.6,51.6c0-7.1-5.8-12.9-12.9-12.9c-7.1,0-12.9,5.8-12.9,12.9c0,7.1,5.8,12.9,12.9,12.9
		C74.8,64.5,80.6,58.7,80.6,51.6z M12.9,19.8c0-0.5-0.1-0.7-0.6-1c-2.1-1.1-3.1-3.3-2.5-5.5c0.5-2.1,2.5-3.6,4.7-3.6
		c2.2,0,4.1,1.4,4.7,3.6c0.6,2.2-0.4,4.3-2.5,5.5c-0.4,0.2-0.6,0.4-0.5,0.9c0,2.9,0,5.8,0,8.7c0,0.4,0,0.8,0.5,0.7
		c0.4-0.1,1,0.3,1.1-0.6c0.3-2,1.4-3.5,3.1-4.7c4.3-2.9,5.9-8.3,4.2-13.1c-1.8-5-6.6-7.9-12.1-7.3c-4.7,0.5-8.9,4.5-9.6,9.4
		c-0.6,4.4,0.8,8,4.3,10.7c1.8,1.3,3.2,2.8,3.5,5.1c0.1,0.8,0.8,0.4,1.2,0.5c0.5,0.1,0.5-0.2,0.5-0.6c0-1.5,0-3,0-4.5
		C12.9,22.6,12.9,21.2,12.9,19.8z M39.9,96.7c1.5,0,2-0.6,2-2c0-1.9,0-3.8,0-5.7c0-1.4-0.6-2-2-2c-2.6,0-5.1,0-7.7,0
		c-0.5,0-0.8,0.1-1.1,0.6c-0.6,1-1.3,1.9-1.9,2.9c-0.3,0.5-0.5,0.6-1,0.2c-0.6-0.5-1.7-0.8-1.9-1.4c-0.2-0.6,0.7-1.4,1.2-2
		c1.3-1.6,1.9-3.3,1.6-5.3c-0.1-1,0-2,0-3c-0.1-2.8-2.2-4.9-4.9-4.9c-2.7,0-4.8,2.2-4.8,5c0,3.1,0,6.2,0,9.4c0,4.6,3.5,8.1,8.1,8.2
		c2,0,4,0,6,0C35.7,96.7,37.8,96.8,39.9,96.7z M41.3,81.5c0.1,0.3,0.2,0.6,0.3,0.9c0.3,1.4,0.3,1.4,1.7,1.4c2.1,0,4.3,0,6.4,0
		c3.1,0,5.1,2.1,5.1,5.2c0,1.3,0,1.3,1.3,1.3c2.6,0,5.1,0,7.7,0c0.7,0,1-0.1,1-0.9c0.2-1.6,0.4-3.2,0.7-4.8c0.1-0.6,0-0.8-0.7-0.8
		c-0.8,0.1-1.6,0-2.3,0c-0.6,0-0.9-0.1-1.1-0.8c-0.2-1-0.6-1.9-0.9-2.9c-0.1-0.4-0.3-0.6-0.8-0.8c-2.1-0.6-4.2-1.4-6.1-2.5
		c-0.4-0.2-0.7-0.2-1.1,0c-0.9,0.5-1.8,0.9-2.7,1.4c-0.6,0.3-0.9,0.2-1.3-0.2c-2.4-2.5-4.9-4.9-7.3-7.3c-0.4-0.4-0.7-0.6-1.2-0.1
		c-1.5,1.4-3.3,2.3-5.4,3C37.9,75.5,40.2,78,41.3,81.5z M66.1,74.1c-2.8-0.2-5.4-0.9-7.9-2c-4.7-2.2-8.3-5.6-10.7-10.3
		c-0.2-0.3-0.1-1-0.9-0.7c-0.7,0.3-1.7-0.2-1.8,1.2c-0.2,1.8-0.9,3.4-1.8,4.9c-0.2,0.4-0.3,0.6,0.1,1c2.1,2,4.2,4.1,6.2,6.2
		c0.3,0.3,0.6,0.4,1,0.2c0.9-0.5,1.9-1.3,2.9-1.3c0.9,0,1.9,0.9,2.8,1.4c1.9,1,3.9,1.7,6,2.2c0.6,0.1,0.9,0.4,1,1
		c0.2,0.7,0.5,1.5,0.7,2.2c0.1,0.6,0.5,0.7,1,0.7c1,0.1,1.4-0.2,1.5-1.3c0.1-1.6,0.4-3.2,0.7-4.9C67,73.9,66.4,74.1,66.1,74.1z
		 M46,93.5c-0.7,0-1,0.1-0.9,0.8c0,0.4,0,0.7,0,1.1c0,0.4-0.3,1-0.1,1.2c0.3,0.3,0.9,0.1,1.4,0.1c7,0,13.9,0,20.9,0
		c1.8,0,3-0.8,3.5-2.2c0.2-0.7,0.2-1-0.7-1c-4,0-8.1,0-12.1,0C54,93.5,50,93.6,46,93.5z M71.5,88.7c0.9-4.8,1.7-9.5,2.6-14.3
		c0.3-1.9-0.8-3.4-2.7-3.5c-0.4,0-0.7,0-0.8,0.6c-0.8,6.1-1.7,12.1-2.6,18.2c-0.1,0.5,0.1,0.6,0.5,0.6c0.4,0,0.7,0,1.1,0
		C71.2,90.3,71.2,90.3,71.5,88.7z M32.2,82.8c0,0.9,0.2,1.1,1.1,1c1.5-0.1,3,0,4.6,0c0.5,0,0.7-0.1,0.6-0.6c-1-3.5-3.2-6-6.8-7.3
		C32.6,78.3,32.2,80.6,32.2,82.8z M45.1,89.7c0,0.5,0.1,0.6,0.6,0.6c1.8,0,3.5,0,5.3,0c0.4,0,0.6-0.1,0.6-0.5
		c-0.1-0.6,0.1-1.2-0.2-1.8c-0.3-0.5-0.7-0.8-1.2-0.9c-0.3,0-0.5,0-0.8,0c-1.5,0-3,0-4.5,0C45.2,88,45.2,88.9,45.1,89.7z M45.1,57.5
		c0,0.5,0.2,0.5,0.6,0.5c1.4-0.1,2.7-1.7,2.7-3.2c0-1.6-1.4-3-2.8-3.1c-0.5,0-0.4,0.2-0.4,0.5c0,0.9,0,1.8,0,2.6
		C45.1,55.7,45.2,56.6,45.1,57.5z M11.9,32.3c-0.6,0-0.6,0.2-0.5,0.7c0.3,1.4,1.7,2.6,3.3,2.6c1.5-0.1,2.9-1.3,3.1-2.7
		c0.1-0.4-0.1-0.5-0.5-0.5c-0.9,0-1.8,0-2.7,0C13.7,32.3,12.8,32.3,11.9,32.3z M6.5,52.2c0-0.6-0.2-0.6-0.7-0.5
		c-1.5,0.3-2.5,1.6-2.5,3c0,1.5,0.9,2.8,2.3,3.2c0.6,0.2,0.9,0.1,0.9-0.7c-0.1-0.8,0-1.6,0-2.4C6.5,54,6.4,53.1,6.5,52.2z
		 M12.9,14.5c0,0.9,0.7,1.6,1.6,1.6c0.9,0,1.6-0.7,1.6-1.6c0-0.9-0.7-1.6-1.6-1.6C13.7,12.9,12.9,13.7,12.9,14.5z"/>
	<g>
		<path class="st1" d="M1.9,50.3c1.1-1.1,2.5-1.8,4-1.9c0.5,0,0.6-0.2,0.6-0.7c0-1.1,0-2.1,0-3.2c-0.1-0.8,0.1-1.1,1-1
			c1.1,0.1,2.3,0.1,3.4-0.2c2.1-0.6,3.8-2.4,4-4.6c-0.8,0-1.7-0.1-2.5-0.4c-2.6-0.9-4.2-3.3-4.3-6c0-1,0-2,0-3c0-0.9-0.3-1.7-1-2.2
			c-2.5,1.8-4.2,4.3-5.4,7.1c-2.2,5.1-2.2,10.2,0,15.3C1.7,49.8,1.8,50,1.9,50.3z"/>
		<g>
			<path class="st1" d="M51.6,40.9c-0.1-1.4-0.5-2.8-0.9-4.1c-0.2-0.4-0.4-0.7-0.6-1.1c-0.4-0.6-0.3-0.9,0.4-1.1
				c1.1-0.3,2-1,2.8-1.8c0.9-1,1.3-2.2,1.6-3.5c0.1-1.2-0.4-2.2-0.6-3.4c-0.1-0.2-0.3-0.3-0.4-0.5c-1.3-1.9-3.1-2.8-5.5-2.8
				c-6.8,0-13.6,0-20.5,0c-0.4,0-0.8,0.1-1.2-0.1c-1.2,1.7-2.6,3.1-4.3,4.2c-1,0.7-1.4,1.7-1.4,2.8c0,0.8,0,1.7,0,2.5
				c0,3.1-1.5,5.2-4.4,6.3c-0.1,0.1-0.3,0.1-0.4,0.3c0.3,0,0.6,0,0.9,0c6.2,0,12.5,0,18.7,0c0.7,0,0.9,0.2,1.1,0.8
				c0.9,2.7,2.8,4,5.6,4c0.6,0,1.3,0,1.9,0c0.5,0,0.7,0.2,0.6,0.7c0,1.2,0,2.3,0,3.5c0,0.3-0.1,0.7,0.4,0.7c1.6,0,3,0.8,4.2,1.8
				c0.8-1.4,1.4-2.8,1.6-4.4C51.7,44.2,51.5,42.6,51.6,40.9z"/>
			<path class="st1" d="M80.6,6.5c2.7,0,4.8,2.2,4.8,4.9c0,2.6-2.3,4.9-4.9,4.8c-2.7,0-4.8-2.2-4.8-4.9C75.8,8.7,78,6.5,80.6,6.5z
				 M82.2,11.3c0-0.9-0.7-1.6-1.6-1.6c-0.9,0-1.6,0.7-1.6,1.6c0,0.9,0.7,1.6,1.6,1.6C81.5,12.9,82.2,12.2,82.2,11.3z"/>
			<path class="st1" d="M72.6,11.3c0,2.6-2.1,4.9-4.8,4.9c-2.6,0-4.9-2.2-4.9-4.8c0-2.7,2.1-4.9,4.8-4.9
				C70.3,6.5,72.5,8.6,72.6,11.3z M69.3,11.3c0-0.9-0.7-1.6-1.6-1.6c-0.9,0-1.6,0.7-1.6,1.6c0,0.9,0.7,1.6,1.6,1.6
				C68.6,12.9,69.3,12.2,69.3,11.3z"/>
			<path class="st1" d="M59.7,11.4c0,2.7-2.3,4.8-4.9,4.8c-2.7,0-4.8-2.2-4.8-4.9c0-2.7,2.2-4.8,4.9-4.8
				C57.5,6.5,59.7,8.7,59.7,11.4z M53.2,11.4c0,0.9,0.7,1.6,1.6,1.6c0.9,0,1.6-0.7,1.6-1.6c0-0.9-0.7-1.6-1.6-1.6
				C53.9,9.8,53.2,10.5,53.2,11.4z"/>
		</g>
	</g>
	<path class="st0" d="M25.9,67.8c3.3,0,6.5-2.2,7.7-5.2c0.2-0.6,0.1-0.9-0.5-1c-0.1,0-0.2,0-0.3-0.1c-0.6-0.2-1.2-0.6-1.8-0.6
		c-0.6,0.1-0.6,0.9-0.9,1.4c-2.3,3.2-7.1,2.8-8.8-0.8c-0.3-0.6-0.5-0.8-1.1-0.5c-0.2,0.1-0.5,0.2-0.7,0.3c-1.7,0.6-1.7,0.6-0.8,2.1
		C20,66.1,22.8,67.8,25.9,67.8z"/>
	<path class="st0" d="M13,54.9c0.3,0,0.6,0,0.9,0c0.5,0.1,0.6-0.2,0.8-0.6c0.4-1.6,1.6-2.7,3.2-2.6c1.5,0,2.8,1.1,3.1,2.7
		c0.1,0.5,0.2,0.6,0.7,0.6c0.6,0,1.3,0,1.9,0c0.6,0,0.7-0.2,0.7-0.7c-0.3-2.9-2.8-5.4-5.7-5.7c-3.2-0.3-6,1.5-6.9,4.5
		C11,54.8,11.1,54.9,13,54.9z"/>
	<path class="st0" d="M38.6,54.9c2,0,2-0.1,1.5-1.9c-0.9-3-3.7-4.9-7-4.6c-2.9,0.3-5.2,2.7-5.6,5.6c-0.1,0.6,0,0.9,0.7,0.8
		c0.2,0,0.5,0,0.7,0c1,0.1,1.8,0.1,2.2-1.3c0.3-1.3,1.5-1.9,2.9-1.9c1.3,0,2.7,0.8,2.9,2C37.1,54.9,37.7,55,38.6,54.9z"/>
</g>
</svg>
