<?xml version="1.0" encoding="utf-8"?>
<!-- Generator: Adobe Illustrator 19.2.1, SVG Export Plug-In . SVG Version: 6.00 Build 0)  -->
<svg version="1.1" id="Layer_1" xmlns="http://www.w3.org/2000/svg" xmlns:xlink="http://www.w3.org/1999/xlink" x="0px" y="0px"
	 viewBox="0 0 100 100" style="enable-background:new 0 0 100 100;" xml:space="preserve">
<style type="text/css">
	.st0{fill:#261449;}
	.st1{fill:#4EE482;}
</style>
<g>
	<path class="st0" d="M66,35.2c1.8,2.5,2.4,5.2,1.2,8.1c-0.7,1.8-1.9,3.1-3.6,4.1c-0.4,0.2-0.7,0.5-0.7,1c0,2.7,0.1,3.2,3.2,3.2
		c8.6-0.1,17.1,0,25.7,0c3.8,0,6.2,3.7,4.5,7c-0.9,1.8-2.5,2.7-4.5,2.7c-4,0-8.1,0-12.1,0c-1.8,0-2.7,1.1-2.2,2.9
		c0.1,0.6,0.6,0.3,0.9,0.3c5.5,0,10.9,0,16.4,0c0.7,0,1.3,0,2,0c2,0.1,3.4,1.4,3.4,3.4c0,8.6,0,17.1,0,25.7c0,3.5-2.8,6.4-6.4,6.4
		c-14,0-28,0-42,0c-2.1,0-3.8-0.9-5-2.5c-0.4-0.6-0.9-0.7-1.5-0.7c-10.3,0-20.7,0-31,0c-0.9,0-1.1-0.2-1.1-1.1c0-6.9,0-13.7,0-20.6
		c0-0.8,0.2-0.9,0.9-0.9c0.9,0.1,2,0.3,2.7-0.1c0.7-0.4,0.6-1.6,1-2.4c2-5.1,5.4-8.9,10.3-11.5c-0.5-0.2-0.9-0.4-1.3-0.6
		c-4.6-2.2-7.7-5.7-9.4-10.4c-0.2-0.6-0.5-0.9-1.1-0.8c-1.4,0.1-2.7,0-4-0.4C6.2,46,4.6,38.6,9,34.5c0.5-0.5,0.7-0.9,0.7-1.6
		c0-3-0.2-6.1,0.2-9.1c1.4-10.9,9.3-19.9,20-22.8c10.7-3,22.4,1,29,9.9c0.2,0.3,0.3,0.6,0.7,0.8c1.5-3.3,3.7-6,6.6-8.1
		c10.2-7.3,24.9-2.8,29.2,9c4.2,11.4-2.7,23.6-14.7,25.8c-5,0.9-9.6-0.1-13.9-2.8c-0.3-0.2-0.5-0.3-0.8-0.5c-0.1-0.1-0.2-0.2-0.3,0
		C65.8,35,65.9,35.1,66,35.2z M49.6,90.3c2.6,0,5.3,0,7.9,0.1c0.6,0,0.6-0.4,0.6-0.7c0-3.8,0-7.6,0-11.4c0-0.6-0.2-0.8-0.8-0.8
		c-3.5,0-7,0-10.5,0c-4.1,0.1-7.4,2.9-7.9,6.9c-0.4,2.9-0.1,5.8-0.1,8.8c0,0.5,0.4,0.4,0.7,0.4c1.5,0,3.1-0.1,4.6,0
		c0.9,0,1.3-0.1,1.2-1.2c-0.1-2,0-2,1.9-2.1C47.9,90.4,48.8,90.4,49.6,90.3z M16.2,30.4c0.4-1.3,0.8-2.5,1.6-3.6
		c2.4-3.4,6.1-4.7,10.1-3.7c1.5,0.4,2.9,0.8,4.4,1.1c5.8,1.3,11.6,1.7,17.5,1.6c3.7,0,6.7,2.2,7.9,5.7c0.1,0.2,0,0.5,0.3,0.7
		c1.1,0.2,2.1-0.1,3.3,0.3c0-3.1,0.1-6-0.3-9C59,10.4,45.9,1.1,32.9,3.6C20.9,5.9,11.2,16.3,13,32.4c0.5,0,0.9-0.1,1.4-0.1
		C16.1,32.2,16.1,32.2,16.2,30.4z M19.4,38.6c0.1,2.1-0.2,4.6,0.2,7.2c0.8,6,6,11.2,11.9,12.1c2.8,0.4,5.5,0.1,8.3,0.2
		c8.3,0.3,15.3-6.3,15.1-15.2c-0.1-2.8-0.1-5.6,0-8.4c0.1-3.1-2.1-5.5-5.5-5.4c-7.9,0.2-15.7-0.8-23.3-3.1c-0.4-0.1-0.9-0.2-1.3-0.1
		c-3.3,0.6-5.4,3.2-5.4,6.5C19.4,34.3,19.4,36.2,19.4,38.6z M93.5,19.2c0-0.5-0.1-1.3-0.2-2c-1-7.3-7.2-13.3-14.5-13.8
		C71,2.7,64,7.6,61.9,14.9c-0.1,0.4-0.1,0.8,0.1,1.2c1.8,3.8,2.6,7.9,2.5,12.1c0,0.6,0.2,1,0.5,1.4c4.3,5.2,11.4,7.2,17.6,5
		C89.2,32.2,93.5,26.2,93.5,19.2z M46.5,60.2c4.9,2.6,8.3,6.3,10.3,11.5c0.3,0.8,0.3,2,0.9,2.4c0.6,0.4,1.8,0.2,2.7,0.1
		c0.8-0.1,1,0.2,1,1c0,4.3,0,8.7,0,13c0,2.2,0,2.1,2.2,2.2c0.9,0,1.1-0.2,1.1-1.1c0-7,0-14.1,0-21.1c0-2.4,1.3-3.7,3.7-3.7
		c1.6,0,3.2-0.1,4.8,0c1,0.1,1.3-0.2,1.3-1.3c-0.1-3.2,2-5.2,5.2-5.2c2.7,0,5.5,0,8.2,0c1.5,0,2.9,0,4.4,0c0.9,0,1.5-0.7,1.5-1.6
		c0-0.8-0.6-1.5-1.5-1.6c-0.3,0-0.7,0-1,0c-8.8,0-17.5,0-26.3,0c-2.5,0-4.4-1.4-5-3.6c-0.2-0.7-0.2-1.5-0.2-2.2
		c0-0.2,0.1-0.6-0.2-0.6c-0.6-0.1-1.3-0.1-1.9,0c-0.5,0-0.4,0.6-0.5,0.9c-1.8,4.9-5,8.4-9.7,10.5C47.1,59.9,46.8,60.1,46.5,60.2z
		 M96.8,79.1c0-3.5,0-7,0-10.5c0-0.6-0.1-0.8-0.8-0.8c-7,0-14,0-21.1,0c-0.6,0-0.7,0.2-0.7,0.8c0,7,0,14,0,21.1
		c0,0.6,0.2,0.7,0.8,0.7c7,0,14,0,21,0c0.7,0,0.9-0.2,0.8-0.9C96.7,86,96.8,82.6,96.8,79.1z M20.1,74.2c2.3,0,4.5,0,6.7,0
		c4.2-0.1,7.5,1.5,9.9,5c0.4,0.5,0.5,0.4,0.8,0c2.4-3.4,5.7-5,9.8-4.9c2.2,0,4.5,0,6.8,0c-1.3-4.4-3.8-7.7-7.6-10.2
		c-0.7,2.8-1.4,5.6-2.1,8.3c-0.1,0.1-0.2,0.1-0.3,0.2c-1.8-1.8-3.6-3.6-5.4-5.5c0,0,0,0,0,0.1c0,1.6,0,3.1,0,4.7
		c0,2.4,0,2.4-2.5,2.4c-0.6,0-0.8-0.1-0.8-0.8c0-2,0-3.9,0-5.9c0-0.2,0.2-0.5-0.3-0.6c-1.8,1.8-3.6,3.6-5.4,5.5
		c-0.7-2.8-1.4-5.6-2.1-8.4C23.9,66.5,21.4,69.8,20.1,74.2z M25.9,93.5c3,0,5.9,0,8.9,0c0.5,0,0.8-0.1,0.7-0.7c0-2.5,0-5.1,0-7.6
		c-0.1-4.1-3.1-7.4-7.2-7.8c-3.9-0.3-7.7-0.1-11.6-0.1c-0.7,0-0.5,0.4-0.5,0.8c0,4.9,0,9.8,0,14.6c0,0.6,0.2,0.7,0.8,0.7
		C19.9,93.5,22.9,93.5,25.9,93.5z M71,79c0-3,0-6,0-9c0-2.3,0-2.2-2.3-2.3c-0.8,0-0.9,0.2-0.9,0.9c0,6.4,0,12.9,0,19.3
		c0,2.4,0,2.3,2.4,2.3c0.7,0,0.8-0.2,0.8-0.9C70.9,86,71,82.5,71,79z M73.4,96.7c0.3,0,0.5,0.1,0.7,0.1c6.4,0,12.7,0,19.1,0
		c0.3,0,0.7,0,1-0.1c1.3-0.2,2.3-1.4,2.5-2.6c0.1-0.4,0-0.6-0.5-0.6c-0.8,0-1.6,0-2.3,0c-6.3,0-12.6,0-18.8,0
		c-0.3,0-0.8-0.3-0.8,0.3C74.1,94.8,73.8,95.8,73.4,96.7z M59.7,93.5c-3.5,0-7,0-10.4,0c-0.9,0-0.9,0.3-0.7,1
		c0.5,1.4,1.6,2.2,3.3,2.2c3,0,6,0,9,0c2.3,0,4.6,0,6.8,0c1.6,0,2.8-0.9,3.2-2.3c0.2-0.6,0.2-1-0.7-1C66.6,93.6,63.2,93.6,59.7,93.5
		z M16.2,40.3C16.2,40.3,16.2,40.3,16.2,40.3c0-1,0-2.1,0-3.1c0-1.8,0-1.8-1.8-1.7c-3.3,0.1-5.4,3.4-4.3,6.5
		c0.8,2.3,3.7,3.8,5.9,3.2c0.5-0.1,0.3-0.5,0.3-0.7C16.2,43.1,16.2,41.7,16.2,40.3z M58.1,40.4c0,1,0,2,0,3c0,1.8,0,1.8,1.8,1.8
		c3.2-0.1,5.4-3.3,4.4-6.3c-0.8-2.4-3.5-3.9-5.9-3.3c-0.4,0.1-0.3,0.4-0.3,0.7C58.1,37.6,58.1,39,58.1,40.4z M36.2,61.3
		c-1.8,0.1-3.5,0.4-5.2,1c-0.3,0.1-0.4,0.2-0.4,0.6c0.3,1,0.5,2.1,0.8,3.1C33.1,64.5,34.6,62.9,36.2,61.3z M38.2,61.4
		c1.5,1.5,3.1,3,4.6,4.5c0.2-0.9,0.5-1.9,0.8-3c0.1-0.3,0-0.5-0.3-0.6C41.5,61.8,39.8,61.4,38.2,61.4z"/>
	<path class="st0" d="M16.2,56.5C16.1,58,16.1,58,14.4,58C9.6,58,4.8,58,0,58c0-0.9,0-1.8,0-2.6c0-0.4,0.1-0.6,0.5-0.6
		c5,0,10,0,15,0c0.5,0,0.7,0.1,0.6,0.6C16.1,55.8,16.2,56.2,16.2,56.5z"/>
	<path class="st0" d="M0.1,67.8c5,0,10,0,15,0c0.9,0,1.3,0.2,1.1,1.2c0,0.1,0,0.3,0.1,0.4c-0.1,1.7-0.1,1.7-1.8,1.7
		c-4.5,0-9,0-13.5,0c-0.8,0-1-0.2-0.9-1C0.1,69.3,0,68.5,0.1,67.8z"/>
	<path class="st0" d="M0.1,61.3c5.1,0,10.2,0,15.3,0c0.7,0,0.8,0.2,0.8,0.8c0,2.4,0,2.4-2.4,2.4c-4.6,0-9.2,0-13.7,0
		C0,63.4,0,62.4,0.1,61.3z"/>
	<path class="st0" d="M29.1,46.7c0-1.6,0-1.6,1.6-1.6c4.6,0,9.1,0,13.7,0c0.8,0,0.9,0.2,0.9,0.9c0.2,4.7-2.8,7.5-5.6,8.4
		C34.3,56.1,29.1,52.3,29.1,46.7z M41.6,48.4c-3,0-5.9,0-8.9,0c0.6,1.9,2.3,3.1,4.3,3.1C39.1,51.6,40.9,50.4,41.6,48.4z"/>
	<path class="st0" d="M50,38.7c-0.3,0-0.6,0-0.9,0c-0.5,0-0.7-0.1-0.8-0.6c-0.4-1.7-1.6-2.6-3.2-2.6c-1.6,0-2.7,1-3.1,2.7
		c-0.1,0.4-0.2,0.5-0.6,0.5c-0.7,0-1.5,0-2.2,0c-0.5,0-0.5-0.2-0.5-0.6c0.2-3.1,3-5.8,6.2-5.9c3.2-0.1,6.1,2.3,6.6,5.5
		c0.1,0.8-0.1,1.2-0.9,1C50.4,38.7,50.2,38.7,50,38.7z"/>
	<path class="st0" d="M33.9,38.7c-0.3,0-0.5,0-0.8,0c-0.6,0.1-0.8-0.1-0.9-0.7c-0.3-1.5-1.6-2.4-3.1-2.5c-1.5,0-2.7,0.9-3.1,2.4
		c-0.1,0.6-0.3,0.9-1,0.8c-0.5-0.1-1-0.1-1.5,0c-0.7,0.1-0.9-0.1-0.8-0.9c0.4-3.1,3.3-5.7,6.6-5.6c3.2,0.1,6.1,2.8,6.3,6
		c0,0.4-0.1,0.5-0.5,0.5C34.6,38.7,34.2,38.7,33.9,38.7z"/>
	<path class="st0" d="M90.3,75.8c0,2.7-2.2,4.8-4.8,4.8c-2.7,0-4.8-2.2-4.8-4.9c0-2.7,2.2-4.9,4.8-4.8C88.1,71,90.3,73.1,90.3,75.8z
		 M87.1,75.8c0-0.9-0.7-1.6-1.6-1.6c-0.9,0-1.6,0.7-1.6,1.6c0,0.9,0.7,1.6,1.6,1.6C86.4,77.4,87.1,76.7,87.1,75.8z"/>
	<g>
		<path class="st1" d="M0.1,61.3c0-1.1,0-2.2,0-3.3c4.8,0,9.6,0,14.4,0c1.6,0,1.6,0,1.8-1.5c0,2.7,0,5.3,0,8c0,1.6,0,3.2,0,4.8
			c0-0.1-0.1-0.3-0.1-0.4c0.2-0.9-0.2-1.2-1.1-1.2c-5,0.1-10,0-15,0c0-1.1,0-2.2,0-3.3c4.6,0,9.2,0,13.7,0c2.4,0,2.4,0,2.4-2.4
			c0-0.6-0.1-0.8-0.8-0.8C10.3,61.3,5.2,61.3,0.1,61.3z"/>
		<path class="st1" d="M58,32.2c-0.3-0.1-0.2-0.4-0.3-0.7c-1.2-3.5-4.2-5.8-7.9-5.7c-5.9,0.1-11.8-0.3-17.5-1.6
			c-1.5-0.3-3-0.7-4.4-1.1c-3.9-1.1-7.7,0.3-10.1,3.7c-0.8,1.1-1.2,2.4-1.6,3.6c-0.1-2.3-0.2-4.6,0.2-6.8
			c2.1-10.8,12.2-18.2,22.9-17c8.5,1,15.9,7.4,18,15.7C58.3,25.6,58,28.9,58,32.2z"/>
		<path class="st1" d="M47.1,90.3c-1.7-0.8-3-1.8-3.4-3.7c-0.4-1.9,0.1-3.5,1.6-4.7c1.5-1.3,3.3-1.6,5.1-0.7c1.7,0.8,2.7,2.1,2.8,4
			c0.1,2.4-0.9,4-3.2,4.9c-0.1,0.1-0.3,0.2-0.4,0.2C48.8,90.4,47.9,90.4,47.1,90.3z"/>
		<path class="st1" d="M67.8,19.4c0-2.6,0-5.1,0-7.7c0-1.7,1.1-2.4,2.6-1.7c5.2,2.6,10.4,5.2,15.6,7.8c0.7,0.3,1.1,0.8,1.1,1.6
			c0,0.8-0.5,1.2-1.1,1.6c-5.2,2.6-10.4,5.2-15.5,7.8c-1.6,0.8-2.7,0.1-2.7-1.7C67.8,24.4,67.8,21.9,67.8,19.4z"/>
		<path class="st1" d="M32.2,83.8c0,1.1,0,2.2,0,3.3c-4.3,0-8.6,0-12.8,0c0-1.1,0-2.2,0-3.3C23.7,83.8,28,83.8,32.2,83.8z"/>
	</g>
	<path class="st0" d="M32.2,83.8c-4.3,0-8.6,0-12.9,0c0-0.8,0-1.7,0-2.5c0-0.5,0.2-0.6,0.7-0.6c3.9,0,7.7,0,11.6,0
		c0.5,0,0.7,0.1,0.6,0.7C32.2,82.1,32.2,83,32.2,83.8z"/>
	<path class="st0" d="M19.4,87.1c4.3,0,8.6,0,12.8,0c0,1,0.4,2.4-0.1,3c-0.5,0.6-1.9,0.2-2.9,0.2c-3,0-6,0-9,0c-0.7,0-1-0.1-0.9-0.9
		C19.4,88.7,19.4,87.9,19.4,87.1z"/>
</g>
</svg>
