<?xml version="1.0" encoding="utf-8"?>
<!-- Generator: Adobe Illustrator 19.2.1, SVG Export Plug-In . SVG Version: 6.00 Build 0)  -->
<svg version="1.1" id="Layer_1" xmlns="http://www.w3.org/2000/svg" xmlns:xlink="http://www.w3.org/1999/xlink" x="0px" y="0px"
	 viewBox="0 0 100 100" style="enable-background:new 0 0 100 100;" xml:space="preserve">
<style type="text/css">
	.st0{fill:#261449;}
	.st1{fill:#4EE482;}
</style>
<g>
	<path class="st0" d="M68.8,45.6c4.7,0,9.3,0,14,0c0.6,0,0.8-0.1,0.8-0.8c-0.1-1.6,0-3.2,0-4.8c0.4-0.1,0.6,0.1,0.8,0.3
		c4.1,2.1,8.3,4.1,12.4,6.2c1.7,0.8,2.7,2,2.8,4c0,2-1.1,3.2-2.8,4c-4.1,2-8.1,4.1-12.2,6.1c-0.3,0.1-0.6,0.3-1,0.5
		c0-1.8,0-3.4,0-5.1c0-0.5-0.1-0.7-0.6-0.7c-4.7,0-9.4,0-14.1,0c-0.5,0-0.7,0.2-0.9,0.5c-1.1,1.5-2.6,2.4-4.4,2.6
		c-0.6,0.1-0.7,0.3-0.7,0.8c0.1,3-0.5,5.7-2.1,8.3c-2.1,3.5-5.2,5.6-9.2,6.6c-0.1,0.4,0.3,0.4,0.5,0.5c3.2,2.2,5.1,5.2,5.8,9
		c0.1,0.5,0.3,0.7,0.7,0.9c1.7,0.9,1.7,0.9,3.4,0c0.5-0.2,1-0.5,1.5-0.5c1,0.1,1-0.5,1-1.2c0-4.3,0-8.5,0-12.8
		c0-0.6,0.1-1.1,0.4-1.6c1.2-2.5,2.5-4.9,3.7-7.4c0.8-1.6,2-2.7,3.9-2.7c1.9,0,3.2,1,4,2.7c1.2,2.5,2.5,5,3.7,7.5
		c0.2,0.5,0.3,0.9,0.3,1.4c0,7.3,0,14.5,0,21.8c0,4.8-3.7,8.5-8.4,8.1c-1.9-0.2-3.7-0.1-5.6,0c-7.8,0.2-15.6,0.2-23.4,0
		c-5.7-0.1-10.5-5.1-10.6-10.9c-0.1-3.3,0-6.6,0-10c0-2,0.7-3.7,2-5.2c-0.1-0.2-0.3-0.3-0.5-0.3c-6-2.2-9.5-7.4-9.5-13.8
		c0-0.9-0.1-1.4-1.2-1.5c-2.9-0.5-4.8-2.6-5.2-5.6c-0.1-0.6-0.3-0.8-0.8-0.9c-4.2-1.1-7.1-4.7-7.2-9c0-0.7,0-1.3,0-2
		c0.1-2.4-0.9-4.4-2.7-5.9c-4.8-4.1-7.1-9.3-6.9-15.6C0.7,10.1,8.1,2.1,17,1c10.6-1.3,19.8,5.5,21.6,16.1c0.2,1.5,0.3,2.9,0.2,4.4
		c0,0.1-0.1,0.3-0.1,0.4c-0.5,4.9-2.5,9.1-6.3,12.3c-2.4,2-3.5,4.3-3.2,7.4c0.1,0.7,0.2,0.8,0.8,0.8c3.9,0,7.8,0.1,11.6,0
		c4.8-0.1,8.4-2.4,10.8-6.5c0.4-0.6,0.4-1.7,1-1.8c0.7-0.1,1.5,0.4,2.2,0.6c0.5,0.1,0.6,0.4,0.4,0.8c-0.6,1.4-1.2,2.8-2.2,3.9
		c-0.4,0.5-0.3,0.8,0.2,1.1c2,1.2,4.1,1.8,6.3,1.9c0.7,0,1.7-0.2,2.2,0.2c0.5,0.4,0.1,1.4,0.2,2.2c0,0.1,0,0.3,0,0.4
		c0,0.3,0.1,0.5,0.4,0.5c1.9,0.2,3.4,1,4.7,2.5C68.2,47.2,68.5,46.4,68.8,45.6z M35.6,20.4c0-1.9-0.2-3.3-0.6-4.7
		C32.5,6.5,22.3,1.5,13.6,5.2C2.4,10,0.1,24.5,9.4,32.3c1.6,1.3,2.7,3,3.4,5c0.2,0.6-0.1,1.6,0.6,1.9c0.6,0.3,1.4,0,2.1,0.1
		c0.6,0,0.7-0.1,0.7-0.7c-0.3-3.8-0.5-7.6-0.8-11.4c0-0.7,0.1-1.6-0.2-2.1c-0.4-0.5-1.4-0.1-2.2-0.2c-2.5-0.2-4.4-2-4.6-4.4
		c-0.2-2.5,1.4-4.6,3.9-5.2c2.9-0.6,5.6,1.4,5.9,4.5c0.1,1.9,0.1,1.9,1.3,1.9c1.3,0,1.3,0,1.4-1.3c0-0.3,0.1-0.7,0.1-1
		c0.4-2.5,2.5-4.2,5.1-4.1c2.4,0.1,4.5,2,4.6,4.4c0.2,2.6-1.5,4.7-4,5.1c-0.6,0.1-1.3,0.1-2,0.1c-0.7,0-0.9,0.1-1,0.9
		c-0.2,4.2-0.6,8.4-0.8,12.7c0,0.3-0.3,0.9,0.3,0.8c0.9-0.1,2,0.5,2.8-0.3c0,0,0-0.1,0-0.1c0.4-2.9,2-5,4.2-6.9
		C33.8,28.7,35.5,24.7,35.6,20.4z M59.6,53.6c0-2.5,0-4.9,0-7.4c0-0.5-0.1-0.7-0.6-0.7c-2.7-0.3-5.2-1.2-7.4-2.8
		c-0.4-0.3-0.7-0.2-1,0c-2.8,2-6,2.9-9.4,2.9c-3.9,0-7.7,0-11.6,0c-0.3,0-0.7-0.2-0.8,0.1c-0.3,0.9-1.1,1.6-1,2.6
		c0,3.9,0,7.9,0,11.8c0,6,5,11,11.1,11c3.3,0,6.5,0,9.8,0c6.2,0,11.1-5,11.1-11.2C59.6,57.9,59.6,55.7,59.6,53.6z M49.7,96.7
		C49.7,96.7,49.7,96.7,49.7,96.7c2.1,0.1,4.3,0.1,6.4,0.1c1.3,0,1.9-0.6,1.9-1.9c0-1.9,0-3.9,0-5.8c0-1.3-0.6-1.9-1.9-1.9
		c-1.9,0-3.9,0.2-5.8,0c-1.9-0.2-3.2,0.4-4,2.2c-0.3,0.7-0.7,1.7-1.4,1.8c-0.6,0.1-1.3-0.8-2-1.2c-0.5-0.3-0.6-0.6-0.2-1
		c2.3-2.4,2.9-5.3,2.5-8.5c0-0.3,0-0.7,0-1c0-2.8-2-5-4.7-5c-2.7,0-4.8,2.1-4.8,4.9c0,3.2-0.1,6.4,0,9.6c0.1,4.1,2.9,7.4,7,7.8
		C45,96.9,47.4,96.7,49.7,96.7z M68.3,48.8c0.4,0.8,0.8,1.6,0.8,2.3c0,0.8,0.4,0.9,1.1,0.9c5.2,0,10.4,0,15.5,0c0.8,0,1.1,0.1,1,1
		c-0.1,0.9,0,1.8,0,2.8c3-1.5,5.8-2.9,8.7-4.3c0.5-0.2,0.9-0.5,0.9-1c0-0.6-0.5-0.9-0.9-1.1c-2.6-1.3-5.3-2.6-7.9-3.9
		c-0.2-0.1-0.4-0.3-0.8-0.2c0,0.9-0.1,1.8,0,2.6c0.1,0.8-0.2,1-1,1C80.1,48.8,74.3,48.8,68.3,48.8z M61,96.8c1.5,0,3,0,4.5,0
		c0.3,0,0.6,0,0.9,0c2.4-0.3,4.2-2.1,4.4-4.3c0.1-1.3-0.5-2-1.8-2c-0.6,0-1.1,0-1.7,0c-1.3,0-1.3,0-1.3-1.3c0-1.3-0.7-2-1.8-1.9
		c-1.1,0-3,2-3,3.1C61.1,92.4,61.3,94.5,61,96.8z M19.7,42.4c-1.8,0-3.6,0.1-5.4,0c-0.9,0-1.1,0.3-0.9,1.1c0.6,3.2,3.3,5.4,6.5,5.3
		c3.2-0.1,5.8-2.5,6.2-5.7c0.1-0.6-0.1-0.7-0.6-0.7C23.5,42.4,21.6,42.4,19.7,42.4z M77.2,79.2c0-1.9,0-3.7,0-5.6
		c0-0.8,0.3-1.8-0.1-2.2c-0.4-0.5-1.5-0.1-2.3-0.2C74.1,71.1,74,71.4,74,72c0,4.2,0,8.5,0,12.7c0,2.5,0,2.5,2.5,2.4
		c0.6,0,0.7-0.2,0.7-0.7C77.2,84,77.2,81.6,77.2,79.2z M70.8,79.2c0-1,0-1.9,0-2.9c0-1,0-1.9,0-2.9c0-2.4,0-2.4-2.4-2.4
		c-0.6,0-0.8,0.2-0.8,0.8c0,3.6,0.1,7.3,0,10.9c-0.1,1.5,0.3,2.8,1.2,3.9c0.5,0.6,1.1,0.3,1.7,0.3c0.5,0,0.3-0.5,0.3-0.8
		C70.8,84,70.8,81.6,70.8,79.2z M54.6,84c-0.4-3.5-3.3-6.9-6.8-7.8c0.6,1.4,0.6,2.9,0.6,4.4c0,0.9,0,1.9,0,2.8
		c0,0.4,0.1,0.6,0.5,0.6C50.8,84,52.7,84,54.6,84z M76.2,68c-1-2-1.9-3.9-2.9-5.8c-0.4-0.7-1.3-0.8-1.7-0.1c-1,1.9-2,3.9-3,5.9
		C71.2,68,73.6,68,76.2,68z M72.4,96.7c2.8-0.2,4.6-2,4.8-4.6c0.1-1.8,0.1-1.8-1.7-1.8c-0.5,0-1.1-0.2-1.4,0c-0.5,0.3,0,0.9,0,1.4
		C74,93.6,73.4,95.2,72.4,96.7z M19.7,39.1c0-0.2,0-0.4,0.1-0.6c0.3-4.3,0.6-8.6,0.9-12.9c0.1-0.7-0.2-0.9-0.8-0.8
		c-0.5,0.1-1.4-0.5-1.3,0.8c0.3,3.1,0.4,6.2,0.7,9.3C19.4,36.3,19.3,37.7,19.7,39.1z M62.8,52c0,0.9,0,1.7,0,2.6
		c0,0.4,0,0.6,0.5,0.6C64.7,55,66,53.5,66,52c0-1.5-1.2-2.9-2.6-3.1c-0.5-0.1-0.6,0.1-0.6,0.5C62.8,50.3,62.8,51.2,62.8,52z
		 M24.4,53c0-0.6,0-1.1,0-1.7c0-0.5-0.1-0.6-0.6-0.4c-0.5,0.2-1,0.4-1.5,0.6c-1.3,0.4-1.5,0.9-0.7,2.1c0.3,0.5,0.7,0.9,1.3,1.2
		c1.3,0.6,1.4,0.5,1.4-0.8C24.4,53.7,24.4,53.3,24.4,53z M25.3,21.6c0.3,0,0.5,0,0.8,0c0.9-0.1,1.6-0.7,1.6-1.6
		c0-0.8-0.7-1.5-1.6-1.6c-0.9-0.1-1.6,0.5-1.8,1.3C23.9,21.5,24,21.6,25.3,21.6z M13.8,21.6c1.3,0,1.3,0,1.2-1.3
		c0-0.2,0-0.5-0.1-0.7c-0.2-0.8-1.1-1.4-2-1.2c-0.9,0.2-1.5,0.9-1.4,1.8C11.8,21.2,12.4,21.6,13.8,21.6z"/>
	<path class="st1" d="M68.8,45.6c-0.3,0.8-0.5,1.6-0.9,2.6c-1.3-1.5-2.8-2.4-4.7-2.5c-0.3,0-0.5-0.2-0.4-0.5c0-0.1,0-0.3,0-0.4
		c-0.1-0.7,0.3-1.8-0.2-2.2c-0.5-0.4-1.4-0.1-2.2-0.2c-2.3-0.1-4.4-0.7-6.3-1.9c-0.5-0.3-0.7-0.5-0.2-1.1c1-1.2,1.7-2.5,2.2-3.9
		c0.2-0.5,0.1-0.7-0.4-0.8c-0.8-0.2-1.5-0.8-2.2-0.6c-0.7,0.1-0.7,1.2-1,1.8c-2.4,4.1-6,6.4-10.8,6.5c-3.9,0.1-7.8,0-11.6,0
		c-0.6,0-0.8-0.1-0.8-0.8c-0.2-3.1,0.9-5.4,3.2-7.4c3.8-3.2,5.8-7.4,6.3-12.3c0-0.1,0.1-0.3,0.1-0.4c2.9,0,5.8,0.1,8.7,0
		c4.6-0.1,9,0.7,12.9,3.3c1.3,0.9,2.5,2,3.7,3.2c0.8,1.1,1.6,2.1,2.4,3.2c0.5,1.1,1,2.1,1.6,3.2c0.7,2.5,1.3,5,1.2,7.6
		C69.1,43.2,68.9,44.4,68.8,45.6z"/>
	<path class="st0" d="M70.8,5c0,1.1-0.1,2,0,2.9c0.1,0.7-0.2,0.9-0.9,0.9c-5.5,0-11,0-16.6,0c-1.4,0-2.8,0-4.2,0
		c-0.6,0-0.7-0.2-0.7-0.7c-0.1-2.5-0.1-2.5,2.5-2.5c5.3,0,10.6,0,15.9,0c0.7,0,1-0.2,0.9-0.9c-0.1-1.5,0-3.1,0-4.6
		c0.4-0.2,0.6,0.1,0.8,0.2c4.2,2.1,8.4,4.2,12.6,6.3c1.6,0.8,2.6,2.1,2.6,3.9c0,1.8-0.9,3.1-2.5,3.9c-4.3,2.1-8.5,4.2-12.7,6.4
		c-0.2,0.1-0.4,0.2-0.7,0.3c0-1.7,0-3.3,0-4.9c0-0.7-0.2-0.9-0.9-0.9c-5.7,0-11.5,0-17.2,0c-0.8,0-1.2-0.1-1.1-1.1
		c0.1-2.1,0-2.1,2.1-2.1c6.5,0,13,0,19.5,0c0.7,0,0.9,0.2,0.8,0.9c-0.1,0.9,0,1.9,0,2.9c3.1-1.5,6-3,9-4.5c0.9-0.4,0.9-1.4,0-1.8
		C76.8,8,73.9,6.6,70.8,5z"/>
	<path class="st0" d="M68,34.4c-0.5-1.1-1-2.1-1.6-3.2c5.5,0,11,0,16.4,0c0.6,0,0.7,0.2,0.7,0.7c0,1,0,2,0,3.1
		c3-1.5,5.8-2.9,8.6-4.3c0.5-0.2,0.9-0.5,0.9-1c0-0.6-0.4-0.9-0.9-1.1c-2.7-1.3-5.3-2.7-8-4c-0.2-0.1-0.4-0.3-0.6-0.1
		c0,0.9-0.1,1.8,0,2.6c0.1,0.8-0.2,1-1,1c-6.2,0-12.3,0-18.5,0c-1.2-1.1-2.4-2.2-3.7-3.2c1.9,0,3.8-0.1,5.7-0.1c4.5,0,8.9,0,13.4,0
		c0.7,0,1-0.2,0.9-0.9c-0.1-1.6,0-3.1,0-4.7c0.4-0.1,0.6,0.1,0.9,0.3c4.1,2.1,8.2,4.1,12.4,6.2c1.7,0.8,2.7,2.1,2.7,4
		c0,1.9-1,3.1-2.7,4c-4.1,2-8.3,4.1-12.4,6.2c-0.8,0.4-0.9,0.2-0.9-0.6c0.1-1.3,0-2.7,0-4c0-0.6-0.2-0.8-0.8-0.8
		C75.8,34.4,71.9,34.4,68,34.4z"/>
	<path class="st0" d="M43.7,58.4c2.4,0,4.8,0,7.2,0c0.4,0,0.7-0.1,0.8,0.5c0.3,4.5-2.5,8.3-6.9,9c-4.7,0.7-8.9-2.8-9.1-7.7
		c-0.1-1.8-0.1-1.8,1.7-1.8C39.5,58.4,41.6,58.4,43.7,58.4z M39.2,61.6c0.6,1.9,2.5,3.2,4.5,3.2c2.1,0,3.9-1.4,4.3-3.2
		C45.1,61.6,42.2,61.6,39.2,61.6z"/>
	<path class="st0" d="M46.9,53.6c-1.9,0-2,0-1.5-1.7c0.8-2.8,3.6-4.9,6.5-4.7c3.1,0.2,5.6,2.5,6,5.5c0.1,0.7,0,1.1-0.8,0.9
		c-0.2,0-0.4,0-0.6,0c-1,0.1-1.8,0.1-2.1-1.3c-0.3-1.3-1.5-1.9-2.9-1.9c-1.3,0-2.6,0.7-2.9,2C48.4,53.6,47.8,53.8,46.9,53.6z"/>
	<path class="st0" d="M30.9,53.6c-1.9,0-1.9,0-1.5-1.7c0.8-2.9,3.7-5,6.6-4.7c3.1,0.3,5.6,2.6,6,5.7c0.1,0.6-0.1,0.8-0.7,0.8
		c-0.2,0-0.4,0-0.6,0c-1.1,0.1-1.9,0.1-2.2-1.3c-0.3-1.3-1.6-1.9-2.9-1.9c-1.3,0-2.4,0.7-2.8,1.9C32.4,53.5,31.8,53.8,30.9,53.6z"/>
</g>
</svg>
