<svg xmlns="http://www.w3.org/2000/svg" width="24" height="19" viewBox="0 0 24 19"><g><g><g><g><path fill="#ffffff" d="M1.583 7.906h12.834c.874 0 1.583.709 1.583 1.583v.021c0 .874-.709 1.583-1.583 1.583H1.583A1.583 1.583 0 0 1 0 9.51v-.02c0-.875.709-1.584 1.583-1.584z"/></g><g><path fill="#ffffff" d="M1.578 15.843h20.844a1.578 1.578 0 0 1 0 3.157H1.578a1.578 1.578 0 1 1 0-3.157z"/></g><g><path fill="#ffffff" d="M1.578 0h20.844a1.578 1.578 0 1 1 0 3.156H1.578a1.578 1.578 0 1 1 0-3.156z"/></g></g></g></g></svg>