<?xml version="1.0" encoding="utf-8"?>
<!-- Generator: Adobe Illustrator 19.2.1, SVG Export Plug-In . SVG Version: 6.00 Build 0)  -->
<svg version="1.1" id="Layer_1" xmlns="http://www.w3.org/2000/svg" xmlns:xlink="http://www.w3.org/1999/xlink" x="0px" y="0px"
	 viewBox="0 0 100 100" style="enable-background:new 0 0 100 100;" xml:space="preserve">
<style type="text/css">
	.st0{fill:#261449;}
	.st1{fill:#4EE482;}
</style>
<g>
	<path class="st0" d="M51.6,93.5c0,1.1,0,2.1,0,3.2c-5.4,0.2-10.8-0.6-16.1-2.3c0,1.6,0,3.2,0,4.8c0,0.6-0.2,0.8-0.8,0.8
		c-9.2,0-18.3,0-27.5,0c-0.7,0-0.8-0.3-0.8-0.9c0-8.5,0-16.9,0-25.4c0-0.6-0.1-1.2-0.3-1.8C4.4,67,2.6,62,0.8,57.1
		c-1.2-3.3-1.1-6.6,0.7-9.5c1.3-2.2,1.9-4.4,2.1-6.9c0.2-3.1,1.4-5.9,3.2-8.3c2.9-3.8,5.9-7.5,8.9-11.3c0.4-0.5,0.4-0.9,0.5-1.5
		c0.3-3.2-0.3-6.1-2.1-8.8c-0.3-0.4-0.4-1-0.7-1.4c-0.7-1-0.5-1.9,0.2-2.8c1.2-1.7,2.8-2.8,4.8-3.1c0.9-0.1,1.1-0.5,1-1.3
		C19.3,0,19.4,0,21.5,0c3.9,0.1,7.7,0.5,11.3,2.2c0.4,0.2,0.9,0.4,1.2,0.7c0.9,0.6,2,1.2,1.5,2.7c3.1-1,6.2-1.7,9.3-2
		c2.1-0.2,4.2-0.3,6.3-0.3c0.5,0,0.6,0.2,0.6,0.6c0,3.9,0,7.7,0,11.6c0,0.7-0.3,0.7-0.8,0.7c-4.8-0.1-9.3,0.8-13.7,2.6
		c-1.3,0.5-2.5,1.2-3.8,1.8c-0.5,0.3-0.5,0.5-0.2,0.9c1.8,2.2,3.6,4.4,5.3,6.6c0.4,0.6,0.7,0.3,1.2,0.1c8.2-3.7,16.2-3.3,23.6,1.6
		c7.7,5.1,11.3,12.5,10.9,21.8c-1.1,0-2.2,0-3.2,0c0.1-2.1,0-4.1-0.4-6.1c-2.1-9.1-9.7-15.6-18.9-16.4c-3.7-0.3-7.2,0.4-10.7,2.1
		c0.2,0.2,0.3,0.4,0.5,0.6c5.8,7.9,5,17.8-2.1,24.6c-0.4,0.4-0.6,0.8-0.6,1.4c0,2.9,0.2,5.8-0.5,8.6c-0.2,0.7,0,0.9,0.5,1.3
		c3.9,2.5,8.2,3.5,12.8,3.2c0,1.1,0,2.2,0,3.3c-5.1,0.3-9.8-0.8-14.1-3.5c-0.4-0.2-0.5-0.2-0.8,0.2c-0.9,1.4-1.3,2.8-1.2,4.5
		c0.1,1.4,0.1,2.9,0,4.3c0,0.7,0.2,1,0.8,1.2c4.9,2.1,10,3.1,15.3,2.8c0,1.1,0,2.1,0,3.2c-5.3,0.2-10.3-0.6-15.2-2.6
		c-0.7-0.3-0.9-0.2-0.9,0.6c0.1,1.7,0.1,3.4,0,5.1c0,0.7,0.3,1,0.9,1.2C41.3,92.9,46.4,93.7,51.6,93.5z M8.1,36.3
		c0.7-0.3,1.2-0.6,1.7-0.7c0.6-0.2,1.2-0.1,1.8,0c3.5,0.7,5.3,3.9,4.2,7.7c-0.8,2.8-1.5,5.5-2.4,8.3c-0.2,0.6-0.1,1,0.5,1.4
		c1.4,1,2.6,2.2,3.4,3.7c0.4,0.8,1,1,1.8,1.2c2.7,0.4,5.4,0.3,8.1,0.2c5.9-0.3,10.4-3.1,13-8.4c2.7-5.4,2.2-10.7-1.3-15.6
		c-2.8-3.8-5.8-7.4-8.7-11c-0.3-0.3-0.5-0.4-0.9-0.4c-3.4,0-6.8,0-10.2,0c-0.4,0-0.7,0.1-0.9,0.4c-2.9,3.7-5.9,7.4-8.8,11.1
		C8.9,34.7,8.5,35.4,8.1,36.3z M21.1,74.2c-3.5,0-7,0-10.6,0c-0.7,0-0.8,0.2-0.8,0.8c0,7,0,14,0,20.9c0,0.7,0.2,0.8,0.8,0.8
		c7,0,14,0,20.9,0c0.7,0,0.8-0.2,0.8-0.8c0-7,0-14,0-20.9c0-0.7-0.2-0.8-0.8-0.8C28,74.2,24.6,74.2,21.1,74.2z M35.5,59.1
		c-1.6,0.8-3.2,1.4-4.8,1.7c-3.1,0.7-6.2,0.3-9.3,0.4c-0.7,0-1.6-0.4-1.9-0.1c-0.5,0.4,0.1,1.3,0,2c0,1.3,0,1.3-1.2,1.3
		c-0.5,0-0.9,0-1.4,0c-0.5,0-0.6-0.2-0.6-0.6c0-4.3-2.1-7.5-5.9-9.4c-0.7-0.4-0.8-0.7-0.6-1.4c1.1-3.7,2.1-7.3,3.1-11
		c0.4-1.6-0.1-2.7-1.4-3.2c-0.5-0.2-0.8-0.1-1.1,0.4c-1.8,3-3.7,6-5.6,9c-1.6,2.6-1.8,5.3-0.8,8.1c1.7,4.6,3.4,9.2,5,13.9
		c0.2,0.6,0.5,0.8,1.1,0.8c7.4,0,14.8,0,22.2,0c0.6,0,0.9-0.2,1.2-0.8C35.3,66.8,35.7,63.1,35.5,59.1z M32.3,17.3c0.1,0,0.2,0,0.2,0
		c4.7-2.5,9.8-3.9,15.1-4.3c0.5,0,0.7-0.2,0.7-0.8c0-1.7,0-3.4,0-5c0-0.5-0.1-0.7-0.7-0.7c-4.1,0.3-8.2,1.1-12.1,2.4
		c-0.5,0.2-0.8,0.4-0.9,0.9c-0.4,1.4-0.9,2.8-1.7,3.9C32.2,14.9,32.3,16.1,32.3,17.3z M27.5,12.9c0.4,0,0.8-0.1,1.2,0
		c0.9,0.1,1.3-0.2,1.7-1c0.9-1.7,1.5-3.6,1.8-5.5c0.1-0.6-0.1-0.9-0.6-1.2c-2.7-1.4-5.5-1.7-8.4-2c-0.5,0-0.5,0.2-0.5,0.6
		c0.2,2.3,0.7,4.6,1.6,6.8C25.1,12.9,25.1,12.9,27.5,12.9z M24.2,19.4c0.8,0,1.6,0,2.4,0c2.6,0,2.5,0,2.5-2.6c0-0.6-0.2-0.6-0.7-0.6
		c-2.2,0-4.4,0-6.5,0c-2.5,0-2.5,0-2.5,2.5c0,0.7,0.2,0.8,0.8,0.7C21.5,19.3,22.9,19.4,24.2,19.4z M21.6,12.8
		c-0.3-0.8-0.6-1.6-0.8-2.4c-0.3-0.9-0.5-1.7-0.7-2.6c-0.3-1.4-0.5-1.5-1.8-1c-0.3,0.1-0.6,0.3-0.9,0.5c-0.8,0.5-1.1,1-0.5,1.9
		c0.3,0.5,0.6,1,0.8,1.5C18.2,12.7,19.5,13.4,21.6,12.8z M8.3,36.2c-0.1,0.1-0.2,0.1-0.3,0.2c0.1,0,0.1,0.1,0.2,0.1
		c0,0,0.1-0.1,0.1-0.1C8.3,36.3,8.3,36.3,8.3,36.2z"/>
	<path class="st0" d="M58.2,4c5.1,0.9,10,2.6,14.7,5.2c9.6,5.4,16.4,13.3,20.6,23.5c0.3,0.7,0.3,1-0.6,1.4
		c-3.4,1.3-6.8,2.7-10.1,4.2c-0.9,0.4-1,0.1-1.3-0.6c-3-7.3-7.8-13-14.6-16.9c-3.4-2-7-3.3-10.9-4c-0.7-0.1-1-0.3-0.8-1.1
		c0.8-3.7,1.5-7.3,2.2-11C57.5,4.2,57.4,3.7,58.2,4z M60.2,7.7c-0.3,0-0.2,0.4-0.2,0.6c-0.4,1.7-0.7,3.3-1,5
		c-0.1,0.4-0.1,0.7,0.4,0.8c0.9,0.2,1.9,0.5,2.8,0.8c0.4,0.1,0.6,0.1,0.8-0.3c0.7-1.7,1.4-3.3,2.1-5c0.1-0.2,0.3-0.4-0.1-0.6
		C63.4,8.6,61.9,8.1,60.2,7.7z M72.7,13.1c0-0.3-0.2-0.3-0.4-0.4c-1.2-0.7-2.5-1.3-3.7-2c-0.5-0.3-0.6-0.1-0.8,0.3
		c-0.4,1.1-0.9,2.2-1.4,3.3c-0.8,2-0.8,2,1,3c0.4,0.2,0.8,0.4,1.1,0.6c0.4,0.3,0.7,0.2,0.9-0.2c0.9-1.5,1.9-2.9,2.9-4.3
		C72.6,13.3,72.7,13.2,72.7,13.1z M89.5,31.7c0-0.1,0-0.1-0.1-0.2c-0.7-1.4-1.4-2.7-2.2-4.1c-0.2-0.3-0.4-0.2-0.6,0
		c-1.5,1-3.1,2-4.6,3.1c-0.3,0.2-0.3,0.4-0.1,0.7c0.5,0.9,1,1.8,1.4,2.6c0.2,0.3,0.3,0.4,0.7,0.3c1.7-0.7,3.3-1.4,5-2.1
		C89.3,32,89.5,32,89.5,31.7z M79.7,18c-0.1-0.1-0.2-0.1-0.3-0.2c-1.1-0.9-2.3-1.9-3.4-2.8c-0.3-0.3-0.5-0.1-0.7,0.2
		c-1,1.5-2,3-3,4.5C72,20,72,20.2,72.3,20.4c0.8,0.6,1.6,1.2,2.3,1.9c0.3,0.3,0.5,0.3,0.8,0c1.2-1.3,2.5-2.5,3.8-3.8
		C79.4,18.4,79.5,18.2,79.7,18z M85.2,24.5c-0.1-0.1-0.1-0.3-0.2-0.4c-0.9-1.1-1.9-2.3-2.8-3.4c-0.3-0.4-0.5-0.1-0.7,0.1
		c-1.3,1.3-2.5,2.5-3.8,3.8c-0.3,0.3-0.3,0.5,0,0.8c0.6,0.7,1.3,1.5,1.8,2.3c0.3,0.4,0.5,0.4,0.9,0.1c1.4-1,2.9-1.9,4.3-2.9
		C84.9,24.7,85.1,24.6,85.2,24.5z"/>
	<path class="st0" d="M87,51.6c-1.1,0-2.1,0-3.2,0c0.1-3-0.1-5.9-0.7-8.8c-0.2-0.8,0.1-1.1,0.8-1.2c3.7-0.7,7.3-1.4,10.9-2.2
		c0.6-0.1,0.8,0,0.9,0.6c0.7,3.8,1.2,7.7,1,11.6c-1.1,0-2.1,0-3.2,0c0.1-2.6-0.1-5.2-0.4-7.7c-0.1-0.6-0.2-0.8-0.9-0.6
		c-1.6,0.4-3.2,0.7-4.8,1c-0.5,0.1-0.8,0.2-0.7,0.9C87.1,47.2,87.2,49.4,87,51.6z"/>
	<path class="st0" d="M60.8,83.2c-0.3-0.3-0.7-0.6-1.1-0.9c-1.3-1.1-1.3-1.1-0.2-2.4c5.9-6.8,11.8-13.7,17.6-20.6
		c0.5-0.6,0.8-0.8,1.4-0.1c0.5,0.5,1.4,0.9,1.5,1.5c0.1,0.6-0.8,1.2-1.3,1.8C73,69.2,67.3,75.9,61.5,82.6
		C61.3,82.8,61.2,83.1,60.8,83.2z"/>
	<path class="st0" d="M67.8,62.9c0,2.7-2.2,4.8-4.9,4.8c-2.7,0-4.8-2.2-4.8-4.9c0-2.6,2.2-4.8,4.8-4.8C65.6,58,67.8,60.2,67.8,62.9z
		 M62.9,61.3c-0.9,0-1.6,0.7-1.6,1.6c0,0.9,0.7,1.6,1.6,1.6c0.9,0,1.7-0.7,1.7-1.6C64.5,62,63.8,61.3,62.9,61.3z"/>
	<path class="st0" d="M80.6,79c0,2.7-2.2,4.9-4.8,4.8c-2.6,0-4.8-2.2-4.8-4.8c0-2.7,2.1-4.9,4.8-4.9C78.5,74.1,80.6,76.3,80.6,79z
		 M77.4,79c0-0.9-0.7-1.6-1.6-1.6c-0.9,0-1.6,0.7-1.6,1.6c0,0.9,0.7,1.7,1.6,1.6C76.7,80.6,77.4,79.9,77.4,79z"/>
	<g>
		<path class="st1" d="M96.7,51.6c0.8,0,1.5,0.1,2.3,0c0.7-0.1,1,0.2,1,0.9c0,6.3-1,12.4-3.5,18.2C90.5,85,79.9,94.2,65,98.4
			c-4,1.1-8.2,1.5-12.4,1.5c-0.8,0-1-0.2-0.9-1c0.1-0.8,0-1.5,0-2.3c0-1.1,0-2.1,0-3.2c0-2.2,0-4.3,0-6.5c0-1.1,0-2.1,0-3.2
			c0-3.2,0-6.4,0-9.7c0-1.1,0-2.2,0-3.3c0-6.1,0-12.1,0-18.2c0-0.9,0.3-1.1,1.1-1.1c6.1,0,12.1,0,18.2,0c1.1,0,2.2,0,3.2,0
			c3.2,0,6.4,0,9.7,0c1.1,0,2.1,0,3.2,0c2.2,0,4.3,0,6.5,0C94.6,51.6,95.6,51.6,96.7,51.6z M60.8,83.2c0.4-0.1,0.5-0.4,0.7-0.6
			c5.7-6.7,11.5-13.4,17.2-20.1c0.5-0.6,1.4-1.1,1.3-1.8c-0.1-0.6-1-1-1.5-1.5c-0.6-0.6-0.9-0.4-1.4,0.1
			C71.3,66.2,65.4,73,59.6,79.9c-1.1,1.3-1.1,1.3,0.2,2.4C60.1,82.6,60.5,82.9,60.8,83.2z M67.8,62.9c0-2.7-2.2-4.8-4.9-4.8
			c-2.6,0-4.8,2.2-4.8,4.8c0,2.7,2.1,4.9,4.8,4.9C65.6,67.7,67.8,65.6,67.8,62.9z M80.6,79c0-2.7-2.2-4.8-4.9-4.8
			c-2.7,0-4.8,2.2-4.8,4.9c0,2.6,2.2,4.8,4.8,4.8C78.5,83.8,80.6,81.7,80.6,79z"/>
		<path class="st1" d="M62.9,61.3c0.9,0,1.6,0.7,1.6,1.6c0,0.9-0.8,1.7-1.7,1.6c-0.9,0-1.6-0.8-1.6-1.6C61.3,62,62.1,61.3,62.9,61.3
			z"/>
		<path class="st1" d="M77.4,79c0,0.9-0.7,1.6-1.6,1.6c-0.9,0-1.7-0.7-1.6-1.6c0-0.9,0.8-1.6,1.6-1.6C76.7,77.4,77.4,78.1,77.4,79z"
			/>
	</g>
	<path class="st0" d="M25.9,31.1C25.6,32,26,32.6,27,33.2c1.9,1.1,2.2,3.1,2,5.1c0,0.3-0.1,0.3-0.4,0.3c-0.3,0-0.7,0-1,0
		c-0.6,0-1.3,0.2-1.7-0.1c-0.5-0.3-0.1-1-0.2-1.6c-0.1-1.2-2-2.2-3.1-1.5c-0.1,0-0.1,0.1-0.1,0.1c-0.7,1.1,0.3,2.9,1.5,3.1
		c3.3,0.4,4.9,2.1,4.9,5.4c0,1.1-0.1,2.3,0,3.4c0,0.7-0.2,0.9-0.9,0.8c-0.5-0.1-1.1,0-1.6,0c-0.7-0.1-0.8,0.2-0.8,0.8
		c0,0.8,0.4,1.9-0.1,2.3c-0.5,0.4-1.6,0.1-2.4,0.2c-0.6,0-0.7-0.2-0.6-0.7c0-0.2,0-0.4,0-0.6c0.1-1.3,0-2.3-1.4-3.1
		c-1.8-1-2-3-1.9-4.9c0-0.3,0.1-0.4,0.4-0.4c0.3,0,0.6,0,0.9,0c0.6,0,1.3-0.2,1.8,0.1c0.4,0.3,0.1,1.1,0.1,1.6
		c0.1,0.7,0.4,1.1,1,1.4c0.7,0.2,1.6,0.4,2,0c0.5-0.3,0.2-1.3,0.1-1.9c-0.1-0.7-0.6-1.1-1.3-1.2c-0.4-0.1-0.7,0-1.1-0.1
		c-2.3-0.5-3.9-2.4-4-4.8c0-1.4,0-2.8,0-4.1c0-0.5,0-0.7,0.6-0.7c0.9,0,2,0.4,2.5-0.2c0.4-0.5,0.1-1.6,0.1-2.4
		c0-0.5,0.2-0.6,0.6-0.6c0.3,0,0.5,0,0.8,0C25.9,29,25.9,29,25.9,31.1z"/>
</g>
</svg>
