<?xml version="1.0" encoding="utf-8"?>
<!-- Generator: Adobe Illustrator 19.2.1, SVG Export Plug-In . SVG Version: 6.00 Build 0)  -->
<svg version="1.1" id="Layer_1" xmlns="http://www.w3.org/2000/svg" xmlns:xlink="http://www.w3.org/1999/xlink" x="0px" y="0px"
	 viewBox="0 0 100 100" style="enable-background:new 0 0 100 100;" xml:space="preserve">
<style type="text/css">
	.st0{fill:#261449;}
	.st1{fill:#4EE482;}
</style>
<g>
	<path class="st0" d="M48.4,39.4c0-2.3,0-4.5,0-6.8c0-3.1,2-5.1,5.1-5.1c1.4,0,1.4,0,1.3-1.3c-0.1-1.7,0.5-3.1,1.5-4.4
		c0.8-0.9,1.8-1.6,3-2c0.6-0.2,1.5,0,1.8-0.5c0.3-0.5,0.1-1.3,0.1-2c0,0,0-0.1,0-0.1c-0.1-0.7,0.2-0.9,0.9-0.9
		c4.4,0.2,8.2-1.4,11.2-4.7c0.7-0.8,1.1-0.6,1.7,0.1c2.6,2.7,5.7,4.3,9.5,4.6c0.8,0.1,2-0.3,2.4,0.2c0.4,0.5,0.1,1.6,0.1,2.5
		c0,0.4,0.1,0.6,0.5,0.6c1.7,0.1,3.1,0.9,4.4,2.1c1.2,1.6,1.9,3.4,1.4,5.5c-0.1,0.5,0.2,0.4,0.5,0.4c0.7,0,1.4,0,2,0.1
		c2.3,0.3,4,2.3,4,4.6c0,6.5,0,13.1,0,19.6c0,2.6-2.1,4.7-4.7,4.7c-2,0-4,0-5.9,0c-0.2,0-0.6-0.2-0.6,0.3c0.1,2.7-1,5.1-1.5,7.6
		c-0.3,1.6-0.8,3.2-1.2,4.9c1.3,0,2.5,0,3.7,0c1.8,0,3.6,0,5.5,0c2.4,0,4.3,1.6,4.8,3.9c0.5,2.1-0.7,4.4-2.8,5.3
		c-0.5,0.2-0.6,0.4-0.5,0.9c0.4,1.9-0.1,3.6-1.6,4.8c-0.4,0.3-0.4,0.6-0.2,1c0.8,2,0.3,4-1.3,5.4c-0.4,0.3-0.5,0.5-0.3,1
		c1.2,3.2-0.9,6.6-4.4,6.6c-5.8,0.1-11.7,0-17.6,0c-1.8,0-3.6-0.5-5.2-1.5c-2.3-1.4-4.8-1.9-7.5-1.8c-4.6,0.2-9.3,0.1-13.9,0
		c-0.9,0-1.1,0.3-1,1.1c0.1,1,0,2,0,3c0,0.7-0.2,0.8-0.8,0.8c-4.5,0-8.9,0-13.4,0c-7.9,0-15.7,0-23.6,0c-0.7,0-1-0.1-0.9-0.9
		c0.1-2.7-0.2-5.5,0.2-8.2c0.9-6.3,4.2-11,9.6-14.2c0.2-0.1,0.4-0.2,0.5-0.5c-1.9-0.9-3.6-2-5-3.6c-2.4-2.7-3.7-5.9-3.8-9.5
		c0-0.4,0-0.8,0-1.2c0-0.7,0.2-1.4-0.1-2c-0.3-0.6-1.2-0.3-1.8-0.5c-4.1-1.3-5.9-6-3.6-9.6c0.2-0.2,0.3-0.5,0.5-0.7
		C2.7,47.8,4.2,47,6,46.9c0.6,0,0.6-0.4,0.7-0.8c1.3-5.5,7.9-7.6,12-3.7c2.6,2.4,5.5,3.1,8.8,2.9c0.9-0.1,1.5-0.8,1.5-1.6
		c0-0.8-0.6-1.5-1.5-1.6C27,42,26.2,42.3,26,41.8c-0.3-0.4-0.1-1.2-0.1-1.8c0-0.2,0-0.5,0-0.7c0-0.5,0.1-0.6,0.6-0.6
		c4.3-0.3,6.8,2.9,5.4,7c-0.1,0.4,0,0.5,0.3,0.6c1.7,0.3,3.4,0.6,5.1,0.5c0.9,0,1.5-0.7,1.5-1.6c0-0.9-0.6-1.5-1.5-1.6
		c-1.7-0.1-1.7-0.1-1.7-1.8c0-0.3,0-0.7,0-1c0-0.3,0.1-0.4,0.4-0.5c2.5-0.4,5.1,1.1,5.8,3.4c0.2,0.8,0.3,1.6,0.2,2.4
		c0,0.4,0.1,0.6,0.5,0.6c1.8,0.1,3.2,1,4.4,2.2c0.5,0.7,1,1.4,1.2,2.3c0.1,0.3,0.2,0.7,0.2,1c0,0,0.1,0,0.1,0c0-0.3,0-0.7-0.1-1
		c0-2,0-4,0-6C48.4,43.3,48.4,41.4,48.4,39.4z M64.5,82.2c0,2.7,0.1,5.5,0,8.2c-0.1,1.7,0.4,2.6,2,3.2c1.7,0.7,3.2,1.6,5.1,1.6
		c5.6,0,11.2,0,16.8,0c1.2,0,1.9-0.6,1.9-1.6c0-1-0.7-1.6-1.9-1.6c-1.8,0-3.6,0-5.4,0c-2.4,0-2.4,0-2.4-2.4c0-0.7,0.2-0.9,0.9-0.9
		c2.9,0,5.7,0,8.6,0c1.1,0,1.8-0.6,1.9-1.6c0-1-0.7-1.6-1.9-1.6c-2.3,0-4.7,0-7,0c-2.4,0-2.4,0-2.4-2.4c0-0.7,0.2-0.8,0.9-0.8
		c3.4,0,6.8,0,10.1,0c0.7,0,1.2-0.1,1.6-0.7c0.3-0.5,0.4-1,0.1-1.6c-0.3-0.7-0.9-0.9-1.6-0.9c-2.9,0-5.8,0-8.7,0
		c-2.5,0-2.5,0-2.5-2.5c0-0.6,0.2-0.7,0.8-0.7c1.3,0,2.6,0,3.9,0c3.2,0,6.4,0,9.7,0c0.8,0,1.4-0.3,1.6-1c0.3-0.6,0.2-1.3-0.4-1.8
		c-0.4-0.4-1-0.4-1.5-0.4c-4,0-8.1,0-12.1,0c-0.7,0-0.8-0.1-0.6-0.8c1.1-4.4,2.2-8.7,3.3-13.1c0.8-3.2-1.4-5.7-4.7-5.4
		c-1,0.1-1.5,0.7-1.5,1.7c0,0.9,0,1.8,0,2.6c-0.1,4.9-3,9.1-7.7,10.6c-2.2,0.7-4.2,1.8-6.1,3.1c-0.5,0.4-0.8,0.7-0.8,1.4
		C64.5,75.9,64.5,79,64.5,82.2z M38.7,49.9c-2.6,0.4-5.1,0-7.7-0.5c-1.4-0.3-2.8-0.9-4.3-0.9c-4,0.1-7.4-1-10.3-3.8
		c-1.2-1.2-2.7-1.4-4.3-0.7c-1.5,0.7-2.5,1.9-2.5,3.5c0,5.5-0.1,11,0.1,16.5c0.2,5.1,4.4,9.4,9.5,10.1c2.7,0.4,5.4,0.1,8.1,0.1
		c6.3,0,11.3-5,11.3-11.3c0-4.1,0-8.2,0-12.3C38.7,50.4,38.7,50.1,38.7,49.9z M33.1,76.3c0.1,0.1,0.2,0.2,0.2,0.2
		c5.8,3.3,9.2,8.2,10.1,14.9c0.1,0.5,0.3,0.6,0.7,0.6c5.5,0,11,0,16.6,0c0.5,0,0.6-0.2,0.6-0.7c0-6,0-12,0-18c0-0.5-0.2-0.6-0.7-0.6
		c-7.3,0-14.6,0-21.9,0c-0.3,0-0.6,0.1-0.8,0.3C36.6,74.4,34.9,75.5,33.1,76.3z M26.1,84.7c-0.1,0-0.2,0.1-0.2,0.1
		c0,2.2,0,4.5,0,6.7c0,2.1,0,2-2.1,2.1c-0.9,0-1.1-0.2-1.1-1.1c0.1-2.6,0-5.1,0-8c-2.1,2.1-4,4-5.9,5.9c-0.6-3.4-1.1-6.7-1.7-10.1
		c-2.4,1.7-4.2,3.8-5.4,6.4c-1.4,2.8-1.6,5.8-1.6,8.9c0,0.9,0.2,1.1,1.1,1.1c10,0,20,0,30,0c0.2,0,0.4,0,0.6,0
		c0.4,0,0.5-0.1,0.5-0.5c0.1-3.1,0-6.1-1.3-9c-1.2-2.8-3-5.1-5.6-6.9c-0.6,3.4-1.1,6.7-1.7,10.1C29.8,88.4,27.9,86.5,26.1,84.7z
		 M40.4,69.4c7.3,0,14.5,0,21.6,0c0.4,0,0.6-0.1,0.9-0.3c2.4-1.7,5-3.1,7.8-4.1c3-1.1,4.7-3.4,5-6.6c0.2-1.9,0.2-1.9-1.7-1.9
		c-0.3,0-0.6,0-0.9,0c-0.5,0-0.6,0.1-0.6,0.6c0,1,0,2,0,2.9c-0.1,2.3-1.6,4.1-3.6,4.5c-2.2,0.4-4.2-0.7-5.1-2.8
		c-0.6-1.4-1.2-2.8-1.7-4.2c-0.2-0.7-0.6-0.9-1.3-0.9c-2.5,0.1-4.9,0-7.4,0c-0.5,0-0.9,0-1.4-0.1c-1.8-0.5-2.9-1.7-3.7-3.5
		c0,0.4,0,0.6-0.1,0.8c-0.3,3.3-2.4,5.6-5.7,6C42,59.7,41.9,60,42,60.5C42.1,63.5,41.9,66.5,40.4,69.4z M83.8,25.7
		c0-1.9,0-3.7,0-5.6c0-0.6-0.2-0.8-0.8-0.9c-3.1-0.4-5.8-1.6-8.2-3.5c-0.4-0.3-0.7-0.5-1.2-0.1c-2.4,2-5.2,3.2-8.4,3.6
		c-0.5,0.1-0.8,0.2-0.8,0.8c0,3.5,0,7,0,10.5c0,3.7,2.9,6.5,6.6,6.5c2,0,4.1,0,6.1,0c3.8,0,6.6-2.8,6.6-6.6
		C83.8,29,83.8,27.3,83.8,25.7z M66.8,39.5c-2.9-1.7-4.4-3.5-5.1-6.2c-0.2-0.7-0.5-1-1.2-1c-0.7,0-1.5-0.2-2.1-0.7
		c-1-0.9-2.2-0.9-3.5-0.8c-0.4,0-0.8,0-1.3,0c-1.4,0-2,0.6-2,2c0,6.2,0,12.3,0,18.5c0,1.4,0.6,2,2,2c1.6,0,3.2,0,4.9,0
		c0.9,0,2.1,0.3,2.6-0.2c0.6-0.5,0.2-1.7,0.2-2.6c-0.1-2.8,0.7-5.3,2.2-7.6C64.4,41.6,65.5,40.5,66.8,39.5z M81.6,39.5
		c0.2,0.2,0.4,0.3,0.5,0.5c1.7,1.4,3,3,3.9,5c1.1,2.3,1.1,4.8,1.1,7.2c0,0.8,0.3,1.1,1.1,1.1c2.2,0,4.4,0,6.5,0
		c1.6,0,2.1-0.5,2.1-2.1c0-3,0-5.9,0-8.9c0-3.2,0-6.4,0-9.6c0-1.3-0.6-1.9-1.9-1.9c-1,0-1.9,0-2.9,0c-0.4,0-0.7,0-1,0.3
		c-1,0.8-2.2,1.3-3.5,1.3c-0.3,0-0.5,0.1-0.6,0.5C86.1,35.8,84.3,38,81.6,39.5z M68.1,42.5c-1.5,1.3-2.5,2.7-3.1,4.4
		c-0.7,1.9-0.5,3.8-0.5,5.8c0,0.6,0.4,0.5,0.7,0.5c3.4,0,6.8,0,10.2,0c0.4,0,0.7-0.1,0.9-0.5c0.4-0.8,1-1.5,1.7-1.9
		c1.6-1,3.3-0.9,5-0.5c0.8,0.2,0.8-0.1,0.8-0.7c-0.1-2.5-1.1-4.6-2.8-6.3c-0.5-0.6-0.8-0.7-1.2,0.1c-1.4,2.8-4.7,4.1-7.6,3.1
		C70.2,45.9,68.9,44.5,68.1,42.5z M29.6,83.8c0.3-1.7,0.5-3.2,0.8-4.6c0.1-0.4,0-0.5-0.4-0.6c-3.8-1.4-7.7-1.4-11.5,0
		c-0.3,0.1-0.5,0.2-0.4,0.6c0.3,1.5,0.5,3,0.8,4.6c1.6-1.6,3.1-3.1,4.6-4.6c0.6-0.6,0.9-0.7,1.6,0C26.4,80.7,27.9,82.1,29.6,83.8z
		 M61.3,25.9c0-0.8,0-1.7,0-2.5c0-0.7-0.2-0.8-0.8-0.6C59.1,23.1,58,24.5,58,26c0.1,1.5,1.2,2.8,2.6,3.1c0.5,0.1,0.6,0,0.6-0.5
		C61.3,27.7,61.3,26.8,61.3,25.9z M87.1,29.1c1.9-0.2,3-1.2,3.2-2.9c0.1-1.6-0.8-3-2.3-3.4c-0.6-0.2-0.9-0.1-0.9,0.7
		C87.1,25.3,87.1,27.1,87.1,29.1z M6.5,53.3c0-0.9,0-1.8,0-2.6c0-0.5-0.1-0.7-0.6-0.6c-1.5,0.3-2.6,1.7-2.6,3.2
		c0,1.5,1.2,2.8,2.6,3.1c0.5,0.1,0.6,0,0.6-0.5C6.5,55.1,6.5,54.2,6.5,53.3z M42,53.2c0,0.9,0,1.9,0,2.8c0,0.5,0.2,0.5,0.6,0.5
		c1.5-0.2,2.6-1.6,2.6-3.2c0-1.6-1.1-2.9-2.6-3.2c-0.4-0.1-0.6,0-0.6,0.5C42,51.4,42,52.3,42,53.2z M74.2,40.4
		c-0.9,0-1.7,0.1-2.6,0.4c-0.4,0.1-0.6,0.3-0.4,0.7c0.5,1.2,1.7,2.1,3,2.1c1.3,0,2.5-0.8,3-2.1c0.2-0.5,0-0.7-0.4-0.8
		C75.9,40.5,75,40.4,74.2,40.4z M65.3,56.5c0.6,1.5,1.1,2.9,1.7,4.2c0.2,0.5,0.7,0.7,1.3,0.6c0.6-0.2,1-0.6,1-1.2c0-1,0-2,0-3
		c0-0.3,0-0.6-0.4-0.6C67.7,56.5,66.6,56.5,65.3,56.5z"/>
	<path class="st1" d="M48.4,39.4c0,2,0,3.9,0,5.9c-0.2-0.1-0.3-0.2-0.3,0.2c-0.2,1.3-0.6,2.5-1.2,3.6c-1.2-1.2-2.6-2.1-4.4-2.2
		c-0.4,0-0.5-0.3-0.5-0.6c0-0.8,0-1.6-0.2-2.4c-0.7-2.4-3.3-3.9-5.8-3.4c-0.3,0.1-0.5,0.2-0.4,0.5c0,0.3,0,0.6,0,1
		c0,1.7,0,1.7,1.7,1.8c0.9,0.1,1.5,0.7,1.5,1.6c0,0.9-0.6,1.6-1.5,1.6c-1.7,0.1-3.4-0.1-5.1-0.5c-0.3-0.1-0.5-0.2-0.3-0.6
		c1.4-4.1-1-7.2-5.4-7c-0.5,0-0.6,0.2-0.6,0.6c0,0.2,0,0.5,0,0.7c0,0.6-0.2,1.4,0.1,1.8c0.3,0.4,1.1,0.1,1.7,0.2
		c0.8,0.1,1.4,0.8,1.5,1.6c0,0.8-0.6,1.5-1.5,1.6c-3.3,0.2-6.3-0.4-8.8-2.9c-4-3.8-10.7-1.7-12,3.7c-0.1,0.4-0.1,0.8-0.7,0.8
		c-1.8,0.1-3.3,1-4.5,2.3C-1,43-0.3,37.2,3.8,32c3.1-3.9,7.3-5.9,12.2-6.1c5.5-0.1,11-0.2,16.5,0c7.5,0.2,13.5,5.3,15.4,12.2
		C48,38.6,47.9,39.1,48.4,39.4z"/>
	<path class="st1" d="M91.9,21.6c-1.2-1.2-2.6-2-4.4-2.1c-0.4,0-0.5-0.2-0.5-0.6c0-0.8,0.3-1.9-0.1-2.5c-0.4-0.6-1.6-0.2-2.4-0.2
		c-3.8-0.3-6.9-1.9-9.5-4.6c-0.6-0.7-1-0.8-1.7-0.1c-3,3.3-6.7,4.8-11.2,4.7c-0.7,0-1,0.2-0.9,0.9c0,0,0,0.1,0,0.1
		c0,0.7,0.2,1.5-0.1,2c-0.3,0.6-1.2,0.3-1.8,0.5c-1.2,0.4-2.2,1.1-3,2c-1-2.5-1.6-5-1.5-7.7c0.3-6.7,6-13.1,12.7-13.7
		c4.4-0.4,8.8-0.4,13.2,0c6.2,0.6,11.7,6.2,12.5,12.4C93.7,15.8,93.3,18.8,91.9,21.6z"/>
	<path class="st0" d="M38.7,19.4c-2.7,0-4.8-2.1-4.9-4.8c0-2.7,2.2-4.8,4.8-4.8c2.7,0,4.8,2.1,4.9,4.8
		C43.6,17.3,41.4,19.4,38.7,19.4z M38.7,13c-0.9,0-1.6,0.8-1.6,1.7c0,0.9,0.8,1.6,1.6,1.6c0.9,0,1.6-0.8,1.5-1.6
		C40.3,13.7,39.6,13,38.7,13z"/>
	<path class="st0" d="M13,19.4c-2.7,0-4.9-2.1-4.9-4.8c0-2.7,2.2-4.8,4.8-4.8c2.7,0,4.9,2.2,4.9,4.8C17.8,17.3,15.6,19.4,13,19.4z
		 M12.9,13c-0.9,0-1.6,0.7-1.6,1.6c0,0.9,0.7,1.6,1.6,1.6c0.9,0,1.6-0.7,1.6-1.6C14.5,13.7,13.8,13,12.9,13z"/>
	<path class="st0" d="M25.9,19.4c-2.7,0-4.8-2.1-4.9-4.8c0-2.6,2.2-4.9,4.8-4.9c2.7,0,4.9,2.1,4.9,4.8
		C30.7,17.2,28.5,19.4,25.9,19.4z M27.4,14.6c0-0.9-0.7-1.6-1.6-1.6c-0.9,0-1.6,0.7-1.6,1.6c0,0.9,0.7,1.6,1.6,1.6
		C26.7,16.2,27.4,15.5,27.4,14.6z"/>
	<path class="st0" d="M48.1,51.3c0.1,0,0.2,0,0.3,0c0,0.3,0,0.7,0.1,1c0,0-0.1,0-0.1,0C48.3,52,48.2,51.7,48.1,51.3z"/>
	<path class="st0" d="M24.3,61.3c2.4,0,4.8,0,7.2,0c0.7,0,0.8,0.2,0.8,0.9c0,4.4-2.3,7.6-6.1,8.5c-5,1.2-9.8-2.3-10-7.4
		c-0.1-2-0.1-2,1.8-2C20.1,61.3,22.2,61.3,24.3,61.3z M28.8,64.5c-2.9,0-5.6,0-8.3,0c-0.8,0-0.8,0.2-0.5,0.8c1,1.7,2.5,2.5,4.5,2.4
		C26.5,67.6,27.9,66.6,28.8,64.5z"/>
	<path class="st0" d="M35.2,54.9c-0.5,0-1.2,0.2-1.7-1c-0.4-1.1-2.2-0.9-2.6,0.3c-0.2,0.6-0.6,0.7-1.1,0.7c-0.4,0-0.8,0-1.2,0
		c-1.3,0-1.3,0-1-1.3c0.6-2.2,2.7-3.7,5-3.5c2.2,0.1,4.2,1.9,4.5,4.1c0.1,0.6-0.1,0.8-0.6,0.7C36.1,54.9,35.8,54.9,35.2,54.9z"/>
	<path class="st0" d="M19.3,54.9c-0.8,0-1.4,0.1-1.9-0.9c-0.5-1.1-2.2-0.9-2.7,0.3c-0.2,0.5-0.5,0.7-1,0.6c-0.5,0-0.9,0-1.4,0
		c-1.2,0-1.2-0.1-0.9-1.2c0.6-2.1,2.4-3.6,4.5-3.6c2.2-0.1,4.1,1.3,4.7,3.3c0.5,1.4,0.4,1.5-1.1,1.5C19.6,54.9,19.4,54.9,19.3,54.9z
		"/>
	<path class="st0" d="M73.7,33.9c-2.1-0.1-4.1-1.2-5.4-3.4c-0.3-0.5-0.4-0.9,0.3-1.1c0.2-0.1,0.3-0.2,0.5-0.3c0.5-0.2,1-0.6,1.5-0.7
		c0.6-0.1,0.7,0.7,1,1.1c1.7,1.7,4.4,1.4,5.6-0.6c0.3-0.6,0.6-0.6,1.1-0.3c0.5,0.3,1,0.6,1.5,0.7c0.7,0.2,0.6,0.6,0.3,1.1
		C78.8,32.7,76.6,33.9,73.7,33.9z"/>
	<path class="st0" d="M69.4,24.3c-0.9,0-1.6-0.7-1.6-1.6c0-0.9,0.7-1.6,1.6-1.6c0.9,0,1.6,0.7,1.6,1.6
		C70.9,23.5,70.2,24.3,69.4,24.3z"/>
	<path class="st0" d="M79,24.3c-0.9,0-1.6-0.8-1.6-1.6c0-0.9,0.8-1.6,1.6-1.6c0.9,0,1.6,0.8,1.6,1.6C80.6,23.5,79.9,24.3,79,24.3z"
		/>
</g>
</svg>
