<?xml version="1.0" encoding="utf-8"?>
<!-- Generator: Adobe Illustrator 19.2.1, SVG Export Plug-In . SVG Version: 6.00 Build 0)  -->
<svg version="1.1" id="Layer_1" xmlns="http://www.w3.org/2000/svg" xmlns:xlink="http://www.w3.org/1999/xlink" x="0px" y="0px"
	 viewBox="0 0 80 80" style="enable-background:new 0 0 80 80;" xml:space="preserve">
<style type="text/css">
	.st0{fill:#261449;}
	.st1{fill:#4EE482;}
</style>
<g>
	<path class="st0" d="M12.9,2.2c1.9,0.6,3.8,1.1,5.7,1.6c3.3,1,6.7,1.6,10.1,1.3c3.8-0.4,7.3-1.5,10.5-3.5c0.5-0.3,0.9-0.4,1.5,0
		c4.1,2.6,8.6,3.8,13.5,3.6c3.1-0.1,6-1,8.9-1.8c1.3-0.4,2.6-0.7,4-1.1c0,0.5,0,0.9,0,1.3c0.1,4.4-0.1,8.8,0.1,13.1
		c0.3,6.4,1.6,12.6,3.5,18.7c3.1,10,1.5,19.2-4.9,27.6c-2.7,3.5-6.1,6.1-10.1,8.1c-5.1,2.5-10.2,5.1-15.2,7.6
		c-0.3,0.2-0.6,0.3-1,0.1c-5.6-2.8-11.3-5.5-16.8-8.5C14.4,65.5,9.6,58.2,8.1,48.7C7.3,43.8,8,39,9.6,34.3c2.3-7.1,3.4-14.5,3.4-22
		C12.9,8.9,12.9,5.6,12.9,2.2z M38.7,23.2c0-6.1,0-12.2,0-18.3C38.5,4.8,38.3,5,38.2,5c-6,2.9-12.2,3.5-18.6,1.7
		c-1.4-0.4-2.7-0.8-4.1-1.2c0,2.3,0,4.6,0,6.9c0,7.6-1.1,15-3.4,22.3c-1.3,4-2.1,8.1-1.6,12.3c1.1,9.4,5.6,16.4,13.9,21
		c4.5,2.5,9.2,4.6,13.8,7c0.2,0.1,0.3,0.3,0.6,0.2c0-1.7,0-3.4,0-5.1c0-1.7,0-1.7,1.7-1.8c0.7,0,0.9,0.2,0.9,0.9c-0.1,2,0,4,0,6.1
		c0.2-0.1,0.3-0.1,0.4-0.2c4.4-2.2,8.8-4.3,13.1-6.6c12.1-6.3,17.6-19.4,13.5-32.3c-1.8-5.6-3-11.3-3.5-17.1
		c-0.4-4.2-0.2-8.4-0.3-12.6c0-0.3,0-0.6,0-1c-7.9,3-15.6,3.1-23.2-0.7c0,6.3,0,12.4,0,18.4C40.4,23.2,39.6,23.2,38.7,23.2z"/>
	<path class="st0" d="M77.4,2.6c0.7,0,1.4,0,2.1,0c0.4,0,0.5,0.1,0.5,0.5c0,2.1,0.1,2.1-2,2c-0.2,0-0.4,0-0.6,0l0,0
		C77.4,4.3,77.4,3.5,77.4,2.6L77.4,2.6z"/>
	<path class="st0" d="M5.2,5.2c0,0.7,0,1.4,0,2.1c0,0.4-0.1,0.5-0.5,0.5c-2.1,0-2.1,0.1-2-2c0-0.2,0-0.4,0-0.6l0,0
		C3.5,5.2,4.3,5.2,5.2,5.2L5.2,5.2z"/>
	<path class="st0" d="M77.4,5.2c0,0.7,0,1.4,0,2.1c0,0.4-0.1,0.5-0.5,0.5c-2.1,0-2.1,0.1-2.1-2c0-0.2,0-0.4,0-0.6l0,0
		C75.7,5.2,76.5,5.2,77.4,5.2L77.4,5.2z"/>
	<path class="st0" d="M5.2,16.8c0-1.3,0-1.3,1.3-1.3c1.3,0,1.3,0,1.3,1.3c0,1.3,0,1.3-1.2,1.3c0,0-0.1,0-0.1,0
		C5.2,18.1,5.2,18.1,5.2,16.8z"/>
	<path class="st0" d="M74.8,16.7c0,1.4,0,1.4-1.4,1.4c-1.2,0-1.2,0-1.2-1.2c0-1.4,0-1.4,1.4-1.4C74.8,15.5,74.8,15.5,74.8,16.7z"/>
	<path class="st0" d="M2.6,2.6c0-0.7,0-1.4,0-2.1C2.6,0.1,2.7,0,3.1,0C5.2,0,5.2,0,5.2,2c0,0.2,0,0.4,0,0.6l0,0
		C4.3,2.6,3.5,2.6,2.6,2.6L2.6,2.6z"/>
	<path class="st0" d="M74.8,2.6c0-0.7,0-1.4,0-2.1C74.8,0.1,75,0,75.3,0c2.1,0,2.1-0.1,2,2c0,0.2,0,0.4,0,0.6l0,0
		C76.5,2.6,75.7,2.6,74.8,2.6L74.8,2.6z"/>
	<path class="st0" d="M2.6,5.2c-0.7,0-1.4,0-2.1,0C0.1,5.2,0,5.1,0,4.7C0,2.6,0,2.6,2,2.6c0.2,0,0.4,0,0.6,0l0,0
		C2.6,3.5,2.6,4.3,2.6,5.2L2.6,5.2z"/>
	<path class="st0" d="M5.2,2.6c0.7,0,1.4,0,2.1,0c0.4,0,0.5,0.1,0.5,0.5c0,2.1,0.1,2.1-2,2.1c-0.2,0-0.4,0-0.6,0l0,0
		C5.2,4.3,5.2,3.5,5.2,2.6L5.2,2.6z"/>
	<path class="st0" d="M74.8,5.2c-0.7,0-1.4,0-2.1,0c-0.4,0-0.5-0.1-0.5-0.5c0-2.1-0.1-2.1,2-2c0.2,0,0.4,0,0.6,0l0,0
		C74.8,3.5,74.8,4.3,74.8,5.2L74.8,5.2z"/>
	<path class="st0" d="M5.2,63.1c0-1.2,0-1.2,1.2-1.2c1.4,0,1.4,0,1.4,1.4c0,1.2,0,1.2-1.2,1.2C5.2,64.5,5.2,64.5,5.2,63.1z"/>
	<path class="st0" d="M74.8,63.1c0,1.4,0,1.4-1.4,1.4c-1.2,0-1.2,0-1.2-1.3c0-1.3,0-1.3,1.3-1.3C74.8,61.9,74.8,61.9,74.8,63.1z"/>
	<path class="st0" d="M2.6,74.8c0-0.7,0-1.4,0-2.1c0-0.4,0.1-0.5,0.5-0.5c2.1,0,2.1-0.1,2.1,2c0,0.2,0,0.4,0,0.6l0,0
		C4.3,74.8,3.5,74.8,2.6,74.8L2.6,74.8z"/>
	<path class="st0" d="M74.8,74.8c0-0.7,0-1.4,0-2.1c0-0.4,0.1-0.5,0.5-0.5c2.1,0,2.1-0.1,2.1,2c0,0.2,0,0.4,0,0.6l0,0
		C76.5,74.8,75.7,74.8,74.8,74.8L74.8,74.8z"/>
	<path class="st0" d="M18.1,74.8c0,1.4,0,1.4-1.4,1.4c-1.2,0-1.2,0-1.2-1.2c0-1.4,0-1.4,1.4-1.4C18.1,73.5,18.1,73.5,18.1,74.8z"/>
	<path class="st0" d="M63.2,76.1c-1.2,0-1.2,0-1.2-1.3c0-1.3,0-1.3,1.3-1.3c1.2,0,1.2,0,1.2,1.3C64.5,76.1,64.5,76.1,63.2,76.1z"/>
	<path class="st0" d="M2.6,77.4c-0.7,0-1.4,0-2.1,0c-0.4,0-0.5-0.1-0.5-0.5c0-2.1-0.1-2.1,2-2c0.2,0,0.4,0,0.6,0l0,0
		C2.6,75.7,2.6,76.5,2.6,77.4L2.6,77.4z"/>
	<path class="st0" d="M5.2,74.8c0.7,0,1.4,0,2.1,0c0.4,0,0.5,0.1,0.5,0.5c0,2.1,0.1,2.1-2,2.1c-0.2,0-0.4,0-0.6,0l0,0
		C5.2,76.5,5.2,75.7,5.2,74.8L5.2,74.8z"/>
	<path class="st0" d="M74.8,77.4c-0.7,0-1.4,0-2.1,0c-0.4,0-0.5-0.1-0.5-0.5c0-2.1-0.1-2.1,2-2.1c0.2,0,0.4,0,0.6,0l0,0
		C74.8,75.7,74.8,76.5,74.8,77.4L74.8,77.4z"/>
	<path class="st0" d="M77.4,74.8c0.7,0,1.4,0,2.1,0c0.4,0,0.5,0.1,0.5,0.5c0,2.1,0.1,2.1-2,2.1c-0.2,0-0.4,0-0.6,0l0,0
		C77.4,76.5,77.4,75.7,77.4,74.8L77.4,74.8z"/>
	<path class="st0" d="M5.2,77.4c0,0.7,0,1.4,0,2.1c0,0.4-0.1,0.5-0.5,0.5c-2.1,0-2.1,0.1-2.1-2c0-0.2,0-0.4,0-0.6l0,0
		C3.5,77.4,4.3,77.4,5.2,77.4L5.2,77.4z"/>
	<path class="st0" d="M77.4,77.4c0,0.7,0,1.4,0,2.1c0,0.4-0.1,0.5-0.5,0.5c-2.1,0-2.1,0.1-2.1-2c0-0.2,0-0.4,0-0.6l0,0
		C75.7,77.4,76.5,77.4,77.4,77.4L77.4,77.4z"/>
	<path class="st0" d="M26.7,29.7c-0.6,0.9-1.1,1.7-1.7,2.6c-2.1,0-4.2,0-6.4,0c-0.5,0-0.6-0.1-0.6-0.6c0-3.5,0-6.9,0-10.4
		c0-0.5,0.1-0.6,0.6-0.6c2,0,2,0,2,1.9c0,2.2,0,4.4,0,6.5c0,0.5,0.1,0.6,0.6,0.6C23.1,29.7,24.9,29.7,26.7,29.7z"/>
	<path class="st0" d="M55,32.3c-0.6-0.9-1.1-1.7-1.7-2.6c1.8,0,3.7,0,5.5,0c0.5,0,0.6-0.1,0.6-0.6c0-2.6,0-5.2,0-7.8
		c0-0.5,0.1-0.6,0.6-0.6c2,0,2,0,2,2c0,3,0,6,0,8.9c0,0.6-0.1,0.7-0.7,0.7C59.1,32.2,57.1,32.3,55,32.3z"/>
	<path class="st0" d="M54.2,49c0.4-0.9,0.9-1.7,1.3-2.6c1.9,0,3.8,0,5.7,0c0.5,0,0.7,0.1,0.7,0.7c0,2.6,0,5.2,0,7.7
		c0,0.5-0.2,0.6-0.7,0.6c-1.9,0-1.9,0-1.9-1.9c0-1.3,0-2.7,0-4c0-0.5-0.1-0.6-0.6-0.6C57.2,49,55.7,49,54.2,49z"/>
	<path class="st0" d="M24.5,46.4c0.4,0.9,0.9,1.7,1.3,2.6c-1.5,0-3,0-4.5,0c-0.5,0-0.7,0.1-0.7,0.7c0,1.7,0,3.5,0,5.2
		c0,0.4-0.1,0.6-0.6,0.6c-2,0-2,0-2-2c0-2.1,0-4.1,0-6.2c0-0.8,0.2-0.9,0.9-0.8C20.8,46.5,22.6,46.4,24.5,46.4z"/>
	<path class="st0" d="M38.7,56.8c0.9,0,1.7,0,2.6,0c0,2.8,0,5.6,0,8.4c0,0.5-0.1,0.7-0.7,0.7c-1.9,0-1.9,0-1.9-1.9
		C38.7,61.5,38.7,59.1,38.7,56.8z"/>
	<path class="st0" d="M56.8,41.3c0-0.9,0-1.7,0-2.6c1.5,0,3.1,0,4.6,0c0.5,0,0.6,0.1,0.6,0.6c0,2,0,2-1.9,2
		C58.9,41.3,57.8,41.3,56.8,41.3z"/>
	<path class="st0" d="M23.2,38.7c0,0.9,0,1.7,0,2.6c-1.5,0-3.1,0-4.6,0c-0.5,0-0.6-0.1-0.6-0.6c0-2,0-2,1.9-2
		C21.1,38.7,22.2,38.7,23.2,38.7z"/>
	<path class="st0" d="M20.7,16.9c0,1.2,0,1.2-1.3,1.2c-1.3,0-1.3,0-1.3-1.3c0-1.3,0-1.3,1.2-1.3C20.7,15.5,20.7,15.5,20.7,16.9z"/>
	<path class="st0" d="M59.3,16.8c0-1.3,0-1.3,1.3-1.3c1.3,0,1.3,0,1.3,1.3c0,1.2,0,1.2-1.2,1.3c0,0-0.1,0-0.1,0
		C59.3,18.1,59.3,18.1,59.3,16.8z"/>
	<path class="st0" d="M15.5,40c0,1.3,0,1.3-1.3,1.3c-1.3,0-1.3,0-1.3-1.3c0-1.3,0-1.3,1.3-1.3C15.5,38.7,15.5,38.7,15.5,40z"/>
	<path class="st0" d="M67.1,40c0,1.3,0,1.3-1.2,1.3c-1.3,0-1.3,0-1.3-1.3c0-1.3,0-1.3,1.2-1.3C67.1,38.7,67.1,38.7,67.1,40z"/>
	<path class="st0" d="M20.7,59.3c0,1.3,0,1.3-1.3,1.3c-1.3,0-1.3,0-1.3-1.3c0-1.2,0-1.2,1.2-1.3c0,0,0.1,0,0.1,0
		C20.7,58.1,20.7,58.1,20.7,59.3z"/>
	<path class="st0" d="M60.6,60.6c-1.2,0-1.2,0-1.2-1.3c0-1.3,0-1.3,1.3-1.3c1.3,0,1.3,0,1.3,1.3C61.9,60.6,61.9,60.6,60.6,60.6z"/>
	<path class="st0" d="M33.6,40c0-2.8,0-5.6,0-8.4c0-0.5,0.1-0.7,0.7-0.7c0.9,0,1.7,0,2.6,0c0.6,0,0.7-0.2,0.7-0.7
		c0-2.1,0-2.1,2.1-1.9c0.3,0,0.5,0.1,0.5,0.5c0,0.5,0,0.9,0,1.4c-0.1,0.7,0.2,0.8,0.8,0.8c2.6,0,4.5,1.1,5.3,3.2
		c0.8,1.9,0.5,3.7-0.9,5.3c-0.3,0.4-0.4,0.6,0,1c1.4,1.7,1.7,3.6,0.8,5.5c-0.9,2-2.6,3-4.8,3C40,49,40,49,40,50.3
		c0,1.4,0,1.4-1.3,1.4c-1.3,0-1.3,0-1.3-1.3c0-1.3,0-1.3-1.3-1.3c-0.8,0-1.9,0.4-2.4-0.2c-0.4-0.4-0.1-1.5-0.1-2.3
		C33.5,44.4,33.6,42.2,33.6,40z M39,38.7c0.8,0,1.6,0,2.3,0c1.4,0,2.6-1.2,2.6-2.6c0-1.4-1.1-2.6-2.5-2.6c-1.6,0-3.1,0-4.7,0
		c-0.4,0-0.6,0.1-0.6,0.5c0,1.4,0,2.7,0,4.1c0,0.5,0.2,0.6,0.6,0.6C37.5,38.7,38.2,38.7,39,38.7z M39,46.4C39,46.4,39,46.4,39,46.4
		c0.8,0,1.6,0,2.4,0c1.3-0.1,2.4-1.2,2.4-2.5c0-1.4-1.1-2.6-2.4-2.6c-1.6,0-3.2,0-4.8,0c-0.4,0-0.5,0.1-0.5,0.5c0,1.4,0,2.8,0,4.2
		c0,0.4,0.1,0.5,0.5,0.5C37.4,46.4,38.2,46.4,39,46.4z"/>
	<g>
		<path class="st1" d="M41.3,23.2c1.9,0.3,3.7,0.6,5.4,1.4c2.6,1.2,4.7,2.9,6.5,5.1c0.6,0.9,1.1,1.7,1.7,2.6
			c0.6,1.6,1.3,3.1,1.6,4.9c0.1,0.5,0.2,1.1,0.2,1.6c0,0.9,0,1.7,0,2.6c-0.2,1.8-0.6,3.5-1.3,5.1c-0.4,0.9-0.9,1.7-1.3,2.6
			c-1.9,2.8-4.4,5-7.5,6.4c-1.7,0.8-3.6,1.1-5.4,1.4c-0.9,0-1.7,0-2.6,0c-1.9-0.3-3.7-0.6-5.4-1.4c-3.1-1.4-5.5-3.6-7.5-6.4
			c-0.4-0.9-0.9-1.7-1.3-2.6c-0.7-1.7-1-3.4-1.3-5.1c0-0.9,0-1.7,0-2.6c0.2-2.2,0.9-4.4,1.8-6.4c0.6-0.9,1.1-1.7,1.7-2.6
			c2.7-3.3,6.1-5.5,10.4-6.2c0.5-0.1,1.1-0.2,1.6-0.2C39.6,23.2,40.4,23.2,41.3,23.2z M33.6,40c0,2.2,0,4.4,0,6.5
			c0,0.8-0.3,1.9,0.1,2.3c0.5,0.5,1.6,0.1,2.4,0.2c1.3,0,1.3,0,1.3,1.3c0,1.3,0,1.3,1.3,1.3c1.3,0,1.3,0,1.3-1.4
			c0-1.2,0-1.2,1.2-1.2c2.2,0,3.8-1,4.8-3c0.9-2,0.6-3.9-0.8-5.5c-0.3-0.4-0.3-0.6,0-1c1.4-1.6,1.7-3.4,0.9-5.3
			c-0.8-2.1-2.7-3.2-5.3-3.2c-0.6,0-0.9-0.1-0.8-0.8c0.1-0.4,0-0.9,0-1.4c0-0.4-0.1-0.4-0.5-0.5c-2.1-0.1-2.1-0.1-2.1,1.9
			c0,0.5-0.1,0.7-0.7,0.7c-0.9,0-1.7,0-2.6,0c-0.5,0-0.7,0.1-0.7,0.7C33.6,34.4,33.6,37.2,33.6,40z"/>
		<path class="st1" d="M39,38.7c-0.7,0-1.5,0-2.2,0c-0.4,0-0.6-0.1-0.6-0.6c0-1.4,0-2.7,0-4.1c0-0.4,0.2-0.5,0.6-0.5
			c1.6,0,3.1,0,4.7,0c1.4,0,2.5,1.2,2.5,2.6c0,1.4-1.1,2.5-2.6,2.6C40.5,38.7,39.8,38.7,39,38.7z"/>
		<path class="st1" d="M39,46.4c-0.8,0-1.6,0-2.4,0c-0.4,0-0.5-0.1-0.5-0.5c0-1.4,0-2.8,0-4.2c0-0.4,0.1-0.5,0.5-0.5
			c1.6,0,3.2,0,4.8,0c1.4,0,2.4,1.2,2.4,2.6c0,1.3-1.1,2.5-2.4,2.5C40.6,46.5,39.8,46.4,39,46.4C39,46.4,39,46.4,39,46.4z"/>
	</g>
</g>
</svg>
