<?xml version="1.0" encoding="utf-8"?>
<!-- Generator: Adobe Illustrator 19.2.1, SVG Export Plug-In . SVG Version: 6.00 Build 0)  -->
<svg version="1.1" id="Layer_1" xmlns="http://www.w3.org/2000/svg" xmlns:xlink="http://www.w3.org/1999/xlink" x="0px" y="0px"
	 viewBox="0 0 80 80" style="enable-background:new 0 0 80 80;" xml:space="preserve">
<style type="text/css">
	.st0{fill:#261449;}
	.st1{fill:#4EE482;}
</style>
<g>
	<path class="st0" d="M21.7,46.4c0.8,0,1.6,0,2.3,0c0.4,0,0.6,0.1,0.7,0.5c0.6,1.3,1.3,2.6,2.3,3.7c0.3,0.3,0.2,0.5-0.1,0.8
		c-0.5,0.4-1,0.9-1.5,1.3c-0.9-0.9-1.6-2-2.2-3.1C23,49.3,23,49,22.6,49c-0.8,0-1.6,0-2.5,0c3.2,7.4,11.4,13.5,21.3,12.9
		c9.7-0.6,16.4-7.5,18.4-12.9c-0.7,0-1.5,0-2.2,0c-0.4,0-0.6,0.2-0.8,0.5c-3.4,5.6-8.3,9-14.8,9.7c-5.5,0.6-10.4-1-14.7-4.6
		c0.4-0.5,0.9-0.9,1.3-1.5c0.4-0.5,0.7-0.3,1,0c3.1,2.5,6.7,3.8,10.7,3.6c6.8-0.3,11.7-3.5,14.8-9.6c0.3-0.6,0.6-0.8,1.2-0.7
		c0.7,0.1,1.3,0,2,0c1.2,0,2.3,0,3.5,0c0.5,0,0.9,0.1,1.2,0.6c1.8,2.2,3.7,4.5,5.5,6.7c0.3,0.4,0.6,0.5,1.1,0.5c1.5,0,3,0,4.5,0
		c0.6,0,0.7,0.2,0.7,0.7c0,1.9,0,1.9-1.8,1.9c-1.5,0-3,0-4.5,0c-0.5,0-0.9-0.2-1.2-0.6c-1.6-2-3.3-4-5-6c-4.8,9-12.1,14.2-22.3,14.2
		c-10.3,0-17.6-5.2-22.3-14.2c-1.7,2-3.4,4-5,6c-0.3,0.4-0.6,0.5-1.1,0.5c-1.9,0-3.9,0-5.8,0c-0.5,0-0.6-0.1-0.6-0.6c0-2,0-2,2-2
		c1.1,0,2.2,0,3.3,0c0.4,0,0.7-0.1,0.9-0.4c1.9-2.3,3.8-4.5,5.6-6.8c0.3-0.4,0.7-0.6,1.2-0.6C19.4,46.5,20.5,46.4,21.7,46.4z"/>
	<path class="st0" d="M52.7,25.4c-0.4,0.5-0.9,0.9-1.3,1.5c-0.4,0.5-0.6,0.3-1,0c-3.1-2.4-6.6-3.7-10.5-3.6
		c-6.9,0.2-11.9,3.5-15,9.6c-0.3,0.6-0.6,0.8-1.2,0.7c-0.7-0.1-1.3,0-2,0c-1.2,0-2.3,0-3.5,0c-0.5,0-0.9-0.1-1.2-0.6
		c-1.9-2.3-3.7-4.5-5.6-6.8c-0.3-0.3-0.5-0.4-0.9-0.4c-1.5,0-3.1,0-4.6,0c-0.5,0-0.7-0.1-0.7-0.6c0-2,0-2,1.9-2c1.5,0,3,0,4.5,0
		c0.5,0,0.8,0.2,1.1,0.5c1.6,2,3.3,4,5,6c4.8-9,12.1-14.2,22.3-14.2c10.3,0,17.6,5.2,22.3,14.2c1.7-2,3.3-4,5-6
		c0.3-0.4,0.7-0.6,1.2-0.6c1.9,0,3.8,0,5.7,0c0.5,0,0.6,0.1,0.6,0.6c0,2,0,2-2,2c-1.1,0-2.2,0-3.3,0c-0.4,0-0.7,0.1-0.9,0.4
		c-1.9,2.3-3.7,4.5-5.6,6.8c-0.3,0.4-0.7,0.6-1.2,0.6c-1.2,0-2.3,0-3.5,0c-0.8,0-1.6,0-2.3,0c-0.4,0-0.6-0.1-0.7-0.5
		c-0.6-1.3-1.3-2.6-2.3-3.7c-0.3-0.3-0.2-0.5,0.1-0.8c0.5-0.4,1-0.9,1.5-1.3c0.9,0.9,1.6,2,2.2,3.1C57,30.7,57,31,57.4,31
		c0.8,0,1.6,0,2.5,0c-3.2-7.4-11.4-13.5-21.3-12.9c-9.8,0.6-16.5,7.5-18.4,12.9c0.7,0,1.4,0,2,0c0.5,0,0.8-0.1,1-0.6
		c0.5-0.9,1.1-1.7,1.7-2.5C31.7,19.3,44.7,18.2,52.7,25.4z"/>
	<path class="st0" d="M59.3,38.7c-1.1,0-2.2,0-3.4,0c-0.4,0-0.5-0.1-0.5-0.5c-0.1-2.1-0.1-2.1,2-2.1c0.5,0,1,0,1.4,0
		c5,0,10,0,15.1,0c0.7,0,0.9,0.1,0.9,0.9c-0.1,1.7,0,1.7-1.7,1.7C68.5,38.7,63.9,38.7,59.3,38.7z"/>
	<path class="st0" d="M21.1,36.1c0.9,0,1.9,0,2.8,0c0.4,0,0.6,0.1,0.7,0.6c0,2,0,2-2,2c-0.6,0-1.3,0-1.9,0c-4.9,0-9.8,0-14.7,0
		c-0.7,0-0.8-0.2-0.8-0.8c0-1.8,0-1.8,1.8-1.8C11.7,36.1,16.4,36.1,21.1,36.1z"/>
	<path class="st0" d="M20.7,41.3c1.1,0,2.2,0,3.3,0c0.4,0,0.6,0.1,0.6,0.6c0,2,0.1,2-1.9,2c-0.5,0-1,0-1.5,0c-5,0-10,0-15,0
		c-0.8,0-1-0.1-1-0.9c0.1-1.7,0-1.7,1.7-1.7C11.4,41.3,16,41.3,20.7,41.3z"/>
	<path class="st0" d="M58.9,43.9c-0.9,0-1.9,0-2.8,0c-0.4,0-0.6-0.1-0.7-0.6c0-2,0-2,2-2c0.6,0,1.3,0,1.9,0c4.9,0,9.8,0,14.7,0
		c0.7,0,0.9,0.2,0.9,0.9c-0.1,1.7,0,1.7-1.8,1.7C68.4,43.9,63.6,43.9,58.9,43.9z"/>
	<path class="st0" d="M23.2,11.6c-0.7,0-1.4,0-2.1,0c-0.4,0-0.5-0.1-0.5-0.5c0-2.1-0.1-2.1,2-2.1c0.2,0,0.4,0,0.6,0l0,0
		C23.2,9.9,23.2,10.8,23.2,11.6L23.2,11.6z"/>
	<path class="st0" d="M25.8,9c0.7,0,1.4,0,2.1,0c0.4,0,0.5,0.1,0.5,0.5c0,2.1,0.1,2.1-2,2.1c-0.2,0-0.4,0-0.6,0l0,0
		C25.8,10.8,25.8,9.9,25.8,9L25.8,9z"/>
	<path class="st0" d="M61.9,12.9c0-0.7,0-1.4,0-2.1c0-0.4,0.1-0.5,0.5-0.5c2.1,0,2.1-0.1,2.1,2c0,0.2,0,0.4,0,0.6l0,0
		C63.7,12.9,62.8,12.9,61.9,12.9L61.9,12.9z"/>
	<path class="st0" d="M25.8,11.6c0,0.7,0,1.4,0,2.1c0,0.4-0.1,0.5-0.5,0.5c-2.1,0-2.1,0.1-2.1-2c0-0.2,0-0.4,0-0.6l0,0
		C24.1,11.6,25,11.6,25.8,11.6L25.8,11.6z"/>
	<path class="st0" d="M61.9,15.5c-0.7,0-1.4,0-2.1,0c-0.4,0-0.5-0.1-0.5-0.5c0-2.1-0.1-2.1,2-2.1c0.2,0,0.4,0,0.6,0l0,0
		C61.9,13.8,61.9,14.6,61.9,15.5L61.9,15.5z"/>
	<path class="st0" d="M64.5,12.9c0.7,0,1.4,0,2.1,0c0.4,0,0.5,0.1,0.5,0.5c0,2.1,0.1,2.1-2,2.1c-0.2,0-0.4,0-0.6,0l0,0
		C64.5,14.6,64.5,13.8,64.5,12.9L64.5,12.9z"/>
	<path class="st0" d="M64.5,15.5c0,0.7,0,1.4,0,2.1c0,0.4-0.1,0.5-0.5,0.5c-2.1,0-2.1,0.1-2.1-2c0-0.2,0-0.4,0-0.6l0,0
		C62.8,15.5,63.7,15.5,64.5,15.5L64.5,15.5z"/>
	<path class="st0" d="M2.6,24.6c0,1.3,0,1.3-1.2,1.3c-1.3,0-1.3,0-1.3-1.3c0-1.3,0-1.3,1.2-1.3C2.6,23.2,2.6,23.2,2.6,24.6z"/>
	<path class="st0" d="M80,24.6c0,1.2,0,1.2-1.2,1.2c-1.4,0-1.4,0-1.4-1.4c0-1.2,0-1.2,1.2-1.2C80,23.2,80,23.2,80,24.6z"/>
	<path class="st0" d="M1.3,36.1c1.3,0,1.3,0,1.3,1.3c0,1.3,0,1.3-1.3,1.3c-1.3,0-1.3,0-1.3-1.3C0,36.1,0,36.1,1.3,36.1z"/>
	<path class="st0" d="M23.2,9c0-0.7,0-1.4,0-2.1c0-0.4,0.1-0.5,0.5-0.5c2.1,0,2.1-0.1,2.1,2c0,0.2,0,0.4,0,0.6l0,0
		C25,9,24.1,9,23.2,9L23.2,9z"/>
	<path class="st0" d="M2.6,42.6c0,1.3,0,1.3-1.3,1.3c-1.3,0-1.3,0-1.3-1.3c0-1.3,0-1.3,1.3-1.3C2.6,41.3,2.6,41.3,2.6,42.6z"/>
	<path class="st0" d="M49,2.6c0-0.7,0-1.4,0-2.1C49,0.1,49.2,0,49.6,0c2.1,0,2.1-0.1,2.1,2c0,0.2,0,0.4,0,0.6l0,0
		C50.8,2.6,49.9,2.6,49,2.6L49,2.6z"/>
	<path class="st0" d="M49,5.2c-0.7,0-1.4,0-2.1,0c-0.4,0-0.5-0.1-0.5-0.5c0-2.1-0.1-2.1,2-2.1c0.2,0,0.4,0,0.6,0l0,0
		C49,3.4,49,4.3,49,5.2L49,5.2z"/>
	<path class="st0" d="M80,42.7c0,1.2,0,1.2-1.2,1.2c-1.4,0-1.4,0-1.4-1.4c0-1.2,0-1.2,1.2-1.2C80,41.3,80,41.3,80,42.7z"/>
	<path class="st0" d="M78.7,36.1c1.3,0,1.3,0,1.3,1.3c0,1.3,0,1.3-1.3,1.3c-1.3,0-1.3,0-1.3-1.3C77.4,36.1,77.4,36.1,78.7,36.1z"/>
	<path class="st0" d="M51.6,2.6c0.7,0,1.4,0,2.1,0c0.4,0,0.5,0.1,0.5,0.5c0,2.1,0.1,2.1-2,2.1c-0.2,0-0.4,0-0.6,0l0,0
		C51.6,4.3,51.6,3.4,51.6,2.6L51.6,2.6z"/>
	<path class="st0" d="M51.6,5.2c0,0.7,0,1.4,0,2.1c0,0.4-0.1,0.5-0.5,0.5c-2.1,0-2.1,0.1-2.1-2c0-0.2,0-0.4,0-0.6l0,0
		C49.9,5.2,50.8,5.2,51.6,5.2L51.6,5.2z"/>
	<path class="st0" d="M2.6,55.5c0,1.2,0,1.2-1.3,1.2c-1.3,0-1.3,0-1.3-1.3c0-1.2,0-1.2,1.3-1.2C2.6,54.2,2.6,54.2,2.6,55.5z"/>
	<path class="st0" d="M78.8,56.8c-1.4,0-1.4,0-1.4-1.4c0-1.2,0-1.2,1.2-1.2c1.4,0,1.4,0,1.4,1.4C80,56.8,80,56.8,78.8,56.8z"/>
	<path class="st0" d="M18.1,64.5c0-0.7,0-1.4,0-2.1c0-0.4,0.1-0.5,0.5-0.5c2.1,0,2.1-0.1,2.1,2c0,0.2,0,0.4,0,0.6l0,0
		C19.8,64.5,18.9,64.5,18.1,64.5L18.1,64.5z"/>
	<path class="st0" d="M18.1,67.1c-0.7,0-1.4,0-2.1,0c-0.4,0-0.5-0.1-0.5-0.5c0-2.1-0.1-2.1,2-2.1c0.2,0,0.4,0,0.6,0l0,0
		C18.1,65.4,18.1,66.2,18.1,67.1L18.1,67.1z"/>
	<path class="st0" d="M20.6,64.5c0.7,0,1.4,0,2.1,0c0.4,0,0.5,0.1,0.5,0.5c0,2.1,0.1,2.1-2,2.1c-0.2,0-0.4,0-0.6,0l0,0
		C20.7,66.2,20.7,65.4,20.6,64.5L20.6,64.5z"/>
	<path class="st0" d="M55.5,68.4c0-0.7,0-1.4,0-2.1c0-0.4,0.1-0.5,0.5-0.5c2.1,0,2.1-0.1,2.1,2c0,0.2,0,0.4,0,0.6l0,0
		C57.2,68.4,56.3,68.4,55.5,68.4L55.5,68.4z"/>
	<path class="st0" d="M20.6,67.1c0,0.7,0,1.4,0,2.1c0,0.4-0.1,0.5-0.5,0.5c-2.1,0-2.1,0.1-2.1-2c0-0.2,0-0.4,0-0.6l0,0
		C18.9,67.1,19.8,67.1,20.6,67.1L20.6,67.1z"/>
	<path class="st0" d="M55.5,71c-0.7,0-1.4,0-2.1,0c-0.4,0-0.5-0.1-0.5-0.5c0-2.1-0.1-2.1,2-2.1c0.2,0,0.4,0,0.6,0l0,0
		C55.5,69.2,55.5,70.1,55.5,71L55.5,71z"/>
	<path class="st0" d="M58.1,68.4c0.7,0,1.4,0,2.1,0c0.4,0,0.5,0.1,0.5,0.5c0,2.1,0.1,2.1-2,2.1c-0.2,0-0.4,0-0.6,0l0,0
		C58.1,70.1,58.1,69.2,58.1,68.4L58.1,68.4z"/>
	<path class="st0" d="M58.1,71c0,0.7,0,1.4,0,2.1c0,0.4-0.1,0.5-0.5,0.5c-2.1,0-2.1,0.1-2.1-2c0-0.2,0-0.4,0-0.6l0,0
		C56.3,71,57.2,71,58.1,71L58.1,71z"/>
	<path class="st0" d="M33.6,74.8c0-0.7,0-1.4,0-2.1c0-0.4,0.1-0.5,0.5-0.5c2.1,0,2.1-0.1,2.1,2c0,0.2,0,0.4,0,0.6l0,0
		C35.3,74.8,34.4,74.8,33.6,74.8L33.6,74.8z"/>
	<path class="st0" d="M33.6,77.4c-0.7,0-1.4,0-2.1,0c-0.4,0-0.5-0.1-0.5-0.5c0-2.1-0.1-2.1,2-2.1c0.2,0,0.4,0,0.6,0l0,0
		C33.5,75.7,33.5,76.6,33.6,77.4L33.6,77.4z"/>
	<path class="st0" d="M36.1,74.8c0.7,0,1.4,0,2.1,0c0.4,0,0.5,0.1,0.5,0.5c0,2.1,0.1,2.1-2,2.1c-0.2,0-0.4,0-0.6,0l0,0
		C36.1,76.6,36.1,75.7,36.1,74.8L36.1,74.8z"/>
	<path class="st0" d="M36.1,77.4c0,0.7,0,1.4,0,2.1c0,0.4-0.1,0.5-0.5,0.5c-2.1,0-2.1,0.1-2.1-2c0-0.2,0-0.4,0-0.6l0,0
		C34.4,77.4,35.3,77.4,36.1,77.4L36.1,77.4z"/>
	<path class="st0" d="M33.5,40c0-2.8,0-5.5,0-8.3c0-0.6,0.1-0.8,0.7-0.7c0.9,0.1,1.8,0,2.7,0c0.4,0,0.6-0.1,0.5-0.5
		c0-0.1,0-0.2,0-0.3c0-0.6-0.2-1.4,0.1-1.6c0.6-0.3,1.5-0.1,2.2-0.1c0.3,0,0.2,0.3,0.3,0.5c0,0.7-0.2,1.5,0.1,2
		c0.3,0.4,1.2,0.1,1.8,0.2c2,0.3,3.4,1.4,4.1,3.3c0.7,1.9,0.4,3.7-0.9,5.2c-0.3,0.4-0.4,0.6,0,1c1.4,1.7,1.7,3.6,0.8,5.6
		c-0.9,2-2.6,2.9-4.8,3c-0.2,0-0.4,0-0.6,0c-0.5-0.1-0.6,0.1-0.6,0.6c0,0.6,0.3,1.5-0.1,1.8c-0.4,0.3-1.3,0.1-1.9,0.1
		c-0.4,0-0.6-0.1-0.5-0.5c0-0.1,0-0.1,0-0.2c-0.1-0.6,0.3-1.5-0.2-1.8c-0.4-0.3-1.2-0.1-1.8-0.1c-1.9,0-1.9,0-1.9-1.9
		C33.5,44.8,33.5,42.4,33.5,40z M39.1,33.5c-0.8,0-1.6,0-2.4,0c-0.4,0-0.6,0-0.6,0.5c0,1.4,0,2.8,0,4.2c0,0.4,0.1,0.5,0.5,0.5
		c1.6,0,3.2,0,4.7,0c1.4,0,2.5-1.2,2.5-2.5c0-1.4-1.1-2.6-2.5-2.6C40.6,33.5,39.9,33.6,39.1,33.5z M39,46.5C39,46.4,39,46.4,39,46.5
		c0.8,0,1.6,0,2.4,0c1.4-0.1,2.5-1.2,2.5-2.6c0-1.4-1.1-2.5-2.5-2.6c-1.6,0-3.2,0-4.7,0c-0.4,0-0.5,0.2-0.5,0.6c0,1.4,0,2.7,0,4.1
		c0,0.4,0.2,0.5,0.6,0.5C37.5,46.4,38.2,46.5,39,46.5z"/>
	<g>
		<path class="st1" d="M58.3,33.6c0.1,0.9,0.5,1.7,0.6,2.5c-0.5,0-1,0-1.4,0c-2.1,0-2.1,0-2,2.1c0,0.4,0.1,0.5,0.5,0.5
			c1.1,0,2.2,0,3.4,0c0,0.8,0,1.7,0,2.5c-0.6,0-1.3,0-1.9,0c-2,0-2,0-2,2c0,0.5,0.2,0.6,0.7,0.6c0.9,0,1.9,0,2.8,0
			c0,0.9-0.5,1.7-0.6,2.5c-0.7,0-1.3,0.1-2,0c-0.6-0.1-0.9,0.2-1.2,0.7c-3.1,6-8.1,9.3-14.8,9.6c-4,0.2-7.5-1.1-10.7-3.6
			c-0.4-0.3-0.6-0.5-1,0c-0.4,0.5-0.8,1-1.3,1.5c-0.7-0.6-1.4-1.2-1.9-2c0.5-0.4,1-0.9,1.5-1.3c0.3-0.2,0.4-0.4,0.1-0.8
			c-1-1.1-1.7-2.4-2.3-3.7c-0.2-0.4-0.4-0.5-0.7-0.5c-0.8,0-1.6,0-2.3,0c-0.1-0.9-0.5-1.7-0.6-2.5c0.5,0,1,0,1.5,0c2,0,2,0,1.9-2
			c0-0.5-0.1-0.6-0.6-0.6c-1.1,0-2.2,0-3.3,0c0-0.8,0-1.7,0-2.5c0.6,0,1.3,0,1.9,0c2,0,2,0,2-2c0-0.5-0.2-0.6-0.7-0.6
			c-0.9,0-1.9,0-2.8,0c0.1-0.9,0.5-1.7,0.6-2.5c0.7,0,1.3-0.1,2,0c0.6,0.1,0.9-0.2,1.2-0.7c3.1-6.1,8.1-9.4,15-9.6
			c3.9-0.1,7.4,1.2,10.5,3.6c0.4,0.3,0.6,0.5,1,0c0.4-0.5,0.8-1,1.3-1.5c0.7,0.6,1.4,1.2,1.9,2c-0.5,0.4-1,0.9-1.5,1.3
			c-0.3,0.2-0.4,0.4-0.1,0.8c1,1.1,1.7,2.4,2.3,3.7c0.2,0.4,0.4,0.5,0.7,0.5C56.8,33.5,57.6,33.6,58.3,33.6z M33.5,40
			c0,2.4,0,4.8,0,7.2c0,1.9,0,1.9,1.9,1.9c0.6,0,1.4-0.2,1.8,0.1c0.4,0.4,0.1,1.2,0.2,1.8c0,0.1,0,0.1,0,0.2
			c-0.1,0.4,0.1,0.5,0.5,0.5c0.7,0,1.5,0.2,1.9-0.1c0.4-0.3,0.1-1.2,0.1-1.8c0-0.5,0.1-0.7,0.6-0.6c0.2,0,0.4,0,0.6,0
			c2.2,0,3.8-1,4.8-3c0.9-2,0.6-3.9-0.8-5.6c-0.4-0.4-0.3-0.6,0-1c1.3-1.5,1.6-3.3,0.9-5.2c-0.7-1.9-2.2-2.9-4.1-3.3
			c-0.6-0.1-1.5,0.3-1.8-0.2c-0.3-0.4-0.1-1.3-0.1-2c0-0.2,0.1-0.5-0.3-0.5c-0.7,0-1.6-0.2-2.2,0.1c-0.4,0.1-0.1,1-0.1,1.6
			c0,0.1,0,0.2,0,0.3c0.1,0.4-0.1,0.6-0.5,0.5c-0.9,0-1.8,0-2.7,0c-0.6,0-0.7,0.2-0.7,0.7C33.6,34.4,33.5,37.2,33.5,40z"/>
		<path class="st1" d="M39.1,33.6c0.8,0,1.5,0,2.3,0c1.4,0,2.5,1.2,2.5,2.6c0,1.4-1.1,2.5-2.5,2.5c-1.6,0-3.2,0-4.7,0
			c-0.4,0-0.5-0.1-0.5-0.5c0-1.4,0-2.8,0-4.2c0-0.5,0.2-0.5,0.6-0.5C37.5,33.6,38.3,33.5,39.1,33.6z"/>
		<path class="st1" d="M39,46.5c-0.8,0-1.6,0-2.3,0c-0.4,0-0.6-0.1-0.6-0.5c0-1.4,0-2.7,0-4.1c0-0.4,0.1-0.6,0.5-0.6
			c1.6,0,3.2,0,4.7,0c1.4,0,2.5,1.2,2.5,2.6c0,1.4-1.1,2.5-2.5,2.6C40.6,46.5,39.8,46.4,39,46.5C39,46.4,39,46.4,39,46.5z"/>
	</g>
</g>
</svg>
