<?xml version="1.0" encoding="utf-8"?>
<!-- Generator: Adobe Illustrator 19.2.1, SVG Export Plug-In . SVG Version: 6.00 Build 0)  -->
<svg version="1.1" id="Слой_1" xmlns="http://www.w3.org/2000/svg" xmlns:xlink="http://www.w3.org/1999/xlink" x="0px" y="0px"
	 viewBox="0 0 50 50" style="enable-background:new 0 0 50 50;" xml:space="preserve">
<style type="text/css">
	.st0{fill:#261449;}
</style>
<g>
	<path class="st0" d="M3,25C3,12.9,12.9,3,25,3s22,9.9,22,22s-9.9,22-22,22S3,37.1,3,25 M0,25c0,13.8,11.2,25,25,25s25-11.2,25-25
		S38.8,0,25,0C11.2,0,0,11.2,0,25L0,25z"/>
</g>
<g>
	<g>
		<path class="st0" d="M31.5,17.1C31.5,17.1,31.5,17.2,31.5,17.1c0,1,0,2,0,3c0,0.1,0,0.2,0,0.3l0,0c-2.1,2.1-4.3,4.3-6.4,6.4l0,0
			l0,0l0,0c-1.8-1.8-3.6-3.6-5.4-5.4c-0.3-0.3-0.7-0.7-1-1c0-1.1,0-2.2,0-3.3l0,0l0,0c2.1,2.1,4.3,4.2,6.4,6.4c0,0,0,0,0.1,0
			C27.2,21.4,29.3,19.3,31.5,17.1C31.5,17.2,31.5,17.1,31.5,17.1z"/>
	</g>
	<g>
		<path class="st0" d="M31.5,23.1C31.5,23.1,31.5,23.2,31.5,23.1c0,1,0,2,0,3c0,0.1,0,0.2,0,0.3l0,0c-2.1,2.1-4.3,4.3-6.4,6.4l0,0
			l0,0l0,0c-1.8-1.8-3.6-3.6-5.4-5.4c-0.3-0.3-0.7-0.7-1-1c0-1.1,0-2.2,0-3.3l0,0l0,0c2.1,2.1,4.3,4.2,6.4,6.4c0,0,0,0,0.1,0
			C27.2,27.4,29.3,25.3,31.5,23.1C31.5,23.2,31.5,23.1,31.5,23.1z"/>
	</g>
</g>
</svg>
