<?xml version="1.0" encoding="utf-8"?>
<!-- Generator: Adobe Illustrator 19.2.1, SVG Export Plug-In . SVG Version: 6.00 Build 0)  -->
<svg version="1.1" id="Layer_1" xmlns="http://www.w3.org/2000/svg" xmlns:xlink="http://www.w3.org/1999/xlink" x="0px" y="0px"
	 viewBox="0 0 80 80" style="enable-background:new 0 0 80 80;" xml:space="preserve">
<style type="text/css">
	.st0{fill:#4EE482;}
	.st1{fill:#261449;}
</style>
<g>
	<path class="st0" d="M7.5,12.9c-1,0.1-1,0.1-1,1.3c0,1.3,0,1.3,1,1.4c-0.5,1.6-2.2,2.7-3.9,2.5c-1.7-0.1-3.2-1.6-3.5-3.3
		c-0.3-1.7,0.7-3.5,2.3-4.1C4.4,9.8,6.8,10.8,7.5,12.9z"/>
	<path class="st0" d="M7.5,25.8c-1,0.1-1,0.1-1,1.3c0,1.3,0,1.3,1,1.4C7,30.1,5.3,31.1,3.5,31c-1.7-0.1-3.2-1.6-3.5-3.3
		c-0.3-1.7,0.7-3.5,2.3-4.1C4.4,22.7,6.8,23.7,7.5,25.8z"/>
	<path class="st0" d="M7.5,38.7c-1,0.1-1,0.1-1,1.3c0,1.3,0,1.3,1,1.4C7,43,5.3,44,3.5,43.9c-1.7-0.1-3.2-1.6-3.5-3.3
		c-0.3-1.7,0.7-3.5,2.3-4.1C4.4,35.6,6.8,36.6,7.5,38.7z"/>
	<path class="st0" d="M72.5,15.5c1-0.1,0.9-0.1,1-1.8c0.1-0.9-0.4-0.9-1-0.9c0.6-1.7,2.4-2.8,4.2-2.5c1.9,0.3,3.3,2,3.3,3.8
		c0,1.9-1.4,3.5-3.3,3.8C75,18.4,73.1,17.3,72.5,15.5z"/>
	<path class="st0" d="M72.5,28.4c1-0.1,0.9-0.1,1-1.8c0.1-0.9-0.4-0.9-1-0.9c0.6-1.7,2.4-2.8,4.2-2.5c1.9,0.3,3.3,2,3.3,3.8
		c0,1.9-1.4,3.5-3.3,3.8C75,31.3,73.1,30.2,72.5,28.4z"/>
	<path class="st0" d="M72.5,41.3c1-0.1,0.9-0.1,1-1.8c0.1-0.9-0.4-0.9-1-0.9c0.6-1.7,2.4-2.8,4.2-2.5c1.9,0.3,3.3,2,3.3,3.8
		c0,1.9-1.4,3.5-3.3,3.8C75,44.2,73.1,43.1,72.5,41.3z"/>
	<path class="st0" d="M20.4,17.3c0.4-0.7,0.9-1.5,1.3-2.2c0.2-0.3,0.4-0.5,0.6-0.8c2.2-3,4.9-5.3,8.2-6.9c2.6-1.3,5.3-1.9,8.2-2.2
		c0.9,0,1.7,0,2.6,0c0.3,0,0.6,0.1,1,0.1c4.7,0.5,8.7,2.3,12.2,5.3c1.5,1.3,2.7,2.8,3.9,4.4c0.4,0.7,0.9,1.5,1.3,2.2
		c0.1,0.2,0.1,0.4,0.2,0.6c1.8,4.1,2.5,8.3,1.8,12.8c-0.4,2.2-1.1,4.3-2,6.3c-0.4,0.7-0.9,1.5-1.3,2.2c-0.2,0.3-0.5,0.6-0.7,0.9
		c-2.2,3-5,5.3-8.4,6.8c-2.5,1.2-5.2,1.8-8,2.1c-0.9,0-1.7,0-2.6,0c-0.3,0-0.6-0.1-1-0.1c-4.1-0.4-7.8-1.9-11.1-4.4
		c-2-1.5-3.5-3.3-5-5.3c-0.4-0.7-0.9-1.5-1.3-2.2c-0.1-0.2-0.1-0.4-0.2-0.5c-1.9-4.1-2.5-8.4-1.8-12.8
		C18.7,21.4,19.5,19.3,20.4,17.3z M33.6,27.1c0,4.1,0,8.2,0,12.3c0,0.6-0.2,1.4,0.1,1.8c0.3,0.4,1.2,0.1,1.8,0.1
		c0.6,0,0.7,0.1,0.7,0.7c0,1.9,0,1.9,1.9,1.9c0.6,0,0.7-0.2,0.7-0.7c0-1.9,0-1.9,1.9-1.9c0.5,0,0.7,0.2,0.7,0.7c0,2,0,2,2,1.9
		c0.4,0,0.6-0.1,0.5-0.5c0-0.6,0-1.1,0-1.7c-0.1-0.6,0.2-0.9,0.7-1.1c5.1-2.4,6-9.3,1.7-12.9c-0.5-0.4-0.6-0.6,0-1
		c4.3-3.5,3.6-10.2-1.3-12.7c-0.8-0.4-1.1-0.9-1-1.7c0.1-1.8,0-1.7-1.8-1.8c-0.6,0-0.8,0.1-0.8,0.8c0,1.8,0,1.8-1.8,1.8
		c-0.7,0-0.8-0.2-0.8-0.8c0-1.8,0-1.8-1.8-1.8c-0.7,0-0.8,0.2-0.8,0.8c0,1.8,0,1.8-1.8,1.8c-0.6,0-0.8,0.1-0.8,0.8
		C33.6,18.1,33.6,22.6,33.6,27.1z M53,25.8c-1.4,0-1.4,0-1.4,1.4c0,1.2,0,1.2,1.2,1.2c1.4,0,1.4,0,1.4-1.4
		C54.2,25.8,54.2,25.8,53,25.8z M25.8,27.1c0,1.4,0,1.4,1.4,1.4c1.2,0,1.2,0,1.2-1.2c0-1.4,0-1.4-1.4-1.4
		C25.8,25.8,25.8,25.8,25.8,27.1z"/>
	<g>
		<path class="st1" d="M72.5,28.4c-1.7,0-3.4,0-5.1,0c-0.4,0-0.5,0.1-0.5,0.5c0,0.6-0.1,1.2-0.2,1.8c0,0.3,0,0.3,0.3,0.4
			c2.7,0.4,3.8,1.7,3.8,4.5c0,0.6,0,1.2,0,1.8c0,1,0.5,1.5,1.6,1.4c0.6,0,1.1-0.1,1,0.9c-0.1,1.7,0,1.7-1,1.8
			c-2.8-0.2-4.1-1.6-4.2-4.5c0-0.6,0-1.3,0-1.9c0-1-1-1.7-1.9-1.4c-0.2,0.1-0.3,0.3-0.3,0.4c-1.3,4.9-3.8,9-7.4,12.6
			c1.1,0.5,2.2,1,3.2,1.5c1.4,0.7,2.6,1.5,3.6,2.6c1,1.1,1.5,2.3,1.5,3.8c0,4.9,0,9.7,0,14.6c0,2-0.7,3.5-2.2,4.8
			c-1.9,1.7-4.2,2.7-6.6,3.5c-7.1,2.2-14.3,2.8-21.7,2.5c-5-0.2-10-0.9-14.8-2.5c-2.1-0.7-4.1-1.5-5.9-2.8c-2-1.5-3.1-3.3-3-5.9
			c0.1-4.6,0.1-9.3,0-13.9c0-1.9,0.7-3.3,2-4.6c1.6-1.5,3.5-2.4,5.4-3.2c0.3-0.1,0.5-0.2,0.9-0.4c-0.6-0.7-1.2-1.2-1.7-1.9
			c-2.6-3-4.5-6.5-5.5-10.3c-0.2-0.6-0.3-1-1.1-0.9c-0.7,0.1-1.2,0.5-1.3,1.2c0,0.7,0,1.4,0,2.1c0,2.8-1.4,4.3-4.2,4.5
			c-1-0.1-1-0.1-1-1.4c0-1.2,0-1.2,1-1.3c1.1,0,1.6-0.4,1.6-1.4c0-0.8,0-1.6,0-2.4c0-2,1.5-3.7,3.6-3.8c0.5,0,0.7-0.1,0.5-0.6
			c0-0.1,0-0.2,0-0.2c-0.1-0.6,0.2-1.4-0.3-1.6c-0.4-0.3-1.1-0.1-1.7-0.1c-1.2,0-2.4,0-3.6,0c-1-0.1-1-0.1-1-1.4c0-1.2,0-1.2,1-1.3
			c1.7,0,3.4,0,5.1,0c0.4,0,0.5-0.1,0.5-0.5c0-0.6,0.1-1.2,0.2-1.8c0-0.3,0-0.3-0.3-0.4C10.2,22.8,9,21.5,9,18.8c0-0.6,0-1.2,0-1.8
			c0-1-0.5-1.5-1.6-1.4c-1-0.1-1-0.1-1-1.4c0-1.2,0-1.2,1-1.3c2.8,0.2,4.1,1.6,4.2,4.5c0,0.7,0,1.3,0,2c0,1.1,0.9,1.4,1.9,1.3
			c0.3,0,0.3-0.4,0.3-0.7c2.8-9.4,8.8-15.8,18.2-18.8c14.5-4.6,29.8,3.9,34,18.5c0.2,0.6,0.3,1,1.1,0.9c0.7-0.1,1.2-0.5,1.3-1.2
			c0-0.7,0-1.4,0-2.1c0-2.8,1.4-4.3,4.2-4.5c0.6,0,1.1-0.1,1,0.9c-0.1,1.7,0,1.7-1,1.8C71.5,15.5,71,16,71,17c0,0.8,0,1.6,0,2.4
			c0,2-1.6,3.7-3.6,3.8c-0.5,0-0.7,0.1-0.5,0.6c0,0.1,0,0.2,0,0.2c0.1,0.6-0.2,1.3,0.3,1.7c0.4,0.3,1.1,0.1,1.7,0.1
			c1.2,0,2.5,0,3.7,0c0.6,0,1.1-0.1,1,0.9C73.5,28.4,73.6,28.4,72.5,28.4z M58.4,15c0.6-0.3,1.1-0.7,1.7-1c0.4-0.2,0.5-0.4,0.2-0.8
			C55.9,7.2,50.1,3.7,42.7,2.8c-1.4-0.2-1.4-0.1-1.4,1.3c0,0.4,0,0.8,0,1.1c-0.9,0-1.7,0-2.6,0c0-0.1,0-0.2,0-0.3
			c0-0.7,0.3-1.7-0.1-2.1c-0.4-0.3-1.4,0-2.1,0.1c-6.8,1-12.3,4.4-16.4,9.9c-0.7,0.9-0.6,0.9,0.3,1.5c0.4,0.2,0.8,0.5,1.2,0.7
			c-0.4,0.7-0.9,1.5-1.3,2.2c-0.5-0.3-1-0.6-1.5-0.9c-0.5-0.3-0.7-0.3-1,0.3c-3.1,6.8-3.2,13.6-0.2,20.4c0.5,1.2,0.5,1.2,1.7,0.5
			c0.3-0.2,0.7-0.4,1-0.6c0.4,0.7,0.9,1.5,1.3,2.2c-0.6,0.3-1.1,0.7-1.7,1c-0.4,0.2-0.5,0.4-0.2,0.8C24.1,47,30,50.5,37.4,51.5
			c1.4,0.2,1.4,0.1,1.4-1.3c0-0.4,0-0.8,0-1.1c0.9,0,1.7,0,2.6,0c0,0.1,0,0.3,0,0.4c0,0.7-0.3,1.7,0.1,2c0.4,0.3,1.3,0,2-0.1
			c6.8-1,12.3-4.4,16.4-9.9c0.7-1,0.7-1-0.3-1.6c-0.4-0.2-0.8-0.5-1.2-0.7c0.4-0.7,0.9-1.5,1.3-2.2c0.5,0.3,1.1,0.6,1.6,0.9
			c0.4,0.3,0.6,0.3,0.9-0.3c3.1-6.8,3.2-13.7,0.2-20.5c-0.5-1.1-0.5-1.1-1.6-0.5c-0.4,0.2-0.7,0.4-1.1,0.7
			C59.2,16.5,58.8,15.8,58.4,15z M54.1,50.2c0.7,0.2,1.3,0.3,1.9,0.5c1.3,0.4,2.6,0.8,3.7,1.7c1.3,1.1,1.3,2.5,0,3.6
			c-0.6,0.5-1.2,0.8-1.9,1.1c-1.1,0.4-2.2,0.8-3.4,1c-5.6,1.1-11.2,1.4-16.9,1.2c-4.5-0.1-9-0.4-13.4-1.6c-1.3-0.3-2.6-0.8-3.7-1.6
			c-1.6-1.2-1.6-2.8,0.1-4c0.6-0.5,1.4-0.8,2.1-1c1-0.4,2.1-0.6,3.2-0.9c-0.8-0.5-1.4-1-2.1-1.5c-0.2-0.1-0.3-0.1-0.5,0
			c-2.3,0.7-4.5,1.6-6.4,3.1c-1.8,1.5-1.8,3.1-0.1,4.6c1.7,1.5,3.8,2.4,5.9,3c4.5,1.5,9.1,2.1,13.8,2.3c6.6,0.3,13-0.1,19.4-1.8
			c2.6-0.7,5.2-1.6,7.4-3.4C65,55,65,53.3,63,51.8c-1.9-1.5-4-2.3-6.2-3c-0.2-0.1-0.4-0.1-0.5,0C55.6,49.2,54.9,49.7,54.1,50.2z
			 M57.9,54.3c-0.4-0.3-0.7-0.4-1-0.6c-1.7-0.7-3.5-1-5.3-1.3c-0.7-0.1-1.3-0.3-2.1,0c-6.3,2.4-12.7,2.4-19,0
			c-0.4-0.2-0.8-0.2-1.3-0.1c-1.2,0.2-2.4,0.4-3.6,0.6c-1.2,0.3-2.4,0.5-3.5,1.2c0.3,0.3,0.6,0.4,0.9,0.5c2.7,1,5.5,1.4,8.3,1.6
			c7.1,0.7,14.3,0.6,21.4-0.6C54.5,55.5,56.2,55.1,57.9,54.3z M49,71.7c-2.5,0.3-4.9,0.5-7.3,0.5c-0.3,0-0.4,0-0.4,0.4
			c0,1.5,0,2.9,0,4.4c0,0.4,0.2,0.4,0.5,0.4c2.3-0.1,4.6-0.2,6.8-0.5c0.3,0,0.4-0.1,0.4-0.4C49,74.9,49,73.3,49,71.7z M49,66.6
			c0-0.7,0-1.3,0-2c0-0.6-0.2-0.6-0.7-0.6c-2.2,0.3-4.4,0.4-6.6,0.5c-0.5,0-0.5,0.2-0.5,0.6c0,1.3,0,2.7,0,4c0,0.5,0.1,0.6,0.6,0.6
			c1.7-0.1,3.5-0.2,5.2-0.3c1.9-0.2,1.9-0.2,1.9-2.1C49,67,49,66.8,49,66.6z M38.7,74.9c0-0.7,0-1.5,0-2.2c0-0.4-0.1-0.4-0.5-0.5
			c-2.3-0.1-4.5-0.2-6.7-0.5c-0.4,0-0.6,0-0.6,0.5c0,1.4,0,2.7,0,4.1c0,0.4,0.1,0.6,0.5,0.6c2.2,0.2,4.4,0.4,6.7,0.5
			c0.4,0,0.6-0.1,0.6-0.5C38.7,76.2,38.7,75.6,38.7,74.9z M31,66.5c0,0.7,0,1.4,0,2.1c0,0.4,0.1,0.6,0.5,0.6
			c2.2,0.2,4.5,0.4,6.7,0.5c0.4,0,0.5-0.1,0.5-0.5c0-1.4,0-2.8,0-4.2c0-0.3,0-0.5-0.4-0.5c-2.3-0.1-4.6-0.2-6.8-0.5
			C31,64,31,64.2,31,64.5C31,65.2,31,65.8,31,66.5z M20.7,61.6c0,1.6,0,3.1,0,4.5c0,0.4,0.1,0.5,0.4,0.6c2.4,0.9,4.8,1.5,7.3,2
			c0-1.6,0-3.1,0-4.7c0-0.3-0.1-0.5-0.4-0.5C25.5,63.1,23.1,62.5,20.7,61.6z M59.4,61.6c-2.5,0.9-4.9,1.5-7.3,1.9
			c-0.3,0.1-0.4,0.2-0.4,0.5c0,1.6,0,3.1,0,4.7c2.5-0.5,5-1.1,7.3-2c0.3-0.1,0.4-0.3,0.4-0.6C59.3,64.6,59.4,63.2,59.4,61.6z
			 M20.7,69.3c0,1.5,0,2.9,0,4.3c0,0.5,0.2,0.7,0.6,0.9c2.3,0.9,4.6,1.4,7.1,1.9c0-1.3,0-2.6,0-4c0-1.2,0-1.2-1.1-1.4
			c-0.4-0.1-0.7-0.2-1.1-0.2C24.3,70.5,22.5,70,20.7,69.3z M59.4,69.3c-2.4,0.9-4.9,1.5-7.3,1.9c-0.2,0-0.4,0.1-0.4,0.4
			c0,1.6,0,3.2,0,4.8c2.5-0.5,4.9-1,7.2-1.9c0.2-0.1,0.6-0.1,0.6-0.5C59.3,72.4,59.4,70.9,59.4,69.3z M64.4,58.9
			c-0.8,0.6-1.6,1.1-2.4,1.5c-0.1,0.1-0.1,0.2-0.1,0.4c0,1.5,0,2.9,0,4.4C64.8,63.9,64.7,61.4,64.4,58.9z M15.5,66.6
			c-0.1,4,0.6,5.6,2.6,6.2c0-1.4,0-2.7,0-4.1c0-0.3,0.1-0.5-0.3-0.7C17,67.6,16.3,67.1,15.5,66.6z M61.9,72.9c2.4-1.2,3-2.8,2.5-6.2
			c-0.7,0.4-1.3,0.9-2,1.2c-0.3,0.2-0.5,0.4-0.5,0.8C62,70.1,61.9,71.4,61.9,72.9z M15.5,58.9c-0.1,4,0.5,5.5,2.6,6.2
			c0-1.4,0-2.7,0-4.1c0-0.3,0-0.5-0.3-0.7C17,59.8,16.3,59.4,15.5,58.9z"/>
		<path class="st1" d="M33.6,27.1c0-4.5,0-8.9,0-13.4c0-0.7,0.2-0.8,0.8-0.8c1.8,0,1.8,0,1.8-1.8c0-0.7,0.2-0.9,0.8-0.8
			c1.8,0,1.8,0,1.8,1.8c0,0.6,0.1,0.8,0.8,0.8c1.8,0,1.8,0,1.8-1.8c0-0.7,0.2-0.8,0.8-0.8c1.8,0,1.8,0,1.8,1.8c0,0.9,0.2,1.3,1,1.7
			c4.9,2.5,5.6,9.2,1.3,12.7c-0.6,0.5-0.5,0.6,0,1c4.4,3.6,3.5,10.5-1.7,12.9c-0.6,0.3-0.8,0.5-0.7,1.1c0.1,0.6,0,1.1,0,1.7
			c0,0.4-0.1,0.5-0.5,0.5c-2,0.1-2,0.1-2-1.9c0-0.5-0.1-0.7-0.7-0.7c-1.9,0-1.9,0-1.9,1.9c0,0.5-0.1,0.7-0.7,0.7
			c-1.9,0-1.9,0-1.9-1.9c0-0.6-0.2-0.7-0.7-0.7c-0.6,0-1.4,0.3-1.8-0.1c-0.3-0.4-0.1-1.2-0.1-1.8C33.6,35.3,33.6,31.2,33.6,27.1z
			 M36.1,33.6c0,1.5,0,3,0,4.5c0,0.5,0.1,0.6,0.6,0.6c1.5,0,3.1,0,4.6,0c2.8,0,5.1-2.3,5.1-5.1c0-2.8-2.3-5.1-5.1-5.2
			c-1.5,0-3.1,0-4.6,0c-0.6,0-0.7,0.2-0.6,0.7C36.2,30.6,36.1,32.1,36.1,33.6z M36.1,20.6c0,1.5,0,3.1,0,4.6c0,0.5,0.1,0.6,0.6,0.6
			c1.5,0,3.1,0,4.6,0c2.8,0,5.1-2.3,5.1-5.2c0-2.8-2.3-5.1-5.1-5.2c-1.5,0-3.1,0-4.6,0c-0.5,0-0.6,0.1-0.6,0.6
			C36.2,17.6,36.1,19.1,36.1,20.6z"/>
		<path class="st1" d="M53,25.8c1.2,0,1.2,0,1.2,1.2c0,1.4,0,1.4-1.4,1.4c-1.2,0-1.2,0-1.2-1.2C51.6,25.8,51.6,25.8,53,25.8z"/>
		<path class="st1" d="M25.8,27.1c0-1.2,0-1.2,1.2-1.2c1.4,0,1.4,0,1.4,1.4c0,1.2,0,1.2-1.2,1.2C25.8,28.4,25.8,28.4,25.8,27.1z"/>
	</g>
	<path class="st0" d="M36.1,33.6c0-1.5,0-3,0-4.5c0-0.5,0.1-0.7,0.6-0.7c1.5,0,3.1,0,4.6,0c2.8,0,5.1,2.3,5.1,5.2
		c0,2.8-2.3,5.1-5.1,5.1c-1.5,0-3.1,0-4.6,0c-0.5,0-0.6-0.2-0.6-0.6C36.2,36.6,36.1,35.1,36.1,33.6z"/>
	<path class="st0" d="M36.1,20.6c0-1.5,0-3,0-4.5c0-0.5,0.2-0.6,0.6-0.6c1.5,0,3.1,0,4.6,0c2.8,0,5.1,2.3,5.1,5.2
		c0,2.8-2.3,5.1-5.1,5.2c-1.5,0-3.1,0-4.6,0c-0.5,0-0.6-0.1-0.6-0.6C36.2,23.7,36.1,22.2,36.1,20.6z"/>
</g>
</svg>
