<?xml version="1.0" encoding="utf-8"?>
<!-- Generator: Adobe Illustrator 19.2.1, SVG Export Plug-In . SVG Version: 6.00 Build 0)  -->
<svg version="1.1" id="Layer_1" xmlns="http://www.w3.org/2000/svg" xmlns:xlink="http://www.w3.org/1999/xlink" x="0px" y="0px"
	 viewBox="0 0 80 80" style="enable-background:new 0 0 80 80;" xml:space="preserve">
<style type="text/css">
	.st0{fill:#261449;}
	.st1{fill:#4EE482;}
</style>
<g>
	<path class="st0" d="M22.3,38.4c-9.2-10.7-6.1-25.7,2.8-33C34-1.9,46.7-1.8,55.5,5.9c8.5,7.4,11.2,21.8,2.2,32.5
		c1.1,0.4,2.2,0.8,3.3,1.2c3.8,1.3,6.2,4.7,6.2,8.6c0,1,0,2,0,3c0,0.5,0.2,0.6,0.6,0.6c5.7,0.9,9.7,4.1,11.6,9.6
		c2.9,8.3-2.8,17.4-11.6,18.5c-6.1,0.8-11.7-2.2-14.5-7.6c-0.1-0.1-0.2-0.3-0.3-0.5C50.1,77,45.9,80,40,80c-5.9,0-10.1-3-12.9-8.1
		c-0.3,0-0.3,0.3-0.3,0.4c-2.9,5.5-8.8,8.5-14.9,7.5C6,78.9,1.3,74.2,0.2,68.3c-1.4-7.8,4.2-15.6,12-16.5c0.6-0.1,0.7-0.3,0.7-0.8
		c0-1.6-0.2-3.3,0.2-4.9c0.8-3.2,2.8-5.4,5.9-6.6C20.1,39.1,21.2,38.7,22.3,38.4z M30.3,18.4c0.8-0.9,1.7-1.5,2.9-1.6
		c0.4,0,0.4-0.3,0.5-0.5c0.5-1.9,1.8-3.2,3.6-3.4c1.8-0.2,3.4,0.7,4.3,2.5c0.5,0.9,1.2,1.3,2.2,1.4c0.7,0,1.3,0,2,0
		c1.6-0.1,2.9,0.4,3.9,1.6c0,0.1,0.1,0.2,0.1,0.3c1.4,2.7-0.1,5.5-3.1,5.8c-0.4,0-0.5,0.2-0.6,0.5c-0.4,1.1-1.1,1.9-2,2.5
		c-0.2,0.2-0.6,0.2-0.6,0.7c0.1,0.4,0.4,0.4,0.7,0.5c4.2,1.3,6.9,4.1,8.2,8.3c0.2,0.7,0.3,1.5,0.5,2.2c6.3-4.9,9.6-14.1,6.6-22.8
		C56.4,7.6,47.8,2,38.7,2.6C29.3,3.2,21.6,10,19.7,19.3c-1.7,8.3,2.2,16.3,7.4,19.9c0.1-0.7,0.2-1.4,0.4-2c1.3-4.3,4-7.1,8.3-8.4
		c0.3-0.1,0.6-0.1,0.6-0.5c0.1-0.4-0.3-0.5-0.5-0.6c-1-0.6-1.7-1.5-2.1-2.6c-0.1-0.4-0.3-0.5-0.7-0.5c-1-0.1-1.9-0.5-2.6-1.3
		C29.4,21.7,29.4,20,30.3,18.4z M27.1,59.8c0.1-0.1,0.2-0.1,0.2-0.1c2.3-4.5,6-7.2,11-7.9c0.4-0.1,0.4-0.3,0.4-0.6
		c0-1.1,0-2.2,0-3.3c0-1.4,0-1.4-1.4-1.6c-0.1,0-0.2,0-0.3,0c-4.6-0.6-8.6-2.5-12.1-5.5c-0.3-0.3-0.6-0.4-1-0.2
		c-1.4,0.5-2.8,1-4.2,1.5c-2.2,0.9-3.6,2.5-4.1,4.9c-0.2,1.1-0.1,2.3-0.1,3.4c0,1.3,0,1.3,1.3,1.6C21.5,52.8,24.8,55.5,27.1,59.8z
		 M52.9,59.8c0.1-0.1,0.2-0.1,0.2-0.1c2.3-4.5,6-7.2,11-7.9c0.4-0.1,0.4-0.3,0.4-0.6c0-1,0-2,0-3c0-2.4-1.1-4.3-3.1-5.6
		c-1.1-0.7-2.5-0.9-3.7-1.5c-1.4-0.6-2.6-0.8-3.6,0.6c0,0-0.1,0.1-0.1,0.1c-3.6,2.6-7.5,4.2-11.9,4.6c-0.5,0-0.7,0.2-0.7,0.8
		c0.1,1.1,0,2.3,0,3.4c0,1.2,0,1.2,1.1,1.4c0.3,0.1,0.6,0.1,0.9,0.2C47.7,53.1,50.8,55.8,52.9,59.8z M4.6,72.2
		c1.3-1.9,3.1-3.3,5.2-4.2c-2.6-3.9-2.6-7,0.1-9.5c2.3-2.2,5.9-2.3,8.4-0.3c1.3,1,2,2.3,2.3,3.9c0.4,2.3-0.4,4.2-2,5.8
		c2.4,1.1,3.4,1.9,5.2,4.2c2.8-3.6,3-10.1-1.3-14.5c-4.3-4.4-11.4-4.6-16-0.5C1.8,61.3,1.6,68.1,4.6,72.2z M44.4,68
		c2.1,0.9,3.8,2.3,5.2,4.2c2.9-3.9,2.9-10.5-1.6-14.8c-4.6-4.3-11.6-4.3-16.1,0.1c-4.4,4.3-4.4,10.9-1.5,14.7c1.3-1.9,3-3.3,5.2-4.2
		c-2.7-3.7-2.6-7.1,0.1-9.6c2.4-2.2,6.1-2.2,8.5,0C47.1,60.8,47.2,64.2,44.4,68z M61.4,68c-2.7-3.7-2.6-7,0.1-9.5
		c2.4-2.2,6.1-2.3,8.6-0.1c2.8,2.5,2.9,5.8,0.2,9.6c2.1,0.9,3.8,2.3,5.2,4.2c2.9-3.9,2.9-10.6-1.6-14.8c-4.6-4.4-11.6-4.3-16.1,0.1
		c-4.4,4.3-4.3,10.9-1.5,14.7C57.5,70.3,59.3,68.9,61.4,68z M14.1,77.4c2.8,0,5.2-0.9,7.4-2.6c0.4-0.3,0.5-0.6,0.2-1.1
		c-3.5-5.4-11.6-5.4-15.1,0.1c-0.3,0.4-0.2,0.6,0.2,1C9,76.5,11.4,77.4,14.1,77.4z M40,77.4c2.8,0,5.2-0.9,7.4-2.7
		c0.4-0.3,0.4-0.6,0.1-1c-3.5-5.4-11.6-5.4-15,0c-0.3,0.4-0.2,0.6,0.2,1C34.8,76.5,37.2,77.4,40,77.4z M65.8,77.4
		c2.8,0,5.3-0.9,7.5-2.7c0.4-0.3,0.4-0.5,0.1-0.9c-3.4-5.5-11.6-5.5-15.1,0c-0.3,0.4-0.3,0.6,0.1,1C60.6,76.5,63,77.4,65.8,77.4z
		 M36.1,20.2c0,0.5,0,1,0,1.5s0,1,0,1.5c0,1.4,1.1,2.5,2.6,2.6c0.9,0,1.7,0,2.6,0c1.5,0,2.5-1.1,2.6-2.5c0-1.1,0-2.3,0-3.4
		c0-0.3,0-0.5-0.4-0.5c-2-0.1-3.4-1.1-4.2-2.9c-0.4-0.8-1.1-1.1-1.8-0.9c-0.7,0.2-1.2,0.8-1.2,1.7C36.1,18.2,36.1,19.2,36.1,20.2z
		 M14.2,67.1c2.1,0,3.9-1.7,3.9-3.9c0-2.1-1.7-3.8-3.9-3.8c-2.1,0-3.9,1.7-3.9,3.9C10.3,65.4,12.1,67.1,14.2,67.1z M40,67.1
		c2.1,0,3.9-1.7,3.9-3.9c0-2.1-1.7-3.8-3.9-3.8c-2.1,0-3.9,1.7-3.9,3.9C36.1,65.4,37.9,67.1,40,67.1z M69.7,63.2
		c0-2.1-1.7-3.8-3.9-3.8c-2.1,0-3.9,1.7-3.9,3.9c0,2.1,1.7,3.8,3.9,3.8C68,67.1,69.7,65.3,69.7,63.2z M33.6,32.6
		c-0.1,0-0.1,0.1-0.2,0.1c-2.6,2-3.7,4.7-3.7,7.9c0,0.3,0.2,0.5,0.4,0.6c1.5,0.8,3,1.4,4.6,1.9c0.4,0.1,0.6,0.1,0.7-0.4
		c0.2-1.2,0.5-2.5,0.8-3.7c0.2-0.8,0.5-1.7,0.5-2.7c-1.1,0.8-2.1,1.6-3.1,2.3C33.6,36.6,33.6,34.6,33.6,32.6z M46.4,38.6
		c-0.1,0-0.2-0.1-0.4-0.3c-0.7-0.5-1.4-1-2.1-1.5c-0.2-0.1-0.4-0.4-0.6-0.2c-0.2,0.1,0,0.4,0.1,0.5c0.4,1.8,0.8,3.7,1.2,5.5
		c0.1,0.5,0.2,0.6,0.7,0.5c0.9-0.3,1.9-0.6,2.8-1c2.6-1.2,2.4-0.5,2-3.7c-0.4-2.5-1.7-4.4-3.7-5.8C46.4,34.6,46.4,36.6,46.4,38.6z
		 M40.1,34.2c-0.1,0.1-0.2,0.1-0.2,0.1c-0.7,3-1.3,6-2,9c-0.1,0.5,0.2,0.5,0.4,0.5c1.1,0.1,2.2,0.1,3.4,0c0.5,0,0.5-0.3,0.4-0.7
		c-0.4-1.8-0.8-3.7-1.3-5.6C40.6,36.5,40.4,35.3,40.1,34.2z M40.1,28.4c-0.6-0.1-1.2-0.1-1.1,0.7c0.1,0.6,0.6,0.9,1.1,1.2
		c0.1,0.1,1.1-1,1.1-1.2C41.1,28.3,40.6,28.3,40.1,28.4z M33.6,19.3c-0.8,0.1-1.2,0.5-1.3,1.2c0,0.6,0.2,1,0.7,1.2
		c0.4,0.2,0.6,0.2,0.6-0.3C33.5,20.8,33.6,20.1,33.6,19.3z M46.5,21.9c0.9-0.2,1.3-0.6,1.3-1.4c0-0.7-0.5-1.1-1.3-1.2
		C46.5,20.2,46.5,21,46.5,21.9z M36.3,33.4c0.5-0.4,0.9-0.7,1.3-1c0.3-0.2,0.3-0.4,0-0.7c-0.2-0.1-0.3-0.3-0.5-0.5
		c-0.2-0.2-0.4-0.2-0.7-0.1c-0.3,0.1-0.3,0.3-0.3,0.5C36.3,32.2,36.3,32.7,36.3,33.4z M43.7,33.4c0-0.4,0-0.8,0-1.1
		c-0.1-0.4,0.3-0.9-0.3-1.1c-0.6-0.2-0.8,0.4-1.1,0.6c-0.3,0.2-0.3,0.4,0,0.7C42.8,32.7,43.2,33,43.7,33.4z"/>
	<path class="st1" d="M30.3,18.4C27.8,11.7,33,4.6,40.2,5.2C43,5.4,45.3,6.7,47,8.9c0.2,0.2,0.4,0.5,0.6,0.6c2.4,1.6,3,3.9,2.6,6.5
		c-0.1,0.8-0.3,1.6-0.6,2.3c-1-1.2-2.3-1.7-3.9-1.6c-0.7,0-1.3,0-2,0c-1,0-1.7-0.4-2.2-1.4c-0.9-1.8-2.5-2.7-4.3-2.5
		c-1.8,0.2-3.1,1.4-3.6,3.4c-0.1,0.2-0.1,0.5-0.5,0.5C32,16.9,31.1,17.5,30.3,18.4z"/>
</g>
</svg>
