<?xml version="1.0" encoding="utf-8"?>
<!-- Generator: Adobe Illustrator 19.2.1, SVG Export Plug-In . SVG Version: 6.00 Build 0)  -->
<svg version="1.1" id="Layer_1" xmlns="http://www.w3.org/2000/svg" xmlns:xlink="http://www.w3.org/1999/xlink" x="0px" y="0px"
	 viewBox="0 0 100 100" style="enable-background:new 0 0 100 100;" xml:space="preserve">
<style type="text/css">
	.st0{fill:#261449;}
	.st1{fill:#4EE482;}
</style>
<g>
	<path class="st0" d="M59.5,50.3c3.5,3.8,1.6,9.5-2.8,10.6c-1.6,0.4-1.9,1-2.3,2.5C53,69.4,49.5,73.6,43.9,76
		c-0.2,0.1-0.4,0.2-0.6,0.3c0,0.3,0.2,0.3,0.4,0.4c7.2,4.1,10.9,10.4,11.1,18.7c0,1.3,0,1.3,1.3,1.3c12.1,0,24.2,0,36.3,0
		c0.8,0,1.1,0.1,1.1,1c-0.1,2.2,0,2.2-2.2,2.2c-27.9,0-55.8,0-83.7,0c-0.9,0-1.2-0.2-1.2-1.1c0.1-2.1,0-2.1,2.1-2.1
		c1.2,0,2.3,0,3.5,0c0.7,0,0.9-0.2,0.8-0.9c-0.1-4.7,1.2-9,3.9-12.9c2-2.8,4.6-5,7.6-6.5c-0.1-0.4-0.5-0.4-0.7-0.5
		c-6-2.8-9.6-7.4-10.7-14c-0.1-0.4,0-0.6-0.6-0.7c-5.2-1-7.3-4.8-5.2-9.7c1.1-1.6,2.5-2.8,4.4-3c1.2-0.1,1.2-0.6,1.2-1.5
		c0-2.9,1.9-4.9,4.8-5.1c2.3-0.1,3.8-1.4,4.3-3.7c0.1-0.3,0.1-0.5,0.1-0.8c0.5-2.5,0.5-2.5,3-1.8c0.5,0.1,0.6,0.2,0.5,0.7
		c-0.4,1.9-0.6,3.8-1.7,5.5c1.2,0,2.2,0.1,3.2-0.2c2-0.7,2.7-2.3,3-4.2c0.1-0.8,0-1.9,0.6-2.2c0.6-0.3,1.5,0.3,2.3,0.4
		c0.6,0.1,0.6,0.3,0.5,0.8c-0.4,1.8-0.6,3.7-1.7,5.3c3.3,0.5,5.8-0.7,6.3-4.5c0.3-2.3,0.4-2.2,2.6-1.8c0.9,0.2,1,0.5,0.8,1.3
		c-0.4,1.7-0.6,3.5-1.7,5.1c0.8,0,1.4,0,1.9,0c2.2,0,3.7-1.2,4.3-3.4c0.2-0.6,0.3-1.3,0.5-1.9c0.4-1.2,1.5-1.6,2.6-0.9
		c1.8,1.3,3.3,2.9,4.2,5c1,2.1,1.3,4.4,1.2,6.7c0,0.4-0.1,0.8,0.6,0.9C57,48.5,58.3,49.3,59.5,50.3z M49.3,40.1
		c-1.6,3.6-4.2,5.2-8.1,5.1c-3.5-0.1-7.1,0-10.6,0c-4.2,0-8.3,0-12.5,0c-1.3,0-1.9,0.5-2,1.7c0,4.7-0.1,9.4,0.1,14.1
		c0.3,5.8,4.8,11.3,10.5,12.6c4.5,1.1,9.1,1,13.6,0.2c6.2-1.2,11.1-6.9,11.2-13c0.1-5.1,0.1-10.2,0-15.3
		C51.5,43.4,50.7,41.6,49.3,40.1z M37.8,86.7c-0.2,1-0.7,1.6-0.6,2.3c0.4,2.4,0.8,4.7,1.2,7.1c0.1,0.4,0.3,0.6,0.7,0.6
		c4,0,7.9,0,11.9,0c0.5,0,0.6-0.1,0.6-0.6c0-1.3,0-2.6-0.2-3.9c-0.9-4.9-3.3-8.7-7.4-11.7c-1,3.2-1.9,6.3-2.9,9.7
		C39.9,89,38.9,88,37.8,86.7z M23.8,80.6c-0.2,0.1-0.3,0.2-0.4,0.2c-5,3.9-7.4,9-7.3,15.3c0,0.7,0.4,0.6,0.8,0.6c3.9,0,7.7,0,11.6,0
		c0.7,0,0.8-0.3,0.9-0.8c0.3-2.1,0.7-4.2,1.1-6.3c0.2-1-0.2-1.8-0.7-2.9c-1.1,1.2-2.1,2.3-3.2,3.4C25.7,86.9,24.8,83.8,23.8,80.6z
		 M28.2,84c1.7-1.7,3.4-3.3,5-5c0.6-0.6,0.9-0.5,1.4,0c1.3,1.4,2.7,2.8,4.1,4.1c0.3,0.3,0.4,0.6,0.9,0.7c0.4-1.4,0.8-2.9,1.3-4.3
		c0.1-0.4,0.2-0.6-0.3-0.8c-4.5-1.8-8.9-1.8-13.4,0c-0.4,0.2-0.5,0.4-0.4,0.8C27.3,81,27.7,82.4,28.2,84z M12.9,51.6
		c-0.4,0.1-0.6,0.1-0.9,0.2c-1.4,0.4-2.3,1.7-2.3,3.1c0,1.4,1,2.8,2.4,3c0.3,0.1,0.8,0.4,0.8-0.4C12.9,55.6,12.9,53.6,12.9,51.6z
		 M58,54.9c0-1.6-1.1-2.9-2.6-3.2c-0.5-0.1-0.6,0-0.6,0.5c0,1.7,0,3.5,0,5.2c0,0.6,0.3,0.7,0.8,0.6C57,57.7,58,56.3,58,54.9z
		 M33.9,96.7c0.3,0,0.5,0,0.8,0c0.4,0,0.6-0.1,0.5-0.6c-0.3-1.8-0.6-3.6-0.9-5.3c0-0.2,0-0.5-0.3-0.5c-0.4,0-0.3,0.4-0.3,0.6
		c-0.3,1.5-0.5,3.1-0.8,4.6C32.6,96.7,32.6,96.7,33.9,96.7z M33.9,83c-0.3,0-1.3,1.3-1.2,1.7c0.2,0.7,0.4,1.3,0.7,2
		c0.1,0.3,0.2,0.4,0.5,0.4c0.3,0,0.5-0.1,0.6-0.4c0.2-0.6,0.4-1.3,0.6-1.9C35.2,84.4,34.2,83,33.9,83z"/>
	<path class="st1" d="M59.5,50.3c-1.1-1.1-2.5-1.8-4-1.9c-0.7,0-0.6-0.5-0.6-0.9c0.1-2.3-0.2-4.6-1.2-6.7c-1-2-2.4-3.7-4.2-5
		c-1-0.7-2.2-0.3-2.6,0.9c-0.2,0.6-0.3,1.3-0.5,1.9c-0.6,2.1-2.1,3.3-4.3,3.4c-0.6,0-1.2,0-1.9,0c1.1-1.6,1.3-3.4,1.7-5.1
		c0.2-0.8,0.1-1.1-0.8-1.3c-2.2-0.4-2.3-0.4-2.6,1.8c-0.5,3.8-3,4.9-6.3,4.5c1.1-1.6,1.3-3.5,1.7-5.3c0.1-0.5,0.1-0.8-0.5-0.8
		c-0.8-0.1-1.8-0.7-2.3-0.4c-0.6,0.3-0.5,1.4-0.6,2.2c-0.3,1.9-1.1,3.5-3,4.2c-1,0.4-2,0.3-3.2,0.2c1.1-1.7,1.3-3.7,1.7-5.5
		c0.1-0.5-0.1-0.6-0.5-0.7c-2.5-0.6-2.5-0.6-3,1.8c-0.1,0.3-0.1,0.5-0.1,0.8c-0.5,2.3-2,3.5-4.3,3.7c-2.9,0.2-4.8,2.1-4.8,5.1
		c0,0.9,0,1.4-1.2,1.5c-1.9,0.2-3.4,1.4-4.4,3c-1.3-1.3-2.5-2.6-3.8-3.9c-0.6-0.5-0.6-0.9-0.1-1.6c0.8-1.1,1.5-2.3,2.4-3.5
		c0.4-0.5,0.3-0.9-0.1-1.3c-1.5-1.9-2.9-3.9-4.4-5.8c-0.5-0.7-0.4-0.9,0.4-1.1c2.8-0.9,5.7-1.9,8.5-2.8c0.7-0.2,1-0.5,0.8-1.3
		c-0.6-2.8-1.1-5.6-1.7-8.7c7.5,3.6,15.3,4.7,23.3,4.3c1.1,0,2.2,0,3.3,0c2.2,0,4.4,0,6.5,0c1.8,0.1,3.6,0.1,5.4,0.2
		c1.3,0.5,2.6,0.8,3.9,1.4c3.7,1.8,6.4,4.5,8.2,8.2c0.4,1.1,0.8,2.1,1.1,3.2c0.2,1.9,0.6,3.8,0.3,5.7c-0.2,1.2-0.5,2.5-0.7,3.7
		C60,48.8,59.8,49.6,59.5,50.3z"/>
	<path class="st0" d="M60.5,48.2c0.2-1.2,0.5-2.5,0.7-3.7c0.2,0.2,0.4,0.3,0.6,0.5c5.6,5.5,14.9,4.2,18.8-2.5
		c0.3-0.5,0.5-1.2,0.9-1.5c0.5-0.2,1.1,0.4,1.7,0.6c2.3,0.8,4.5,0.5,6.4-1.1c1.9-1.6,2.6-3.6,2.2-6.1c-0.2-1.2-0.9-2.3-1.4-3.5
		c0.7-0.2,1.4-0.4,2.1-0.6c2.3-0.9,3.8-2.5,4.2-5c0.4-2.6-0.6-4.8-2.7-6.3c-0.9-0.7-2-1-3.1-1.1c-0.7-0.1-1.2-0.2-0.8-1.2
		c0.4-1.2,0.5-2.4,0.1-3.7c-1.2-4.6-6.4-6.3-10.3-3.4c-1.1,0.8-1.1,0.8-1.8-0.2c-2.6-3.4-6-5.6-10.3-6c-5.7-0.5-10.2,1.7-13.5,6.3
		c-0.4,0.6-0.7,0.7-1.3,0.2c-1.4-1.2-3.1-1.9-5-1.7c-4.1,0.5-6.5,4-5.6,8c0.3,1.4,0.3,1.4-1.2,1.7c-3.9,0.8-6.1,4.1-5.2,7.9
		c-1.1,0-2.2,0-3.3,0c-0.7-4.5,1.5-8.5,5.6-10.4c0.5-0.2,0.7-0.4,0.7-1c0.2-7,7.1-11.4,13.5-8.7c0.6,0.2,0.8,0.1,1.2-0.3
		c7.2-7.2,18.1-7.2,25.3,0c0.4,0.4,0.7,0.5,1.2,0.3c6.4-2.7,13.3,1.7,13.5,8.7c0,0.5,0.2,0.8,0.7,1c3.4,1.6,5.5,4.3,5.7,8.1
		c0.3,3.9-1.3,6.9-4.6,8.9c-0.5,0.3-0.5,0.6-0.4,1.1c1.4,6.9-4.4,12.8-11.3,11.5c-0.4-0.1-0.7-0.2-1,0.2c-0.8,1.2-1.8,2.2-3.1,3.3
		c2-0.2,3.6,0.1,5,1.2c1.4,1.1,2.2,2.5,2.5,4.3c0.4,2.7-1.1,5.4-3.6,6.7c-2.6,1.3-5.6,0.7-7.6-1.4c-2.1-2.3-2.2-5.1-0.3-8.5
		C70,52.4,65,51.7,60.5,48.2z M80.6,58c1.8,0,3.2-1.4,3.2-3.2c0-1.8-1.5-3.2-3.2-3.2c-1.7,0-3.2,1.5-3.2,3.3
		C77.4,56.6,78.9,58,80.6,58z"/>
	<path class="st0" d="M62.9,80.6c-2.6,0-4.8-2.2-4.8-4.9c0-2.6,2.3-4.8,4.9-4.8c2.7,0,4.8,2.2,4.8,4.9
		C67.7,78.5,65.5,80.7,62.9,80.6z M64.5,75.8c0-0.9-0.7-1.6-1.6-1.6c-0.9,0-1.6,0.7-1.6,1.6c0,0.9,0.7,1.6,1.6,1.6
		C63.8,77.4,64.5,76.7,64.5,75.8z"/>
	<path class="st0" d="M71,70.9c-2.7,0-4.8-2.1-4.9-4.8c0-2.7,2.1-4.8,4.8-4.9c2.7,0,4.8,2.1,4.9,4.8C75.8,68.8,73.7,70.9,71,70.9z
		 M72.6,66.1c0-0.9-0.8-1.6-1.6-1.6c-0.9,0-1.6,0.8-1.6,1.6c0,0.9,0.8,1.6,1.6,1.6C71.8,67.7,72.6,67,72.6,66.1z"/>
	<path class="st0" d="M1.6,100C0,100,0,100,0,98.4c0-1.6,0-1.6,1.6-1.6c1.6,0,1.6,0,1.6,1.6C3.3,100,3.3,100,1.6,100z"/>
	<path class="st0" d="M100,98.3c0,1.6,0,1.6-1.7,1.6c-1.6,0-1.6,0-1.6-1.6c0-1.7,0-1.7,1.7-1.7C100,96.7,100,96.7,100,98.3z"/>
	<path class="st0" d="M42.3,25.8c0.4-1.2,1.2-2.1,2.3-2.6c0.5-0.2,0.6-0.5,0.6-1c0-1.8,0-3.5,0-5.3c0-0.6,0.1-0.8,0.8-0.8
		c1.7,0,3.4,0,5.2,0c0.5,0,0.8-0.1,1.1-0.6c0.9-1.7,2.3-2.6,4.3-2.6c1.9,0,3.4,0.9,4.3,2.6c0.2,0.5,0.5,0.7,1,0.6c2.9,0,5.9,0,8.8,0
		c0.5,0,0.7-0.1,1-0.6c0.9-1.7,2.4-2.7,4.3-2.7c1.9,0,3.4,0.9,4.3,2.6c0.2,0.5,0.5,0.6,1,0.6c1.7,0,3.4,0,5.2,0
		c0.6,0,0.8,0.1,0.8,0.8c0,2.7,0,5.5,0,8.2c0,0.5-0.1,0.8-0.7,0.7c-0.4,0-0.7,0-1.1,0c-0.8,0.1-1.4,0.8-1.5,1.6
		c0,0.8,0.5,1.5,1.4,1.6c0.1,0,0.1,0,0.2,0c0.5,0.1,1.3-0.3,1.6,0.2c0.2,0.4,0.1,1.1,0.1,1.6c0,2.2,0,4.4,0,6.6
		c0,0.9-0.2,1.2-1.1,1.2c-8.4,0-16.7,0-25.1,0c-0.4-1.1-0.8-2.1-1.1-3.2c0.7,0,1.4,0,2.1,0c0.8,0,1.9,0.4,2.4-0.2
		c0.5-0.5,0.1-1.6,0.2-2.4c0.1-0.6-0.2-0.9-0.7-1.3c-3-1.7-3.4-6-0.6-8c1.1-0.8,1.4-1.6,1.3-2.7c0-0.3,0-0.7,0-1
		c0-0.5-0.2-0.6-0.6-0.6c-1.3,0-2.5,0-3.8,0c-0.6,0-1.3,0.2-1.8-0.1c-0.6-0.3-0.1-1.1-0.2-1.7c-0.1-0.8-0.8-1.4-1.6-1.4
		c-0.8,0-1.5,0.6-1.6,1.4c0,0.2,0,0.5,0,0.7c0.2,1-0.3,1.2-1.2,1.1c-1.4-0.1-2.9,0-4.3,0c-0.9-0.1-1.1,0.3-1,1.1
		c0.1,1.4,0,2.9,0,4.3c0,0.7,0,1.1-0.8,1.3C45.8,25.9,44,25.9,42.3,25.8z M75.7,35.5c1.8,0,3.6,0,5.5,0c0.8,0,1.9,0.3,2.5-0.1
		c0.6-0.5,0.1-1.6,0.2-2.5c0.1-0.7-0.2-0.9-0.8-1.2c-3-1.7-3.4-5.9-0.6-7.8c1.4-0.9,1.5-1.9,1.4-3.2c0-0.2,0-0.4,0-0.6
		c0.1-0.5-0.2-0.7-0.7-0.6c-1.2,0-2.4,0-3.6,0c-0.6,0-1.4,0.2-1.9-0.1c-0.6-0.3-0.2-1.2-0.3-1.8c-0.2-0.8-0.7-1.3-1.5-1.3
		c-0.8,0-1.5,0.5-1.6,1.4c0,0.4-0.1,0.7,0,1.1c0.1,0.6-0.1,0.8-0.7,0.8c-1.7,0-3.3,0-5,0c-0.6,0-0.8,0.1-0.8,0.7
		c0.1,1.3,0,2.5,0,3.8c0,0.6,0.2,1.3-0.1,1.7c-0.3,0.5-1.1,0.1-1.6,0.2c-0.9,0.1-1.5,0.8-1.5,1.6c0,0.8,0.6,1.5,1.4,1.6
		c0.4,0.1,0.7,0.1,1.1,0c0.6-0.1,0.8,0.1,0.8,0.7c0,1.7,0,3.3,0,5c0,0.6,0.2,0.8,0.8,0.8C70.9,35.5,73.3,35.5,75.7,35.5z"/>
	<path class="st0" d="M33.9,61.3c2.4,0,4.9,0,7.3,0c0.6,0,0.8,0.2,0.8,0.8c0.1,4.4-2.3,7.7-6.2,8.7c-5,1.2-9.9-2.5-10-7.6
		c0-1.8,0-1.8,1.7-1.8C29.7,61.3,31.8,61.3,33.9,61.3z M29.4,64.5c0.7,1.9,2.3,3.1,4.2,3.2c1.8,0.1,3.8-1,4.5-2.6
		c0.2-0.4,0.3-0.6-0.3-0.6C35,64.5,32.3,64.5,29.4,64.5z"/>
	<path class="st0" d="M46.7,54.9c-0.3,0-0.5,0-0.8,0c-0.5,0-0.8,0-0.9-0.7c-0.3-1.5-1.6-2.6-3.1-2.6c-1.5,0-2.8,1-3.1,2.5
		c-0.2,0.7-0.5,0.9-1.1,0.8c-0.4,0-0.9-0.1-1.4,0c-0.9,0.1-0.9-0.3-0.8-1c0.4-3.2,3.3-5.6,6.7-5.5c3.2,0.1,5.9,2.7,6.2,5.8
		c0,0.5-0.1,0.7-0.6,0.6C47.5,54.8,47.1,54.9,46.7,54.9z"/>
	<path class="st0" d="M30.6,54.9c-0.3,0-0.6,0-0.9,0c-0.5,0.1-0.7-0.1-0.8-0.6c-0.4-1.7-1.6-2.7-3.1-2.7c-1.6,0-2.7,1-3.2,2.8
		c0,0,0,0.1,0,0.1c-0.1,0.4-2.1,0.6-3,0.4c-0.6-0.2-0.3-0.6-0.2-1c0.5-3,2.9-5.3,5.8-5.5c3.1-0.2,5.8,1.6,6.8,4.5
		C32.6,54.7,32.5,54.9,30.6,54.9z"/>
</g>
</svg>
