<?xml version="1.0" encoding="utf-8"?>
<!-- Generator: Adobe Illustrator 19.2.1, SVG Export Plug-In . SVG Version: 6.00 Build 0)  -->
<svg version="1.1" id="Layer_1" xmlns="http://www.w3.org/2000/svg" xmlns:xlink="http://www.w3.org/1999/xlink" x="0px" y="0px"
	 viewBox="0 0 80 80" style="enable-background:new 0 0 80 80;" xml:space="preserve">
<style type="text/css">
	.st0{fill:#261449;}
	.st1{fill:#4EE482;}
</style>
<g>
	<path class="st0" d="M35.8,65.8c1,0,1.9,0.1,2.9-0.1c0-0.9,0-1.9,0-2.8c0-14.6,0-29.3,0-43.9c0-0.7-0.1-1-0.9-0.9
		c-1.2,0.1-2.3,0.1-3.5,0c-0.6,0-0.8,0.1-0.8,0.8c0,8.9,0,17.8,0,26.7c0,0.7-0.1,1-0.9,0.9c-1.7-0.1-1.7,0-1.7-1.7
		c0-9.5,0-19,0-28.5c0-0.7,0.1-0.8,0.8-0.8c2.9,0,5.8,0,8.7,0c0.7,0,0.8,0.1,0.8,0.8c0,16.2,0,32.4,0,48.5c0,0.8,0.1,1,1,1
		c1.6-0.1,1.6,0,1.6-1.6c0-11.7,0-23.3,0-35c0-0.7,0.1-0.8,0.8-0.8c2.9,0,5.8,0,8.7,0c0.7,0,0.8,0.1,0.8,0.8c0,11.9,0,23.8,0,35.7
		c0,0.7,0.2,0.9,0.9,0.9c1.7-0.1,1.7,0,1.7-1.7c0-13.4,0-26.7,0-40.1c0-0.7,0.1-0.8,0.8-0.8c2.9,0,5.8,0,8.7,0
		c0.7,0,0.8,0.1,0.8,0.8c0,13.6,0,27.3,0,40.9c0,0.7,0.2,0.9,0.9,0.9c1.7-0.1,1.7,0,1.7-1.7c0-16.4,0-32.7,0-49.1
		c0-0.7,0.2-0.8,0.8-0.8c3,0,5.9,0,8.9,0c0.5,0,0.7,0.1,0.7,0.7c0,17.6,0,35.3,0,52.9c0,0.5-0.1,0.7-0.7,0.7c-14.8,0-29.6,0-44.3,0
		C35.3,67.5,35.5,66.7,35.8,65.8z M72.2,41.2c0,8,0,15.9,0,23.9c0,0.6,0.1,0.8,0.7,0.7c1.2-0.1,2.5-0.1,3.7,0c0.6,0,0.7-0.1,0.7-0.7
		c0-4.4,0-8.8,0-13.1c0-11.5,0-23,0-34.4c0-0.6-0.1-0.8-0.7-0.7c-1.2,0.1-2.4,0.1-3.6,0c-0.7,0-0.8,0.2-0.8,0.8
		C72.3,25.5,72.2,33.3,72.2,41.2z M64.5,45.8c0-6.4,0-12.8,0-19.3c0-0.6-0.1-0.8-0.7-0.7c-1.3,0.1-2.6,0-3.9,0
		c-0.4,0-0.5,0.1-0.5,0.5c0,0.8,0,1.6,0,2.3c0,12.1,0,24.3,0,36.4c0,0.6,0.1,0.8,0.7,0.7c1.2-0.1,2.5-0.1,3.7,0
		c0.6,0,0.7-0.1,0.7-0.7C64.5,58.7,64.5,52.2,64.5,45.8z M46.4,48.4c0,5.6,0,11.1,0,16.7c0,0.5,0,0.8,0.7,0.7c1.3-0.1,2.6,0,3.9,0
		c0.5,0,0.6-0.1,0.6-0.6c0-11.2,0-22.5,0-33.7c0-0.5-0.1-0.6-0.6-0.6c-1.3,0-2.6,0-3.9,0c-0.6,0-0.7,0.1-0.7,0.7
		C46.5,37.3,46.4,42.8,46.4,48.4z"/>
	<path class="st1" d="M35.8,65.8c-0.3,0.9-0.5,1.7-0.8,2.6c-0.9,2.1-2,4-3.6,5.7c-3,3.2-6.7,5.2-11.1,5.8C14.9,80.5,10.1,79,6,75.4
		c-3.4-3-5.3-6.7-5.9-11.2c-0.5-4.5,0.4-8.7,3-12.4c3.6-5.1,8.6-7.8,14.9-7.9c0.9,0.1,1.7,0.1,2.6,0.2c1.8,0.3,3.5,0.9,5.1,1.5
		c0.9,0.5,1.7,1,2.6,1.5c2.3,1.7,4.3,3.8,5.6,6.4c1.9,3.6,2.5,7.5,1.9,11.5C35.8,65.3,35.8,65.5,35.8,65.8z M11.6,61.9
		c0,2.8,0,5.6,0,8.4c0,0.5,0.1,0.7,0.7,0.7c0.7,0,1.3,0,2,0c1.2,0,1.2,0,1.2,1.2c0,1.3,0,1.3,1.3,1.4c1.3,0,1.3,0,1.3-1.3
		c0-1.3,0-1.3,1.3-1.3c2.2,0,3.8-1,4.7-3c0.9-2,0.6-3.8-0.7-5.5c-0.4-0.4-0.4-0.6,0-1.1c1.3-1.5,1.6-3.3,0.9-5.2
		c-0.7-1.9-2.2-2.9-4.2-3.3c-0.6-0.1-1.5,0.3-1.8-0.2c-0.3-0.5-0.1-1.3-0.1-2c0-0.3-0.1-0.5-0.4-0.5c-2.1-0.1-2.1-0.2-2.1,1.9
		c0,0.1,0,0.1,0,0.2c0.1,0.4-0.1,0.5-0.5,0.5c-0.9,0-1.7,0-2.6,0c-0.6,0-0.8,0.1-0.8,0.7C11.6,56.4,11.6,59.2,11.6,61.9z"/>
	<path class="st0" d="M25.7,13.6c2.1-1.8,4-3.8,6-5.7c0.4-0.5,1.1-0.7,0.8-1.7c-0.6-1.6,0.1-3.3,1.5-4.3c1.4-0.9,3.2-0.9,4.5,0.2
		c1.3,1.1,1.9,2.8,1.2,4.4c-0.4,0.8-0.2,1.3,0.4,1.8c1.9,2.4,3.8,4.9,5.7,7.3c0.4,0.5,0.8,1,1.3,1.5c0.4,0.7,0.8,1.2,1.8,1
		c0.6-0.2,1.4,0,1.9,0.4c0.7,0.6,1.3,0.4,1.9-0.2c1-0.5,2-1,3-1.6c0.8-0.2,1.1-0.7,1.2-1.7c0.1-2.6,3-4.3,5.3-3.1
		c0.9,0.4,1.4,0.3,2.1-0.3c1.9-1.2,3.8-2.4,5.7-3.6c0.8-0.3,1.2-0.7,1.1-1.7c-0.1-1.7,1.2-3.1,2.8-3.6c1.6-0.5,3.4,0.2,4.3,1.6
		c0.9,1.4,0.8,3.3-0.3,4.6c-1.1,1.3-2.9,1.9-4.4,1c-0.9-0.5-1.5-0.3-2.1,0.3c-1.9,1.2-3.8,2.4-5.7,3.6c-0.8,0.3-1.1,0.8-1.1,1.8
		c0,2.8-3.2,4.6-5.6,3.2c-0.8-0.5-1.3-0.4-1.8,0.2c-1,0.4-2,1-3,1.6c-0.8,0.2-1.1,0.7-1.2,1.7c-0.1,1.6-1,2.7-2.5,3.2
		c-1.5,0.5-2.9,0.2-4.1-1c-1.1-1.1-1.5-2.5-0.8-4c0.4-0.8,0.2-1.3-0.4-1.8c-1.7-2.1-3.3-4.3-5-6.4c-0.6-0.8-1.3-1.6-2-2.4
		c-0.4-0.7-0.8-1.3-1.8-1c-0.2,0.1-0.6,0.1-0.8,0c-0.9-0.4-1.4,0-1.8,0.7c-2.1,1.8-4,3.8-6,5.7c-0.7,0.5-1,1-0.7,2
		c0.5,1.5-0.4,3.3-1.8,4.1c-1.5,0.9-3.4,0.6-4.6-0.6c-1.2-1.2-1.5-3-0.8-4.5c0.8-1.5,2.5-2.5,4.1-2C24.8,14.5,25.2,14.3,25.7,13.6z
		 M60.6,16.8c0.7,0,1.3-0.5,1.3-1.2c0-0.7-0.5-1.3-1.2-1.3c-0.7,0-1.4,0.5-1.4,1.3C59.3,16.2,59.9,16.8,60.6,16.8z M24.5,18.1
		c0-0.7-0.5-1.3-1.2-1.3c-0.7,0-1.3,0.5-1.3,1.2c0,0.7,0.6,1.4,1.3,1.4C23.9,19.4,24.5,18.8,24.5,18.1z M49,23.2
		c0.7,0,1.3-0.5,1.3-1.2c0-0.7-0.5-1.3-1.2-1.3c-0.7,0-1.4,0.5-1.4,1.3C47.7,22.6,48.3,23.2,49,23.2z M74.8,5.2
		c-0.7,0-1.3,0.6-1.3,1.3c0,0.7,0.6,1.3,1.3,1.3c0.7,0,1.3-0.6,1.3-1.3C76.1,5.7,75.5,5.2,74.8,5.2z M37.4,5.1
		c0-0.7-0.6-1.3-1.3-1.3c-0.7,0-1.3,0.6-1.3,1.3c0,0.7,0.6,1.3,1.3,1.3C36.9,6.4,37.4,5.8,37.4,5.1z"/>
	<path class="st0" d="M20.6,44c-0.9-0.1-1.7-0.1-2.6-0.2c0-2.4,0-4.7,0-7.1c0-0.5,0.1-0.7,0.7-0.7c3,0,6.1,0,9.1,0
		c0.4,0,0.6,0.1,0.6,0.6c0,3.5,0,6.9,0,10.4c-0.9-0.5-1.7-1-2.6-1.5c0-2.1,0-4.2,0-6.3c0-0.5-0.2-0.6-0.6-0.6c-1.3,0-2.7,0-4,0
		c-0.5,0-0.6,0.1-0.6,0.6C20.7,40.9,20.6,42.4,20.6,44z"/>
	<path class="st1" d="M25.7,13.6c-0.4,0.7-0.9,1-1.8,0.7c-1.6-0.4-3.3,0.5-4.1,2c-0.8,1.5-0.5,3.3,0.8,4.5c1.2,1.2,3.1,1.4,4.6,0.6
		c1.4-0.8,2.3-2.6,1.8-4.1c-0.3-1,0-1.5,0.7-2c1,2,1,3.9-0.3,5.8c-1.3,1.8-3.6,2.5-5.8,1.8c-2.2-0.7-3.6-2.8-3.5-5.1
		c0.1-2.1,1.7-4.2,3.8-4.7C23.2,12.7,24.5,12.8,25.7,13.6z"/>
	<path class="st1" d="M71.3,10.3c0.6-0.6,1.2-0.8,2.1-0.3c1.5,0.8,3.3,0.3,4.4-1c1.1-1.3,1.2-3.1,0.3-4.6c-0.9-1.4-2.6-2.1-4.3-1.6
		c-1.6,0.5-2.9,1.9-2.8,3.6c0.1,1-0.4,1.4-1.1,1.7c-0.4-1.6-0.3-3.1,0.7-4.5c1.6-2.4,4.8-3,7.2-1.4c2.4,1.6,3,4.7,1.5,7.1
		c-1.6,2.4-4.7,3.1-7.1,1.5C71.8,10.6,71.5,10.5,71.3,10.3z"/>
	<path class="st1" d="M40.1,8.3c-0.6-0.5-0.8-1-0.4-1.8c0.7-1.5,0.1-3.3-1.2-4.4c-1.3-1-3.1-1.1-4.5-0.2c-1.4,0.9-2.1,2.7-1.5,4.3
		c0.4,1-0.4,1.2-0.8,1.7c-1-2.1-1-4.1,0.5-6c1.7-2.3,5.1-2.6,7.4-0.7C41.6,3,41.9,6.3,40.1,8.3z"/>
	<path class="st1" d="M45,18.8c0.6,0.5,0.8,1,0.4,1.8c-0.6,1.5-0.3,2.9,0.8,4c1.1,1.2,2.5,1.5,4.1,1c1.5-0.5,2.4-1.7,2.5-3.2
		c0-0.9,0.3-1.4,1.2-1.7c0.6,2.4-0.5,4.8-2.6,5.9c-2.1,1.1-4.7,0.6-6.2-1.1c-1.6-1.8-1.8-4.4-0.5-6.3C44.8,19,44.9,18.9,45,18.8z"/>
	<path class="st1" d="M57,19.1c0.6-0.6,1.1-0.6,1.8-0.2c2.4,1.4,5.6-0.4,5.6-3.2c0-1,0.3-1.5,1.1-1.8c0.4,1.7,0.2,3.3-0.9,4.7
		c-1.8,2.4-5.3,2.7-7.5,0.7C57.1,19.3,57.1,19.2,57,19.1z"/>
	<path class="st1" d="M64.2,11.7c-0.6,0.6-1.2,0.7-2.1,0.3c-2.3-1.1-5.2,0.6-5.3,3.1c-0.1,0.9-0.3,1.4-1.2,1.7
		c-0.5-2.1,0.3-4.2,2-5.5c1.8-1.3,4.1-1.3,5.9-0.1C63.7,11.4,64,11.5,64.2,11.7z"/>
	<path class="st1" d="M52.6,18.4c-0.6,0.6-1.1,0.7-1.9,0.2c-0.5-0.4-1.3-0.6-1.9-0.4c-1,0.3-1.4-0.3-1.8-1c1.9-0.6,3.6-0.4,5.1,0.8
		C52.4,18,52.6,18.2,52.6,18.4z"/>
	<path class="st0" d="M2.6,1.3c0,1.3,0,1.3-1.3,1.3C0,2.6,0,2.6,0,1.3C0,0,0,0,1.3,0C2.6,0,2.6,0,2.6,1.3z"/>
	<path class="st0" d="M5.2,1.2C5.2,0,5.2,0,6.4,0c1.3,0,1.3,0,1.3,1.3c0,1.2,0,1.2-1.3,1.2C5.2,2.6,5.2,2.6,5.2,1.2z"/>
	<path class="st0" d="M11.5,0c1.4,0,1.4,0,1.4,1.4c0,1.2,0,1.2-1.2,1.2c-1.4,0-1.4,0-1.4-1.4C10.3,0,10.3,0,11.5,0z"/>
	<path class="st0" d="M2.6,16.7c0,1.4,0,1.4-1.4,1.4c-1.2,0-1.2,0-1.2-1.2c0-1.4,0-1.4,1.4-1.4C2.6,15.5,2.6,15.5,2.6,16.7z"/>
	<path class="st0" d="M5.2,16.7c0-1.2,0-1.2,1.3-1.2c1.3,0,1.3,0,1.3,1.3c0,1.2,0,1.2-1.3,1.2C5.2,18.1,5.2,18.1,5.2,16.7z"/>
	<path class="st0" d="M7.7,11.7c0,1.2,0,1.2-1.3,1.2c-1.3,0-1.3,0-1.3-1.3c0-1.2,0-1.2,1.3-1.2C7.7,10.3,7.7,10.3,7.7,11.7z"/>
	<path class="st0" d="M12.9,11.6c0,1.4,0,1.4-1.4,1.4c-1.2,0-1.2,0-1.2-1.2c0-1.4,0-1.4,1.4-1.4C12.9,10.3,12.9,10.3,12.9,11.6z"/>
	<path class="st0" d="M2.6,11.7c0,1.3,0,1.3-1.2,1.3c-1.3,0-1.3,0-1.3-1.3c0-1.3,0-1.3,1.2-1.3C2.6,10.3,2.6,10.3,2.6,11.7z"/>
	<path class="st0" d="M2.6,22c0,1.3,0,1.3-1.2,1.3c-1.3,0-1.3,0-1.3-1.3c0-1.3,0-1.3,1.2-1.3C2.6,20.7,2.6,20.7,2.6,22z"/>
	<path class="st0" d="M6.5,20.7c1.2,0,1.2,0,1.2,1.3c0,1.3,0,1.3-1.3,1.3c-1.2,0-1.2,0-1.2-1.3C5.2,20.7,5.2,20.7,6.5,20.7z"/>
	<path class="st0" d="M2.6,27.2c0,1.2,0,1.2-1.3,1.2c-1.3,0-1.3,0-1.3-1.3c0-1.2,0-1.2,1.3-1.2C2.6,25.8,2.6,25.8,2.6,27.2z"/>
	<path class="st0" d="M1.4,33.6c-1.4,0-1.4,0-1.4-1.4C0,31,0,31,1.2,31c1.4,0,1.4,0,1.4,1.4C2.6,33.6,2.6,33.6,1.4,33.6z"/>
	<path class="st0" d="M16.8,5.2c1.3,0,1.3,0,1.3,1.3c0,1.3,0,1.3-1.3,1.3c-1.3,0-1.3,0-1.3-1.3C15.5,5.2,15.5,5.2,16.8,5.2z"/>
	<path class="st0" d="M22,0c1.2,0,1.2,0,1.2,1.2c0,1.4,0,1.4-1.4,1.4c-1.2,0-1.2,0-1.2-1.2C20.6,0,20.6,0,22,0z"/>
	<path class="st0" d="M10.3,6.4c0-1.3,0-1.3,1.3-1.3c1.3,0,1.3,0,1.3,1.3c0,1.3,0,1.3-1.3,1.3C10.3,7.8,10.3,7.8,10.3,6.4z"/>
	<path class="st0" d="M6.5,5.2c1.3,0,1.3,0,1.3,1.3c0,1.3,0,1.3-1.3,1.3c-1.3,0-1.3,0-1.3-1.3C5.2,5.2,5.2,5.2,6.5,5.2z"/>
	<path class="st0" d="M2.6,6.5c0,1.3,0,1.3-1.2,1.3C0,7.8,0,7.8,0,6.4c0-1.3,0-1.3,1.2-1.3C2.6,5.2,2.6,5.2,2.6,6.5z"/>
	<path class="st0" d="M16.7,2.6c-1.2,0-1.2,0-1.2-1.3c0-1.3,0-1.3,1.3-1.3c1.2,0,1.2,0,1.2,1.3C18.1,2.6,18.1,2.6,16.7,2.6z"/>
	<path class="st1" d="M33.6,9.7c0.5-0.7,1-1.1,1.8-0.7c0.2,0.1,0.6,0.1,0.8,0c1-0.3,1.4,0.2,1.8,1C36.5,10.5,35.1,10.5,33.6,9.7z"/>
	<path class="st0" d="M11.6,61.9c0-2.8,0-5.5,0-8.3c0-0.6,0.2-0.8,0.8-0.7c0.9,0.1,1.7,0,2.6,0c0.4,0,0.6-0.1,0.5-0.5
		c0-0.1,0-0.1,0-0.2c0-2.1,0-2.1,2.1-1.9c0.4,0,0.4,0.1,0.4,0.5c0,0.7-0.2,1.5,0.1,2c0.3,0.5,1.2,0.1,1.8,0.2c2,0.3,3.4,1.4,4.2,3.3
		c0.7,1.9,0.4,3.7-0.9,5.2c-0.4,0.5-0.4,0.7,0,1.1c1.4,1.7,1.7,3.5,0.7,5.5c-0.9,1.9-2.5,2.9-4.7,3c-1.3,0-1.3,0-1.3,1.3
		c0,1.3,0,1.3-1.3,1.3c-1.3,0-1.3,0-1.3-1.4c0-1.2,0-1.2-1.2-1.2c-0.7,0-1.3,0-2,0c-0.5,0-0.7-0.1-0.7-0.7
		C11.6,67.5,11.6,64.7,11.6,61.9z M17.1,63.2c-0.8,0-1.6,0-2.4,0c-0.4,0-0.6,0.1-0.5,0.5c0,1.4,0,2.7,0,4.1c0,0.4,0.1,0.5,0.5,0.5
		c1.6,0,3.1,0,4.7,0c1.4,0,2.5-1.2,2.5-2.6c0-1.4-1.1-2.5-2.5-2.6C18.6,63.2,17.9,63.2,17.1,63.2z M17.1,60.6c0.8,0,1.6,0,2.4,0
		c1.4-0.1,2.5-1.2,2.5-2.6c0-1.3-1-2.5-2.4-2.6c-1.6-0.1-3.3,0-4.9,0c-0.4,0-0.5,0.1-0.5,0.5c0,1.4,0,2.8,0,4.3
		c0,0.4,0.1,0.5,0.5,0.5C15.4,60.6,16.3,60.6,17.1,60.6z"/>
	<path class="st1" d="M60.6,16.8c-0.7,0-1.3-0.6-1.3-1.3c0-0.7,0.6-1.3,1.4-1.3c0.7,0,1.2,0.7,1.2,1.3
		C61.9,16.2,61.3,16.8,60.6,16.8z"/>
	<path class="st1" d="M24.5,18.1c0,0.7-0.6,1.3-1.3,1.3c-0.7,0-1.3-0.6-1.3-1.4c0-0.7,0.6-1.2,1.3-1.2C24,16.8,24.5,17.4,24.5,18.1z
		"/>
	<path class="st1" d="M49,23.2c-0.7,0-1.3-0.6-1.3-1.3c0-0.7,0.6-1.3,1.4-1.3c0.7,0,1.2,0.7,1.2,1.3C50.3,22.7,49.7,23.3,49,23.2z"
		/>
	<path class="st1" d="M74.8,5.2c0.7,0,1.3,0.6,1.3,1.2c0,0.7-0.6,1.3-1.3,1.3c-0.7,0-1.3-0.6-1.3-1.3C73.5,5.8,74.1,5.2,74.8,5.2z"
		/>
	<path class="st1" d="M37.4,5.1c0,0.7-0.5,1.3-1.2,1.3c-0.7,0-1.3-0.6-1.3-1.3c0-0.7,0.6-1.3,1.3-1.3C36.8,3.9,37.4,4.4,37.4,5.1z"
		/>
	<path class="st1" d="M17.1,63.2c0.8,0,1.5,0,2.3,0c1.4,0,2.5,1.2,2.5,2.6c0,1.4-1.1,2.5-2.5,2.6c-1.6,0-3.1,0-4.7,0
		c-0.4,0-0.5-0.1-0.5-0.5c0-1.4,0-2.7,0-4.1c0-0.4,0.1-0.6,0.5-0.5C15.5,63.2,16.3,63.2,17.1,63.2z"/>
	<path class="st1" d="M17.1,60.6c-0.8,0-1.6,0-2.4,0c-0.3,0-0.5-0.1-0.5-0.5c0-1.4,0-2.8,0-4.3c0-0.3,0.1-0.5,0.5-0.5
		c1.6,0,3.3,0,4.9,0c1.3,0,2.4,1.2,2.4,2.6c0,1.4-1.1,2.5-2.5,2.6C18.7,60.7,17.9,60.6,17.1,60.6z"/>
</g>
</svg>
