<?xml version="1.0" encoding="utf-8"?>
<!-- Generator: Adobe Illustrator 19.2.1, SVG Export Plug-In . SVG Version: 6.00 Build 0)  -->
<svg version="1.1" id="Layer_1" xmlns="http://www.w3.org/2000/svg" xmlns:xlink="http://www.w3.org/1999/xlink" x="0px" y="0px"
	 viewBox="0 0 80 80" style="enable-background:new 0 0 80 80;" xml:space="preserve">
<style type="text/css">
	.st0{fill:#261449;}
	.st1{fill:#4EE482;}
</style>
<g>
	<path class="st0" d="M45.1,53.2c-2.1,5.8-5.3,11-9.4,15.8c2.4-0.2,4.5-0.8,6.5-1.5c4.3-1.6,8.1-4.1,11.2-7.4
		c0.4-0.4,0.7-0.6,1.3-0.6c2.5,0,4.9,0,7.4,0c0.6,0,0.7,0.1,0.7,0.7c0,2.1,0,2.1-2.1,2.1c-1.5,0-3.1,0-4.6,0c-0.7,0-1.1,0.2-1.6,0.6
		c-6.4,6.1-14.1,9.2-22.9,9.1C17.5,71.9,5.1,62.3,1.2,48.8C-3.9,30.7,7.6,12,26,8.5c10.9-2,20.4,1,28.4,8.5c0.5,0.5,0.9,0.6,1.6,0.6
		c2,0,4.1,0,6.1,0c0.5,0,0.6,0.1,0.6,0.6c0,2.2,0,2.2-2.1,2.2c-2,0-4,0-6,0c-0.5,0-0.8-0.1-1.2-0.5c-4.5-4.8-10.1-7.7-16.6-8.9
		c-0.1,0-0.2,0-0.3,0c-0.2,0-0.5,0-0.9-0.1c4.1,4.8,7.3,10,9.4,15.8c-1.5,1.1-3,2.4-4.2,3.8c-2.9,0.7-5.8,1.1-8.7,1.1
		c-3.6-0.1-7.1-0.5-10.5-1.7c-0.6-0.2-0.5,0.1-0.6,0.5c-0.7,2.4-1.1,4.9-1.3,7.4c-0.3,4,0.3,7.9,1.3,11.8c0.1,0.4,0.2,0.4,0.6,0.3
		c3.4-1.2,6.9-1.6,10.5-1.7c3,0,5.9,0.4,8.7,1.1C42.1,50.9,43.5,52.1,45.1,53.2z M25.8,65.7c-2.5-3.5-4.6-7.2-6.2-11.2
		c-0.2-0.4-0.3-0.5-0.7-0.2c-2.1,1.2-4.1,2.5-5.7,4.4c-0.6,0.4-0.9,1.1-1.4,1.6c-0.4,0.5-0.3,0.7,0.1,1.1c2.9,2.7,6.1,4.7,9.8,6.1
		c2.1,0.8,4.3,1.4,6.7,1.6C27.5,67.8,26.7,66.8,25.8,65.7z M25.8,14.3c0.9-1.1,1.7-2.1,2.7-3.3c-0.4,0-0.8,0-1.1,0.1
		c-5.3,0.9-10,3-14.1,6.5c-2.1,1.8-2.1,1.8-0.2,3.8c0,0,0.1,0,0.1,0c1.6,1.9,3.5,3.2,5.7,4.4c0.4,0.2,0.5,0.2,0.7-0.2
		c0.3-0.9,0.7-1.7,1.1-2.6C22.1,19.9,23.9,17.1,25.8,14.3z M32.1,51.2c-3.2-0.1-6.4,0.4-9.5,1.4c-0.4,0.1-0.6,0.3-0.4,0.8
		c2,4.8,4.6,9.1,7.9,13.1c0.5,0.6,1,1.2,1.5,1.8c0.3,0.4,0.5,0.4,0.9,0c4-4.4,7.2-9.3,9.5-14.9c0.2-0.4,0.1-0.6-0.3-0.7
		C38.6,51.7,35.4,51.1,32.1,51.2z M30.1,13.5c-3.4,3.9-6,8.3-7.9,13.1c-0.2,0.6,0.1,0.7,0.5,0.8c3.1,1,6.2,1.5,9.4,1.4
		c3.2,0.1,6.4-0.5,9.5-1.5c0.6-0.2,0.5-0.5,0.4-0.9c-1.9-4.8-4.6-9.1-8-13.1c-0.6-0.7-1.1-1.9-1.9-1.8
		C31.3,11.6,30.7,12.8,30.1,13.5z M11.3,56.4c1.9-1.9,4-3.6,6.4-4.7c0.6-0.3,0.6-0.6,0.5-1.2c-0.9-3.1-1.4-6.3-1.5-9.6
		c-0.1-3.9,0.4-7.7,1.5-11.4c0.1-0.4,0.3-0.7-0.3-1c-2.5-1.2-4.7-2.9-6.6-4.9c-0.6-0.7-1.2-1.5-1.8-2.2c-9,10.6-9,26.6,0,37.3
		C10.1,57.9,10.7,57.2,11.3,56.4z"/>
	<path class="st0" d="M64.9,30.3c-0.9-1-1.9-1.9-3-2.8c6.1,0,8,0,14.1,0c0.4,0,0.5,0.1,0.5,0.5c0.1,2.3,0.1,2.3-2.2,2.3
		C69.8,30.3,69.5,30.3,64.9,30.3z"/>
	<path class="st0" d="M61.9,52.5c1.1-0.9,2.1-1.8,3-2.8c5,0,5.8,0,10.8,0c0.7,0,0.9,0.2,0.9,0.9c-0.1,1.9,0,1.9-1.9,1.9
		C69,52.6,67.6,52.6,61.9,52.5z"/>
	<path class="st0" d="M66.8,47c0.4-0.9,0.7-1.9,1.1-2.8c4.1,0,3.8,0,7.9,0c0.7,0,0.9,0.1,0.9,0.9c-0.1,1.9,0,1.9-2,1.9
		C70.5,47,70.8,47,66.8,47z"/>
	<path class="st0" d="M67.8,35.8c-0.4-0.9-0.7-1.9-1.1-2.8c4.5,0,4.7,0,9.2,0c0.4,0,0.6,0.1,0.6,0.6c0.1,2.2,0.1,2.2-2.1,2.2
		C70.8,35.8,71.5,35.8,67.8,35.8z"/>
	<path class="st0" d="M68.4,41.4c0-0.9,0-1.9,0-2.8c1.7,0,1.2,0,2.8,0c0.5,0,0.6,0.1,0.6,0.6c0,2.2,0,2.2-2.1,2.2
		C68.5,41.4,69.5,41.4,68.4,41.4z"/>
	<path class="st0" d="M78.6,33c1.4,0,1.4,0,1.4,1.3c0,1.4,0,1.4-1.4,1.4c-1.4,0-1.4,0-1.4-1.3C77.2,33,77.2,33,78.6,33z"/>
	<path class="st0" d="M80,45.6c0,1.4,0,1.4-1.3,1.4c-1.4,0-1.4,0-1.4-1.4c0-1.4,0-1.4,1.3-1.4C80,44.2,80,44.2,80,45.6z"/>
	<path class="st0" d="M80,28.9c0,1.4,0,1.4-1.4,1.4c-1.4,0-1.4,0-1.4-1.4c0-1.4,0-1.4,1.4-1.4C80,27.5,80,27.5,80,28.9z"/>
	<path class="st0" d="M78.6,49.8c1.4,0,1.4,0,1.4,1.4c0,1.4,0,1.4-1.4,1.4c-1.3,0-1.3,0-1.3-1.4C77.2,49.8,77.2,49.8,78.6,49.8z"/>
	<path class="st0" d="M71.8,19c0,1.5,0,1.5-1.5,1.5c-1.3,0-1.3,0-1.3-1.3c0-1.5,0-1.5,1.5-1.5C71.8,17.7,71.8,17.7,71.8,19z"/>
	<path class="st0" d="M66.9,20.5c-1.3,0-1.3,0-1.3-1.4c0-1.4,0-1.4,1.5-1.4c1.3,0,1.3,0,1.3,1.4C68.4,20.5,68.4,20.5,66.9,20.5z"/>
	<path class="st0" d="M73.9,38.6c1.3,0,1.3,0,1.3,1.3c0,1.5,0,1.5-1.5,1.5c-1.3,0-1.3,0-1.3-1.3C72.4,38.6,72.4,38.6,73.9,38.6z"/>
	<path class="st0" d="M47.4,40c0-2.1,0-4.1,0-6.2c0-0.6,0.2-0.8,0.8-0.7c0.9,0,1.9,0,2.8,0c0.5,0,0.7-0.1,0.6-0.6c0-0.1,0-0.2,0-0.3
		c0.1-0.6-0.3-1.6,0.1-1.8c0.6-0.3,1.5-0.1,2.3-0.1c0.4,0,0.3,0.2,0.3,0.5c0,0.6,0,1.2,0,1.8c0,0.4,0.1,0.5,0.5,0.5
		c3.3,0.6,4.7,3.7,2.9,6.6c-0.2,0.3-0.2,0.5,0,0.7c1.8,2.9,0.4,5.9-3,6.6c-0.4,0.1-0.5,0.2-0.5,0.5c0,0.1,0,0.2,0,0.3
		c-0.1,0.6,0.3,1.6-0.1,1.8c-0.6,0.3-1.5,0.1-2.3,0.1c-0.3,0-0.3-0.2-0.3-0.5c0-0.5,0-1,0-1.6c0.1-0.6-0.1-0.8-0.7-0.8
		C50,47,49,47,48.1,47c-0.5,0-0.7-0.1-0.7-0.7C47.4,44.2,47.4,42.1,47.4,40z M52.5,41.4c-2.4,0-2.4,0-2.3,2.2c0,0,0,0.1,0,0.1
		c-0.1,0.4,0.1,0.5,0.5,0.5c1.2,0,2.4,0,3.7,0c0.9,0,1.5-0.6,1.4-1.4c0-0.8-0.6-1.3-1.4-1.4C53.8,41.4,53.2,41.4,52.5,41.4z
		 M52.5,38.6c0.6,0,1.2,0,1.7,0c0.9,0,1.5-0.6,1.5-1.4c0-0.8-0.6-1.3-1.5-1.4c-0.7,0-1.3,0-2,0c-2.2,0-2.1,0-2.1,2.2
		c0,0.4,0.1,0.6,0.6,0.6C51.4,38.6,51.9,38.6,52.5,38.6z"/>
	<g>
		<path class="st1" d="M40.8,30.6c1.3-1.4,2.7-2.7,4.2-3.8c1.5-0.7,3-1.4,4.7-1.8c4.1-0.9,7.9-0.1,11.5,2.1c0.2,0.1,0.4,0.3,0.7,0.4
			c1.1,0.9,2.1,1.8,3,2.8c0.6,0.9,1.2,1.9,1.9,2.8c0.4,0.9,0.7,1.9,1.1,2.8c0.2,0.9,0.3,1.9,0.5,2.8c0,0.9,0,1.9,0,2.8
			c-0.2,0.9-0.3,1.9-0.5,2.8c-0.4,0.9-0.7,1.9-1.1,2.8c-0.6,0.9-1.2,1.9-1.9,2.8c-0.9,1-1.9,1.9-3,2.8c-2.1,1.4-4.4,2.4-7,2.7
			c-3.3,0.4-6.3-0.2-9.2-1.7c-0.2-0.1-0.4-0.2-0.6-0.3c-1.5-1.1-3-2.4-4.2-3.8c-0.1-0.2-0.1-0.3-0.2-0.5c-3.1-4.5-3.8-9.2-1.9-14.4
			C39.2,33.2,40.1,31.9,40.8,30.6z M47.4,40c0,2.1,0,4.2,0,6.4c0,0.5,0.1,0.7,0.7,0.7c0.9,0,1.9,0,2.8,0c0.6,0,0.8,0.2,0.7,0.8
			c0,0.5,0,1,0,1.6c0,0.2,0,0.5,0.3,0.5c0.8,0,1.7,0.2,2.3-0.1c0.4-0.2,0.1-1.2,0.1-1.8c0-0.1,0-0.2,0-0.3c0-0.3,0.1-0.5,0.5-0.5
			c3.4-0.6,4.7-3.7,3-6.6c-0.2-0.3-0.2-0.4,0-0.7c1.8-2.9,0.4-5.9-2.9-6.6c-0.4-0.1-0.5-0.2-0.5-0.5c0-0.6,0-1.2,0-1.8
			c0-0.2,0-0.5-0.3-0.5c-0.8,0-1.7-0.2-2.3,0.1c-0.4,0.2-0.1,1.2-0.1,1.8c0,0.1,0,0.2,0,0.3c0.1,0.5-0.2,0.6-0.6,0.6
			c-0.9,0-1.9,0-2.8,0c-0.6,0-0.8,0.1-0.8,0.7C47.5,35.8,47.4,37.9,47.4,40z"/>
		<path class="st1" d="M11.3,23.6c2,1.9,4.1,3.6,6.6,4.9c0.6,0.3,0.4,0.6,0.3,1c-1.1,3.7-1.6,7.5-1.5,11.4c0.1,3.3,0.6,6.5,1.5,9.6
			c0.2,0.6,0.1,0.9-0.5,1.2c-2.4,1.2-4.5,2.9-6.4,4.7c-0.1-0.1-0.2-0.2-0.3-0.3c-4.8-6.4-6.4-13.6-4.9-21.5
			C6.9,30.6,8.6,26.8,11.3,23.6z"/>
		<path class="st1" d="M32.1,48.4c-3.6,0.1-7.1,0.5-10.5,1.7c-0.4,0.1-0.5,0-0.6-0.3c-1.1-3.9-1.6-7.8-1.3-11.8
			c0.2-2.5,0.6-5,1.3-7.4c0.1-0.3,0.1-0.7,0.6-0.5c3.4,1.2,6.9,1.6,10.5,1.7C32.1,37.2,32.1,42.8,32.1,48.4z"/>
		<path class="st1" d="M30.1,13.5c1.9,0,1.9,0,1.9,2c0,4.4,0,8.9,0,13.3c-3.2,0.1-6.4-0.4-9.4-1.4c-0.4-0.1-0.7-0.2-0.5-0.8
			C24.2,21.8,26.8,17.5,30.1,13.5z"/>
		<path class="st1" d="M32.1,51.2c0,4.7,0,9.4,0,14.2c0,1.3,0.2,1.1-1.2,1.1c-0.3,0-0.5,0-0.8,0c-3.4-3.9-6-8.3-7.9-13.1
			c-0.2-0.5-0.1-0.6,0.4-0.8C25.7,51.6,28.8,51.1,32.1,51.2z"/>
		<path class="st1" d="M25.8,14.3c-1.9,2.8-3.7,5.6-5.1,8.7c-0.4,0.8-0.8,1.7-1.1,2.6c-0.2,0.4-0.3,0.5-0.7,0.2
			c-2.1-1.2-4.1-2.5-5.7-4.4c0.8-0.7,1.6-1.5,2.4-2.1C18.7,16.9,22,15.1,25.8,14.3z"/>
		<path class="st1" d="M13.2,58.7c1.6-1.8,3.5-3.2,5.7-4.4c0.4-0.2,0.5-0.2,0.7,0.2c1.6,4,3.7,7.7,6.2,11.2
			c-0.6-0.2-1.2-0.3-1.8-0.5C19.8,63.9,16.3,61.7,13.2,58.7z"/>
		<path class="st1" d="M52.5,41.4c0.6,0,1.2,0,1.8,0c0.8,0,1.4,0.6,1.4,1.4c0,0.8-0.6,1.4-1.4,1.4c-1.2,0-2.4,0-3.7,0
			c-0.4,0-0.5-0.1-0.5-0.5c0,0,0-0.1,0-0.1C50.1,41.4,50.1,41.4,52.5,41.4z"/>
		<path class="st1" d="M52.5,38.6c-0.6,0-1.2,0-1.7,0c-0.5,0-0.6-0.2-0.6-0.6c-0.1-2.2-0.1-2.2,2.1-2.2c0.7,0,1.3,0,2,0
			c0.9,0,1.5,0.6,1.5,1.4c0,0.8-0.6,1.4-1.5,1.4C53.7,38.6,53.1,38.6,52.5,38.6z"/>
	</g>
</g>
</svg>
