<?xml version="1.0" encoding="utf-8"?>
<!-- Generator: Adobe Illustrator 19.2.1, SVG Export Plug-In . SVG Version: 6.00 Build 0)  -->
<svg version="1.1" id="Layer_1" xmlns="http://www.w3.org/2000/svg" xmlns:xlink="http://www.w3.org/1999/xlink" x="0px" y="0px"
	 viewBox="0 0 80 80" style="enable-background:new 0 0 80 80;" xml:space="preserve">
<style type="text/css">
	.st0{fill:#261449;}
	.st1{fill:#4EE482;}
</style>
<g>
	<path class="st0" d="M30.8,0.2C31-0.1,31.3,0,31.6,0c15.9,0,31.8,0,47.7,0C79.9,0,80,0.2,80,0.8c0,18.4,0,36.9,0,55.3
		c0,0.6-0.2,0.7-0.7,0.7c-9.8,0-19.6,0-29.4,0c-0.7,0-0.8,0.2-0.8,0.9c0,7.3,0,14.6,0.1,21.8c0,0.7-0.4,0.5-0.8,0.5
		c-9.5,0-18.9,0-28.4,0c-3.8,0-7.6,0-11.4,0c-0.6,0-0.7-0.1-0.7-0.7c0-2.2,0-4.4,0-6.5c0-0.3,0-0.6-0.3-0.8
		c-6.6-4.5-9.2-12.5-6.2-20.6C4.1,43.6,9.7,39,17.9,37.6c1-0.2,0.8-1.1,1-1.7c0.2-0.5-0.4-0.4-0.7-0.6c-2.7-1.4-4.5-3.5-5.1-6.4
		c-0.1-0.3-0.1-0.5-0.5-0.5c-4.2-0.5-6.1-4.6-3.9-8.2c0.1-0.1,0.1-0.2,0.2-0.3c0.9-0.9,1.9-1.6,3.2-1.8c0.8-0.1,0.9-0.4,0.9-1.1
		c-0.1-2.8,1.2-4.9,3.8-6.1c0.5-0.3,1.5-0.2,1.7-0.6c0.2-0.5-0.1-1.2-0.3-1.8c-0.1-0.6,0.1-0.8,0.7-0.7c0.4,0,0.8,0,1.1,0
		c0.5-0.1,0.7,0.1,0.8,0.6c0.3,2.3,1.9,4.1,4.3,4.4c1.6,0.3,3.3,0.1,4.9,0.1c0.7,0,1.2-0.7,1.1-1.4c-0.1-0.7-0.6-1.1-1.3-1.2
		c-1.3-0.1-1.3-0.1-1.3-1.4c0-0.3,0-0.5,0-0.8c0-0.2,0-0.4,0.3-0.4c1.3-0.1,2.8-0.1,3.6,1c1.1,1.5,2.4,2.9,3.3,4.5
		c0.2,0.4,0.3,0.8,0.4,1.2c0.3,1,0.1,2,0.1,3c0,0.3,0,0.5,0.4,0.5c1.6,0.1,2.8,0.9,3.8,2c2.3,3.9,0.5,7.5-3.9,8.2
		C36,28.5,36,28.7,36,28.9c-0.7,3-2.4,5.1-5.1,6.4c-0.2,0.1-0.9,0-0.7,0.6c0.3,0.6,0,1.5,1,1.7c4.6,0.7,8.6,2.7,11.9,6
		c1.3,1.3,2.3,2.8,3.4,4.5c0-2.2,0-4.2,0-6.2c0-0.4,0.1-0.6,0.6-0.6c2.2,0,4.4,0,6.6,0c0.5,0,0.6,0.2,0.6,0.6c0,1.8,0,3.5,0,5.3
		c0,1.8,0,1.8,1.8,1.8c0.6,0,0.8-0.1,0.8-0.8c0-3.8,0-7.6,0-11.4c0-0.6,0.1-0.8,0.7-0.8c2.1,0,4.2,0,6.3,0c0.6,0,0.8,0.1,0.8,0.7
		c0,3.5,0,6.9,0,10.4c0,1.8,0,1.8,1.8,1.8c0.7,0,0.8-0.1,0.8-0.8c0-5.5,0-11.1,0-16.6c0-0.5,0.1-0.7,0.6-0.7c2.1,0,4.2,0,6.3,0
		c0.7,0,0.8,0.1,0.8,0.8c0,6.3,0,12.7,0,19c0,0.7-0.1,0.8-0.8,0.8c-8.4,0-16.8,0-25.1,0c-0.3,0-0.6-0.1-0.9,0.1
		c0.2,0.6,0.4,1.1,0.4,1.7c0.1,0.6,0.4,0.8,1,0.8c9,0,18,0,27.1,0c0.7,0,0.9-0.1,0.9-0.8c0-16.7,0-33.3,0-50c0-0.7-0.2-0.8-0.8-0.8
		c-6.6,0-13.3,0-19.9,0c-6.6,0-13.3,0-19.9,0c-0.2-0.2-0.5-0.3-0.7-0.5C34.4,1.1,32.8,0.3,30.8,0.2z M15.8,40.7
		c-5.4,1.7-9.3,5-11.6,10.2c-2.1,4.9-2.4,9.8,0.4,14.5c2.3,3.9,5.8,6.1,10.3,6.8c0.5,0.1,0.6,0,0.6-0.5c0-1.3,0-2.6,0-3.9
		c0-0.5-0.1-0.8-0.7-0.9c-3.7-0.8-6.3-3.7-6.9-7.4c-0.3-1.5-0.1-3.1-0.1-4.7c0-1.9,0-1.9,2-1.9c0.6,0,0.6,0.2,0.6,0.7
		c0,1.6,0,3.1,0,4.7c0,2.9,2.2,5.5,5.1,6.1c0.6,0.1,0.9,0,1.3-0.4c0.9-1,2-1.6,3.3-1.9c0.5-0.1,0.6-0.3,0.6-0.7c0-1.8,0-3.7,0-5.5
		c0-2.7,1.6-4.3,4.3-4.3c1.4,0,2.7,0,4.2,0c-1.5-1.5-2.9-2.8-4.2-4.2c-0.4-0.4-0.6-0.4-0.9,0c-2.1,2.2-4.3,4.3-6.4,6.4
		c-0.2,0.2-0.3,0.4-0.6,0.4C16.6,49.8,16.2,45.3,15.8,40.7z M32.9,13.8c-1,1.4-2.4,1.8-4,1.7c-0.9-0.1-1.9,0-2.8,0
		c-2.2,0-4.1-0.7-5.7-2.3c-0.2-0.2-0.4-0.3-0.7-0.3c-2.3-0.1-4.2,1.6-4.2,3.9c0,3.5,0,6.9,0,10.4c0,3,2.2,5.7,5.2,6.2
		c2.2,0.4,4.4,0.1,6.6,0.1c3.4,0,6.2-2.9,6.3-6.3c0-3.8,0-7.6,0-11.4C33.6,15.1,33.4,14.5,32.9,13.8z M38.7,65.8c0-3.4,0-6.7,0-10.1
		c0-1-0.5-1.5-1.5-1.5c-4.1,0-8.3,0-12.4,0c-1.1,0-1.5,0.5-1.5,1.5c0,1.9,0,3.8,0,5.7c0,0.4,0.1,0.6,0.5,0.8
		c2.9,0.9,4.6,3.3,4.6,6.2c0,2.9-1.8,5.2-4.6,6.2c-0.2,0.1-0.4,0-0.5,0.2c-0.6,1.1,0.3,2.6,1.5,2.6c4.1,0,8.2,0,12.2,0
		c1.3,0,1.7-0.4,1.7-1.7C38.7,72.4,38.7,69.1,38.7,65.8z M33.3,40.7c-0.3,3.5-0.6,6.9-1,10.4c0,0.5,0.1,0.5,0.5,0.5c1.5,0,3,0,4.5,0
		c2.3,0,4,1.7,4,4c0,1.9,0,3.7,0,5.6c0,2.7,0,5.3,0,8c0,0.3-0.1,0.6,0.4,0.6c1.4,0,2.9,0,4.3,0c0.3,0,0.4-0.1,0.4-0.4
		c-0.1-4.5,0.2-8.9-0.2-13.4C45.7,49,40.1,42.5,33.3,40.7z M18.1,69.2c0,0.3,0,0.6,0,0.9c0,0.7-0.3,1.6,0.1,2
		c0.4,0.3,1.3,0.1,1.9,0.1c1,0,2.1,0.2,3.1-0.2c1.5-0.6,2.4-1.7,2.5-3.3c0.1-1.7-0.6-3-2-3.7c-1.6-0.8-3.2-0.7-4.6,0.4
		c-0.7,0.5-1.2,1.1-1.1,2.1C18.2,68.1,18.1,68.7,18.1,69.2z M72.2,41.3c0-2,0-3.9,0-5.9c0-1.9,0-1.8-1.8-1.9c-0.6,0-0.7,0.1-0.7,0.7
		c0,4.3,0,8.5,0,12.8c0,2,0,1.9,1.9,2c0.5,0,0.7-0.1,0.7-0.7C72.2,46,72.2,43.7,72.2,41.3z M24.6,36.1c-0.4,0-0.8,0-1.2,0
		c-1.8,0-1.8,0-2.3,1.7c-0.1,0.3-0.3,0.5,0,0.9c1.1,1.3,2.2,2.7,3.2,4c0.2,0.3,0.4,0.3,0.6,0c0.8-1,1.5-2,2.3-2.9c1-1,1.1-2,0.5-3.2
		c-0.2-0.4-0.3-0.6-0.8-0.6C26.1,36.2,25.4,36.1,24.6,36.1z M10.4,73.5c0,1.2,0,2.3,0,3.4c0,0.3,0,0.4,0.4,0.4c3.2,0,6.5,0,9.7,0
		c0.3,0,0.4-0.1,0.3-0.4c-0.2-0.5-0.2-1-0.1-1.4c0.1-0.6-0.1-0.8-0.7-0.7C16.7,74.9,13.5,74.9,10.4,73.5z M43.7,77.4
		c0.7,0,1.4,0,2.2,0c0.4,0,0.6,0,0.6-0.5c0-1.4,0-2.8,0-4.2c0-0.4-0.1-0.5-0.5-0.5c-1.4,0-2.8,0-4.2,0c-0.4,0-0.5,0.1-0.5,0.5
		c0,1.5,0.2,2.9-0.1,4.4c-0.1,0.4,0.2,0.3,0.4,0.3C42.3,77.4,43,77.4,43.7,77.4z M61.9,43.9c0-1.1,0-2.1,0-3.2c0-2,0-1.9-1.9-1.9
		c-0.5,0-0.7,0.1-0.7,0.7c0,2.6,0,5.2,0,7.7c0,2,0,2,2,1.9c0.5,0,0.6-0.1,0.6-0.6C61.9,46.9,61.9,45.4,61.9,43.9z M30,48.7
		c0.3-2.8,0.5-5.5,0.7-8.1c0-0.2,0.1-0.4-0.2-0.5c-0.3-0.1-0.4,0.1-0.5,0.3c-1.2,1.4-2.3,2.9-3.5,4.3c-0.1,0.2-0.3,0.3-0.1,0.5
		C27.6,46.4,28.7,47.5,30,48.7z M19.1,48.8c1.2-1.3,2.4-2.4,3.5-3.5c0.3-0.3,0-0.4-0.1-0.6c-1.1-1.4-2.2-2.8-3.4-4.2
		c-0.1-0.2-0.3-0.4-0.6-0.3c-0.3,0.1-0.2,0.4-0.2,0.6C18.6,43.3,18.9,45.9,19.1,48.8z M51.6,46.5c0-0.2,0-0.4,0-0.6c0-2,0-2-2.1-1.9
		c0,0-0.1,0-0.1,0c-0.3,0-0.4,0.1-0.4,0.4c0,1.4,0,2.9,0,4.3c0,0.3,0.1,0.4,0.4,0.4c2.2,0.2,2.2,0.2,2.2-1.9
		C51.6,46.9,51.6,46.7,51.6,46.5z M38.7,23.2c0-1.2-0.9-2.3-2.1-2.5c-0.4-0.1-0.5,0-0.5,0.4c0,1.4,0,2.8,0,4.3
		c0,0.4,0.2,0.5,0.5,0.4C37.8,25.5,38.7,24.5,38.7,23.2z M12.9,23.2c0-0.7,0-1.4,0-2.1c0-0.5-0.2-0.5-0.6-0.4c-1.2,0.3-2,1.3-2,2.6
		c0,1.2,0.9,2.2,2,2.5c0.4,0.1,0.6,0.1,0.6-0.4C12.9,24.6,12.9,23.9,12.9,23.2z"/>
	<path class="st0" d="M55.5,28.4c-6.4,0-11.6-5.2-11.6-11.6c0-6.4,5.3-11.6,11.7-11.6c6.4,0,11.6,5.3,11.6,11.7
		C67.1,23.2,61.8,28.4,55.5,28.4z M62.7,22.2c4-5.1,1-13-5.3-14.2c-0.5-0.1-0.6,0-0.6,0.5c0,2.4,0,4.9,0,7.3c0,0.3,0.1,0.5,0.3,0.8
		C58.9,18.4,60.8,20.3,62.7,22.2z M60.9,24c-1.9-1.9-3.8-3.8-5.6-5.6c-0.3-0.3-0.5-0.3-0.9-0.3c-2.4,0-4.8,0-7.2,0
		c-0.6,0-0.7,0.2-0.5,0.7c0.9,3.8,4.1,6.6,8,7C56.9,26,59,25.4,60.9,24z M54.2,11.7c0-1.1,0-2.2,0-3.3c0-0.4-0.1-0.5-0.5-0.5
		c-3.3,0.6-6.5,3.8-7,7c-0.1,0.3-0.1,0.5,0.4,0.5c2.2,0,4.4,0,6.7,0c0.4,0,0.5-0.1,0.5-0.5C54.2,13.9,54.2,12.8,54.2,11.7z"/>
	<path class="st0" d="M69.7,7.8c0-0.8-0.3-1.9,0.1-2.4c0.4-0.5,1.5-0.1,2.3-0.2c0.8,0,1.5,0,2.3,0c0.4,0,0.5,0.1,0.5,0.5
		c0,0.7,0,1.4,0,2.1C73.1,7.8,71.4,7.8,69.7,7.8z"/>
	<path class="st0" d="M69.7,23.2c0-0.9,0-1.7,0-2.6c1.7,0,3.4,0,5.1,0c0,0.9,0,1.7,0,2.6C73.1,23.2,71.4,23.2,69.7,23.2z"/>
	<path class="st0" d="M69.7,25.8c1.7,0,3.4,0,5.1,0c0,0.8,0.3,1.9-0.1,2.4c-0.4,0.5-1.5,0.1-2.3,0.2c-0.8,0-1.5,0-2.3,0
		c-0.4,0-0.5-0.1-0.5-0.5C69.7,27.2,69.7,26.5,69.7,25.8z"/>
	<path class="st0" d="M74.8,18.1c-1.7,0-3.4,0-5.1,0c0-0.9,0-1.7,0-2.6c1.7,0,3.4,0,5.1,0C74.8,16.4,74.8,17.2,74.8,18.1z"/>
	<path class="st0" d="M74.8,12.9c-1.7,0-3.4,0-5.1,0c0-0.9,0-1.7,0-2.6c1.7,0,3.4,0,5.1,0C74.8,11.2,74.8,12.1,74.8,12.9z"/>
	<g>
		<path class="st1" d="M30.8,0.2c1.9,0.2,3.6,0.9,5.2,2c0.2,0.2,0.5,0.3,0.7,0.5c0.3,0.3,0.6,0.6,0.8,0.9c2.8,2.9,4.1,6.3,3.5,10.3
			c-0.3,2.1-0.6,4.2-0.9,6.4c-1-1.2-2.2-1.9-3.8-2c-0.4,0-0.4-0.2-0.4-0.5c0-1,0.1-2-0.1-3c-0.1-0.4-0.2-0.8-0.4-1.2
			c-0.9-1.6-2.2-3-3.3-4.5c-0.8-1.1-2.2-1.1-3.6-1c-0.3,0-0.3,0.2-0.3,0.4c0,0.3,0,0.5,0,0.8c0,1.3,0,1.3,1.3,1.4
			c0.7,0.1,1.2,0.5,1.3,1.2c0.1,0.7-0.4,1.3-1.1,1.4c-1.6,0-3.3,0.2-4.9-0.1c-2.3-0.4-3.9-2.1-4.3-4.4c-0.1-0.6-0.3-0.7-0.8-0.6
			c-0.4,0-0.8,0-1.1,0c-0.6-0.1-0.8,0.1-0.7,0.7c0.1,0.6,0.5,1.4,0.3,1.8c-0.2,0.4-1.1,0.4-1.7,0.6c-2.5,1.2-3.8,3.3-3.8,6.1
			c0,0.7-0.1,1-0.9,1.1c-1.3,0.1-2.3,0.9-3.2,1.8c-0.4-1.2-0.4-2.4-0.6-3.6C8.1,15.2,8,14.1,7.9,13C7.4,6.9,11.7,1.6,17.2,0.4
			C18.1,0.1,19.1,0,20,0c3,0,6,0,9,0C29.6,0,30.2,0.1,30.8,0.2z"/>
		<path class="st1" d="M69.7,23.2c1.7,0,3.4,0,5.1,0c0,0.9,0,1.7,0,2.6c-1.7,0-3.4,0-5.1,0C69.7,25,69.7,24.1,69.7,23.2z"/>
		<path class="st1" d="M74.8,20.7c-1.7,0-3.4,0-5.1,0c0-0.9,0-1.7,0-2.6c1.7,0,3.4,0,5.1,0C74.8,18.9,74.8,19.8,74.8,20.7z"/>
		<path class="st1" d="M74.8,15.5c-1.7,0-3.4,0-5.1,0c0-0.9,0-1.7,0-2.6c1.7,0,3.4,0,5.1,0C74.8,13.8,74.8,14.6,74.8,15.5z"/>
		<path class="st1" d="M74.8,10.3c-1.7,0-3.4,0-5.1,0c0-0.9,0-1.7,0-2.6c1.7,0,3.4,0,5.1,0C74.8,8.6,74.8,9.5,74.8,10.3z"/>
	</g>
	<path class="st0" d="M23.7,31c-0.8,0-1.7,0-2.5,0c-0.4,0-0.5-0.1-0.5-0.5c-0.1-2.1-0.1-2.1,2-2.1c1,0,2,0,3,0
		c1.4,0,2.4-0.7,2.7-2.1c0.1-0.4,0.2-0.5,0.5-0.5c0.5,0,1.1,0,1.6,0c0.5,0,0.5,0.2,0.5,0.6c-0.2,2.5-2.4,4.5-4.9,4.6
		C25.3,31,24.5,31,23.7,31C23.7,31,23.7,31,23.7,31z"/>
	<path class="st0" d="M29.7,20.7c-0.7,0-1.3-0.6-1.3-1.3c0-0.7,0.6-1.3,1.4-1.3c0.7,0,1.2,0.6,1.2,1.3C31,20.1,30.4,20.7,29.7,20.7z
		"/>
	<path class="st0" d="M19.4,18.1c0.7,0,1.3,0.6,1.3,1.3c0,0.7-0.6,1.3-1.3,1.3c-0.7,0-1.3-0.6-1.3-1.3
		C18.1,18.7,18.7,18.1,19.4,18.1z"/>
	<path class="st0" d="M31,58.1c0,0.6,0.2,1.3-0.7,1.6c-0.5,0.1-0.6,0.8-0.5,1.3c0.1,0.5,0.5,0.9,1.1,1c0.6,0.1,1.1-0.1,1.3-0.6
		c0.2-0.7,0.6-0.7,1.1-0.6c0.2,0,0.3,0,0.5,0c1.4,0,1.4,0.1,0.9,1.4c-0.7,1.8-2.5,2.8-4.3,2.5c-1.9-0.4-3.2-2-3.2-3.9
		c0-1.8,1.4-3.4,3.3-3.8c0.5-0.1,0.7,0,0.6,0.6C31,57.6,31,57.8,31,58.1z"/>
</g>
</svg>
