<?xml version="1.0" encoding="utf-8"?>
<!-- Generator: Adobe Illustrator 19.2.1, SVG Export Plug-In . SVG Version: 6.00 Build 0)  -->
<svg version="1.1" id="Layer_1" xmlns="http://www.w3.org/2000/svg" xmlns:xlink="http://www.w3.org/1999/xlink" x="0px" y="0px"
	 viewBox="0 0 80 80" style="enable-background:new 0 0 80 80;" xml:space="preserve">
<style type="text/css">
	.st0{fill:#261449;}
	.st1{fill:#4EE482;}
</style>
<g>
	<path class="st0" d="M74.8,30c0-3.7,0-7.5,0-11.2c0-0.7-0.2-0.8-0.8-0.8c-1.8,0-1.8,0-1.8,1.8c0,2.5,0,5,0,7.5
		c0,0.5-0.1,0.7-0.6,0.8c-3,0.9-6,1.8-9,2.3c-0.5,0.1-0.7,0.2-0.7,0.8c0,2.3,0,4.7,0,7c0,0.6,0.2,0.8,0.7,0.9
		c3.9,1,7.8,1.9,11.6,2.9c2,0.5,3.2,1.9,3.2,4c0,4.3,0,8.7,0,13c0,2.2-0.7,4.2-2,5.9c-0.8,1-1.7,2.1-2.5,3.1
		c-0.2,0.3-0.3,0.5-0.1,0.8c1.9,3.3,2.2,6.9,2.1,10.7c0,0.3-0.1,0.4-0.4,0.4c-0.1,0-0.3,0-0.4,0c-7.2,0-14.4,0-21.6,0
		c-0.7,0-0.8-0.2-0.8-0.8c0-2.8,0.1-5.6,1.2-8.3c0.2-0.6,0.5-1.2,0.8-1.7c0.4-0.8-0.3-2-1.2-2c-0.1,0-0.2,0-0.3,0
		c-12.8,0-25.6,0-38.4,0c-0.6,0-0.8,0.1-0.7,0.7c0.1,0.5-0.1,1-0.3,1.6c-1.1,2.8-2.1,5.5-3.1,8.3C9,79.1,7.9,80,6.5,80
		c-1.4,0-2.5-0.8-3.1-2.4c-1.1-2.8-2.1-5.6-3.2-8.4C0.1,68.8,0,68.4,0,68C0,57,0,46.1,0,35.2c0-3.3,1.6-5.5,4.7-6.6
		c0.4-0.1,0.4-0.4,0.4-0.7c0-2.8,0-5.5,0-8.3c0-2.6,1.6-4.2,4.2-4.2c8.7,0,17.3,0,26,0c0.7,0,0.9-0.1,0.8-0.8c-0.1-0.4,0-0.9,0-1.3
		c0-2.1,1-3.1,3-3.1c4.3,0,8.7,0,13,0c0.5,0,0.7-0.1,0.8-0.7c0.3-2,1.4-3.3,3.2-4.1c0.4-0.2,0.6-0.4,0.6-0.8C57,2,59.2,0,61.9,0
		c3.4,0,6.9,0,10.3,0c2.9,0,5.1,2.3,5.2,5.2c0,1.5,0,3,0,4.5c0,0.4,0,0.6,0.5,0.7c1.4,0.3,2.1,1.3,2.1,2.7c0,0.8,0,1.6,0,2.4
		c0,1.2-0.8,2.3-2,2.5c-0.6,0.1-0.6,0.4-0.6,0.8c0,3.7,0,7.5,0,11.2C76.5,29.6,75.7,29.6,74.8,30z M54.2,44.1c0-0.3,0-0.5,0-0.6
		c0-4,0-8.1,0-12.1c0-0.6-0.2-0.9-0.8-1c-3.1-0.5-6.1-1.4-9-2.3c-0.4-0.1-0.5-0.3-0.5-0.7c0-1.2,0-2.4,0-3.6c0-0.5-0.1-0.6-0.6-0.6
		c-9.9,0-19.8,0-29.7,0c-0.5,0-0.6,0.1-0.6,0.6c0,11.6,0,23.3,0,34.9c0,0.5,0.1,0.6,0.6,0.6c1.9,0,3.8,0,5.6,0c9.7,0,19.4,0,29.1,0
		c0.6,0,0.8-0.2,0.8-0.8c0-1.6,0-3.3,0-4.9c0-1.2-0.3-2.3-0.8-3.3c-0.5-1-1-1.9-1.5-3c-1-2.3,0.6-4.8,3.1-4.8
		C51.4,42.6,52.8,43.1,54.2,44.1z M61.9,41.7c0,0.4,0,0.7,0,0.9c0,3.7,0,7.4,0,11.1c0,1.7,0,1.7-1.7,1.8c-0.7,0-0.9-0.1-0.9-0.9
		c0-9,0-17.9,0-26.9c0-0.3,0-0.5,0-0.8c-0.1-0.7-0.6-1.1-1.3-1.1c-0.7,0-1.1,0.4-1.3,1.1c0,0.2,0,0.5,0,0.7c0,8.6,0,17.2,0,25.9
		c0,2,0,2-2,2c-0.5,0-0.6-0.1-0.6-0.6c0-1.8,0-3.7,0-5.5c0-2.2-1.9-4.2-4-4.3c-1-0.1-1.4,0.5-0.9,1.4c0.4,0.8,0.8,1.6,1.2,2.4
		c0.8,1.6,1.2,3.2,1.2,5c0,1.7,0,3.5,0,5.2c0,1.5,0.5,2.9,1.4,4c0.9,1.2,1.9,2.3,2.8,3.5c0.3,0.3,0.5,0.4,0.9,0.4
		c4.4,0,8.7,0,13.1,0c0.4,0,0.7-0.1,0.9-0.4c0.9-1.2,1.8-2.3,2.8-3.5c0.8-1,1.3-2.2,1.4-3.6c0-4.6,0-9.1,0-13.7c0-0.7-0.3-1.1-1-1.3
		c-0.5-0.1-1-0.3-1.6-0.3c0,3.1,0,6.2,0,9.3c0,1.9,0,1.9-1.8,1.9c-0.6,0-0.8-0.1-0.8-0.7c0-3.1,0-6.2,0-9.3c0-1.9,0-1.9-1.9-2.4
		c-0.7-0.2-0.7,0-0.7,0.6c0,3.3,0,6.6,0,9.9c0,1.9,0,1.8-1.9,1.9c-0.6,0-0.7-0.2-0.7-0.8c0-3.9,0-7.8,0-11.8c0-0.3,0.2-0.7-0.3-0.8
		C63.4,42.1,62.7,41.9,61.9,41.7z M54.2,28c0-0.5,0-1.1,0.1-1.6c0.4-2,2.2-3.4,4.2-3.2c2,0.2,3.5,1.8,3.5,3.9c0,0.8,0.2,0.9,0.9,0.8
		c2.1-0.5,4.2-1,6.3-1.6c0.4-0.1,0.6-0.3,0.5-0.7c0-2.3,0-4.6,0-6.9c0-0.5-0.1-0.6-0.6-0.6c-1.6,0-3.1,0-4.7,0c-5.7,0-11.4,0-17.2,0
		c-0.7,0-0.8,0.2-0.8,0.8c0,2.2,0,4.5,0,6.7c0,0.3-0.1,0.6,0.3,0.7C49.2,26.9,51.6,27.6,54.2,28z M63.2,77.4c2.8,0,5.6,0,8.5,0
		c0.4,0,0.6-0.1,0.6-0.6c0-2.4-0.6-4.6-1.7-6.7c-0.2-0.4-0.5-0.5-0.9-0.5c-4.3,0-8.6,0-12.9,0c-0.4,0-0.7,0.1-0.9,0.5
		c-1.1,2.1-1.7,4.3-1.7,6.6c0,0.6,0.2,0.6,0.7,0.6C57.6,77.4,60.4,77.4,63.2,77.4z M10.3,29.7c0-2.8,0-5.5,0-8.2
		c0-0.7,0.2-0.8,0.8-0.8c10.3,0,20.6,0,30.9,0c1.8,0,1.8,0,1.8-1.8c0-0.6-0.1-0.8-0.7-0.8c-11.3,0-22.5,0-33.8,0
		c-1.2,0-1.6,0.4-1.6,1.7c0,2.6,0,5.1,0,7.7c0,0.8,0.1,1.3,1,1.4C9.3,28.9,9.7,29.3,10.3,29.7z M69,10.3c1.8,0,3.5,0,5.3,0
		c0.4,0,0.5-0.1,0.5-0.5c0-1.6,0-3.1,0-4.7c0-1.4-1.1-2.5-2.5-2.5c-3.5,0-7,0-10.5,0c-1.2,0-2.3,0.9-2.5,2.1c-0.1,0.4,0,0.6,0.4,0.8
		c2,0.8,3.1,2.2,3.4,4.3c0.1,0.5,0.3,0.5,0.6,0.5C65.5,10.3,67.3,10.3,69,10.3z M58,15.5c5.9,0,11.8,0,17.7,0c1.8,0,1.7,0,1.8-1.8
		c0-0.7-0.2-0.8-0.8-0.8c-12,0-24,0-36,0c-1.9,0-1.8,0-1.9,1.9c0,0.6,0.1,0.7,0.7,0.7C45.6,15.5,51.8,15.5,58,15.5z M50.7,64.5
		c-0.4-0.7-0.7-1.3-1-1.9c-0.2-0.6-0.5-0.7-1-0.7c-11.3,0-22.7,0-34,0c-1.8,0-1.7,0-1.8,1.8c0,0.7,0.2,0.8,0.8,0.8
		c12.1,0,24.1,0,36.2,0C50.1,64.5,50.4,64.5,50.7,64.5z M6.4,38.7c1.1,0,2.3,0,3.4,0c0.4,0,0.6-0.1,0.5-0.5c0-1.2,0-2.3,0-3.5
		c0-2.1-1.8-3.8-3.9-3.8c-2.1,0-3.8,1.7-3.9,3.7c0,1.2,0,2.3,0,3.5c0,0.5,0.2,0.6,0.6,0.5C4.3,38.7,5.3,38.7,6.4,38.7z M5.2,56.8
		c0-2.8,0-5.6,0-8.5c0-1.9,0-1.8-1.9-1.9c-0.6,0-0.7,0.1-0.7,0.7c0,6,0,12,0,18c0,0.6-0.2,1.4,0.1,1.8c0.4,0.4,1.2,0.1,1.8,0.2
		c0.5,0.1,0.7-0.1,0.7-0.7C5.2,63.2,5.2,60,5.2,56.8z M10.3,56.8c0-2.8,0-5.7,0-8.5c0-1.9,0-1.8-1.9-1.9c-0.6,0-0.7,0.1-0.7,0.7
		c0,6,0,12,0,18c0,2,0,1.9,1.9,2c0.5,0,0.7-0.1,0.7-0.7C10.3,63.2,10.3,60,10.3,56.8z M3.2,69.7c0.9,2.4,1.8,4.7,2.6,7
		C5.9,77,6,77.4,6.5,77.4c0.4,0,0.5-0.3,0.7-0.7c0.7-1.9,1.4-3.8,2.1-5.7c0.2-0.4,0.4-0.8,0.4-1.3C7.5,69.7,5.4,69.7,3.2,69.7z
		 M6.4,43.9c0.7,0,1.3,0,2,0c2,0,2,0,1.9-2c0-0.5-0.1-0.6-0.6-0.6c-1.7,0-3.4,0-5.2,0c-2.1,0-2.1,0-2,2.1c0,0.4,0.1,0.5,0.5,0.5
		C4.2,43.8,5.3,43.9,6.4,43.9z M58,10.3c0.7,0,1.5,0,2.2,0c0.4,0,0.5-0.1,0.4-0.5c-0.2-1.2-1.3-2.1-2.5-2.1c-1.2,0-2.3,0.9-2.5,2.1
		c-0.1,0.5,0.1,0.5,0.5,0.5C56.7,10.3,57.3,10.3,58,10.3z"/>
	<path class="st0" d="M43.9,47.8c0,2.8,0,5.5,0,8.3c0,0.6-0.2,0.7-0.7,0.7c-3.8,0-7.7,0-11.5,0c-0.6,0-0.7-0.2-0.7-0.7
		c0-5.6,0-11.1,0-16.7c0-0.6,0.2-0.7,0.7-0.7c3.8,0,7.7,0,11.5,0c0.6,0,0.7,0.2,0.7,0.7C43.9,42.2,43.9,45,43.9,47.8z M33.6,47.7
		c0,2,0,3.9,0,5.9c0,0.5,0.1,0.6,0.6,0.6c2.2,0,4.4,0,6.6,0c0.5,0,0.6-0.1,0.6-0.6c0-3.9,0-7.8,0-11.8c0-0.5-0.1-0.6-0.6-0.6
		c-2.2,0-4.4,0-6.6,0c-0.5,0-0.6,0.1-0.6,0.6C33.6,43.8,33.6,45.8,33.6,47.7z"/>
	<path class="st0" d="M15.5,41.3c0-0.8-0.3-1.9,0.1-2.4c0.4-0.5,1.5-0.1,2.3-0.1c3.3,0,6.6,0,9.8,0c0.5,0,0.7,0.1,0.7,0.7
		c-0.1,0.6,0,1.3,0,1.9C24.1,41.3,19.8,41.3,15.5,41.3z"/>
	<g>
		<path class="st1" d="M74.8,30c0.8-0.5,1.7-0.5,2.5,0c1.7,1.5,2.3,3.6,2.6,5.7c0.2,1.7-0.6,2.9-2,3.7c-1.3,0.8-2.7,0.7-4-0.2
			c-1.4-0.9-2-2.3-1.7-4C72.7,33.4,73.2,31.4,74.8,30z"/>
		<path class="st1" d="M28.4,25.8c4,0,8,0,12,0c0.7,0,0.9,0.1,0.9,0.9c-0.1,2.9,0,5.8,0,8.7c0,0.6-0.1,0.8-0.7,0.8
			c-8.1,0-16.2,0-24.3,0c-0.5,0-0.7-0.1-0.7-0.7c0-3,0-6,0-8.9c0-0.6,0.2-0.7,0.7-0.7C20.3,25.8,24.3,25.8,28.4,25.8z"/>
		<path class="st1" d="M28.4,51.6c0,0.9,0,1.7,0,2.6c-4.3,0-8.6,0-12.9,0c0-0.9,0-1.7,0-2.6c0.6,0,1.3,0,1.9,0
			c0.5,0,0.7-0.2,0.7-0.7c0-1.9,0-1.9-1.9-1.9c-0.2,0-0.4,0-0.6,0c0-0.9,0-1.7,0-2.6c4.3,0,8.6,0,12.9,0c0,0.9,0,1.7,0,2.6
			c-1.9,0-3.9,0-5.8,0c-2,0-1.9,0-2,1.9c0,0.5,0.1,0.7,0.7,0.7C23.7,51.6,26,51.6,28.4,51.6z"/>
		<path class="st1" d="M15.5,41.3c4.3,0,8.6,0,12.9,0c0,0.9,0,1.7,0,2.6c-4.3,0-8.6,0-12.9,0C15.5,43,15.5,42.1,15.5,41.3z"/>
	</g>
	<path class="st0" d="M15.5,43.9c4.3,0,8.6,0,12.9,0c0,0.9,0,1.7,0,2.6c-4.3,0-8.6,0-12.9,0C15.5,45.6,15.5,44.7,15.5,43.9z"/>
	<path class="st0" d="M15.5,54.2c4.3,0,8.6,0,12.9,0c0,0.8,0.3,1.9-0.1,2.4c-0.4,0.5-1.5,0.1-2.3,0.1c-3.3,0-6.6,0-9.8,0
		c-0.5,0-0.7-0.1-0.7-0.7C15.5,55.5,15.5,54.8,15.5,54.2z"/>
	<path class="st0" d="M28.4,51.6c-2.4,0-4.7,0-7.1,0c-0.5,0-0.7-0.1-0.7-0.7c0-1.9,0-1.9,2-1.9c1.9,0,3.9,0,5.8,0
		C28.4,49.9,28.4,50.7,28.4,51.6z"/>
	<path class="st0" d="M15.5,49c0.2,0,0.4,0,0.6,0c1.9,0,1.9,0,1.9,1.9c0,0.5-0.1,0.7-0.7,0.7c-0.6,0-1.3,0-1.9,0
		C15.5,50.7,15.5,49.9,15.5,49z"/>
</g>
</svg>
